<svg version="1.1" id="Layer_1" xmlns="http://www.w3.org/2000/svg" xmlns:xlink="http://www.w3.org/1999/xlink" x="0px" y="0px" viewBox="0 0 500 500" style="width: 188px;" xml:space="preserve" data-imageid="brainstorming-13" imageName="Brainstorming" class="illustrations_image">
<style type="text/css">
	.st0_brainstorming-13{fill:#FFFFFF;}
	.st1_brainstorming-13{fill:#093F68;}
	.st2_brainstorming-13{fill:#DFEAEF;}
	.st3_brainstorming-13{fill:#68E1FD;}
</style>
<g id="speech-bubble-2_brainstorming-13">
	<path class="st0_brainstorming-13" d="M206.9,81.5c-79.6,0-144.2,58.9-144.2,131.6c0,31.1,11.9,59.8,31.7,82.3L74.6,354l40.7-39.2&#10;&#9;&#9;c24.9,18.8,56.8,30,91.6,30c79.6,0,144.2-58.9,144.2-131.6S286.5,81.5,206.9,81.5z"/>
	<path class="st1_brainstorming-13" d="M74.6,356c-0.4,0-0.8-0.1-1.1-0.3c-0.8-0.5-1.2-1.5-0.8-2.4L92,295.9c-20.6-23.8-31.4-52.4-31.4-82.8&#10;&#9;&#9;c0-73.7,65.6-133.7,146.2-133.7S353,139.4,353,213.1s-65.6,133.7-146.2,133.7c-33.2,0-65.6-10.4-91.5-29.4l-39.4,38&#10;&#9;&#9;C75.6,355.8,75.1,356,74.6,356z M206.9,83.6c-78.4,0-142.1,58.1-142.1,129.6c0,29.7,10.8,57.7,31.2,80.9c0.5,0.6,0.6,1.3,0.4,2&#10;&#9;&#9;l-17.1,50.5l34.6-33.3c0.7-0.7,1.9-0.8,2.7-0.2c25.4,19.1,57.5,29.6,90.4,29.6c78.4,0,142.1-58.1,142.1-129.6&#10;&#9;&#9;S285.2,83.6,206.9,83.6z"/>
	<path class="st2_brainstorming-13" d="M143.4,180.2H89.9c-1.1,0.1-2.1-0.8-2.2-1.9s0.8-2.1,1.9-2.2c0.1,0,0.2,0,0.3,0h53.4c1.1-0.1,2.1,0.8,2.2,1.9&#10;&#9;&#9;s-0.8,2.1-1.9,2.2C143.6,180.2,143.5,180.2,143.4,180.2z"/>
	<path class="st2_brainstorming-13" d="M143.4,203.4H89.9c-1.1,0-2.1-0.9-2.1-2.1c0-1.1,0.9-2.1,2.1-2.1c0,0,0,0,0,0h53.4c1.1,0,2.1,0.9,2.1,2.1&#10;&#9;&#9;C145.4,202.5,144.5,203.4,143.4,203.4C143.4,203.4,143.4,203.4,143.4,203.4z"/>
	<path class="st2_brainstorming-13" d="M143.4,226.6H89.9c-1.1,0.1-2.1-0.8-2.2-1.9s0.8-2.1,1.9-2.2c0.1,0,0.2,0,0.3,0h53.4c1.1-0.1,2.1,0.8,2.2,1.9&#10;&#9;&#9;s-0.8,2.1-1.9,2.2C143.6,226.7,143.5,226.7,143.4,226.6z"/>
	<path class="st2_brainstorming-13" d="M116.6,249.9H89.9c-1.1,0.1-2.1-0.8-2.2-1.9s0.8-2.1,1.9-2.2c0.1,0,0.2,0,0.3,0h26.7c1.1,0.1,2,1.1,1.9,2.2&#10;&#9;&#9;C118.5,249,117.7,249.8,116.6,249.9z"/>
</g>
<g id="speech-bubble-1_brainstorming-13">
	<path class="st1_brainstorming-13" d="M370.3,420.6c-0.6,0-1.2-0.3-1.6-0.8l-34.2-44.4H192.4c-15.1,0-27.3-12.2-27.3-27.3V175.2&#10;&#9;&#9;c0-15.1,12.2-27.3,27.3-27.3H412c15.1,0,27.3,12.2,27.3,27.3V348c0,15.1-12.2,27.3-27.3,27.3h-39.7v43.2c0,0.9-0.5,1.7-1.4,2&#10;&#9;&#9;C370.8,420.5,370.6,420.6,370.3,420.6z M192.4,152c-12.8,0-23.2,10.4-23.2,23.2V348c0,12.8,10.4,23.2,23.2,23.2h143.1&#10;&#9;&#9;c0.6,0,1.2,0.3,1.6,0.8l31.2,40.4v-39.2c0-1.1,0.9-2.1,2.1-2.1h41.7c12.8,0,23.2-10.4,23.2-23.2V175.2c0-12.8-10.4-23.2-23.2-23.2&#10;&#9;&#9;L192.4,152z"/>
	<path class="st2_brainstorming-13" d="M411.4,282.8h-46.5c-1.1,0.1-2.1-0.8-2.2-1.9c-0.1-1.1,0.8-2.1,1.9-2.2c0.1,0,0.2,0,0.3,0h46.5&#10;&#9;&#9;c1.1,0.1,2,1.1,1.9,2.2C413.3,281.9,412.4,282.7,411.4,282.8z"/>
	<path class="st2_brainstorming-13" d="M411.4,310.3h-80.6c-1.1-0.1-2-1.1-1.9-2.2c0.1-1,0.9-1.8,1.9-1.9h80.6c1.1,0.1,2,1.1,1.9,2.2&#10;&#9;&#9;C413.3,309.4,412.4,310.2,411.4,310.3z"/>
	<path class="st2_brainstorming-13" d="M411.4,337.8h-80.6c-1.1,0-2.1-0.9-2.1-2.1c0-1.1,0.9-2.1,2.1-2.1h80.6c1.1,0,2.1,0.9,2.1,2.1&#10;&#9;&#9;C413.5,336.9,412.6,337.8,411.4,337.8C411.4,337.8,411.4,337.8,411.4,337.8z"/>
</g>
<g id="light_brainstorming-13">
	<ellipse class="st1_brainstorming-13" cx="243.4" cy="302" rx="15.5" ry="11.8"/>
	<path class="st1_brainstorming-13" d="M243.4,315.9c-9.7,0-17.6-6.2-17.6-13.9s7.9-13.9,17.6-13.9S261,294.3,261,302S253.1,315.9,243.4,315.9z&#10;&#9;&#9; M243.4,292.2c-7.4,0-13.4,4.4-13.4,9.8s6,9.8,13.4,9.8s13.4-4.4,13.4-9.8S250.8,292.2,243.4,292.2L243.4,292.2z"/>
	<path class="st3_brainstorming-13 targetColor" d="M289.3,220.4c0-25.3-20.5-45.9-45.8-45.9s-45.9,20.5-45.9,45.8c0,12.2,4.8,23.9,13.4,32.5&#10;&#9;&#9;c5.9,6,9.9,13.5,11.7,21.7l0.4,1.6h40.7l0.4-1.9c2-8.3,6.3-15.9,12.3-22.1C284.8,243.5,289.3,232.2,289.3,220.4z" style="fill: rgb(76, 99, 124);"/>
	<path class="st1_brainstorming-13" d="M263.8,278.1h-40.7c-1,0-1.8-0.7-2-1.6l-0.4-1.6c-1.7-7.8-5.6-15-11.2-20.7c-18.7-18.7-18.7-49.1,0.1-67.8&#10;&#9;&#9;c8.2-8.2,19.2-13.2,30.8-13.9c13.2-0.9,26.2,3.8,35.9,12.9c19.3,18.1,20.2,48.5,2.1,67.7c-0.1,0.1-0.2,0.2-0.3,0.3&#10;&#9;&#9;c-5.7,5.9-9.8,13.1-11.8,21.1l-0.4,1.9C265.5,277.4,264.7,278.1,263.8,278.1z M224.7,274h37.5l0.1-0.3c2.1-8.7,6.6-16.6,12.8-23&#10;&#9;&#9;c16.7-17.5,16.1-45.2-1.3-61.9s-45.2-16.1-61.9,1.3c-16.5,17.2-16.2,44.4,0.6,61.2C218.5,257.6,222.8,265.4,224.7,274z"/>
	<path class="st0_brainstorming-13" d="M222.2,276h42.5c1.1,0,2,0.9,2,2v5.3c0,1.1-0.9,2-2,2h-42.5c-1.1,0-2.1-0.9-2.1-2v-5.3&#10;&#9;&#9;C220.1,276.9,221,276,222.2,276z"/>
	<path class="st1_brainstorming-13" d="M262.5,287.5h-38.1c-3.5,0-6.3-2.8-6.3-6.3v-1c0-3.5,2.8-6.3,6.3-6.3l0,0h38.1c3.5,0,6.3,2.8,6.3,6.3v1&#10;&#9;&#9;C268.8,284.7,266,287.5,262.5,287.5z M224.3,278.1c-1.2,0-2.2,1-2.2,2.2v1c0,1.2,1,2.2,2.2,2.2c0,0,0,0,0,0h38.1&#10;&#9;&#9;c1.2,0,2.2-1,2.2-2.2v0v-1c0-1.2-1-2.2-2.2-2.2h0H224.3z"/>
	<path class="st0_brainstorming-13" d="M222.2,285.5h42.5c1.1,0,2,0.9,2,2v5.3c0,1.1-0.9,2-2,2h-42.5c-1.1,0-2.1-0.9-2.1-2v-5.3&#10;&#9;&#9;C220.1,286.4,221,285.5,222.2,285.5z"/>
	<path class="st1_brainstorming-13" d="M262.5,296.9h-38.1c-3.5,0-6.3-2.8-6.3-6.3v-1c0-3.5,2.8-6.3,6.3-6.3h38.1c3.5,0,6.3,2.8,6.3,6.3v1&#10;&#9;&#9;C268.8,294.1,266,296.9,262.5,296.9z M224.3,287.5c-1.2,0-2.2,1-2.2,2.2l0,0v1c0,1.2,1,2.2,2.2,2.2h38.1c1.2,0,2.2-1,2.2-2.2v0v-1&#10;&#9;&#9;c0-1.2-1-2.2-2.2-2.2h0H224.3z"/>
	<path class="st0_brainstorming-13" d="M222.2,294.9h42.5c1.1,0,2,0.9,2,2v5.3c0,1.1-0.9,2-2,2h-42.5c-1.1,0-2.1-0.9-2.1-2v-5.3&#10;&#9;&#9;C220.1,295.8,221,294.9,222.2,294.9z"/>
	<path class="st1_brainstorming-13" d="M262.5,306.3h-38.1c-3.5,0-6.3-2.8-6.3-6.3l0,0v-1c0-3.5,2.8-6.3,6.3-6.3h38.1c3.5,0,6.3,2.8,6.3,6.3v1&#10;&#9;&#9;C268.8,303.5,266,306.3,262.5,306.3z M224.3,296.9c-1.2,0-2.2,1-2.2,2.2l0,0v1c0,1.2,1,2.2,2.2,2.2h38.1c1.2,0,2.2-1,2.2-2.2v-1&#10;&#9;&#9;c0-1.2-1-2.2-2.2-2.2h0H224.3z"/>
	<path class="st1_brainstorming-13" d="M235.6,278.1c-1,0-1.9-0.8-2-1.8l-7.7-57.2c-0.1-1.1,0.7-2.2,1.8-2.3c0.7-0.1,1.3,0.2,1.8,0.6l14.6,16&#10;&#9;&#9;l14.9-19.8c0.7-0.9,2-1.1,2.9-0.4c0.6,0.4,0.9,1.2,0.8,1.9l-7.1,61.2c-0.1,1.1-1.1,1.9-2.2,1.8c0,0-0.1,0-0.1,0&#10;&#9;&#9;c-1.1-0.1-1.9-1.2-1.8-2.3l6.2-53.6L246,237.9c-0.7,0.9-2,1.1-2.9,0.4c-0.1-0.1-0.2-0.2-0.3-0.2l-11.9-13l6.8,50.7&#10;&#9;&#9;c0.2,1.1-0.6,2.2-1.8,2.3c0,0,0,0,0,0C235.9,278.1,235.8,278.1,235.6,278.1z"/>
</g>
</svg>