<svg version="1.1" id="Layer_1" xmlns="http://www.w3.org/2000/svg" xmlns:xlink="http://www.w3.org/1999/xlink" x="0px" y="0px" viewBox="0 0 500 500" style="width: 188px;" xml:space="preserve" data-imageid="camera-93" imageName="Camera" class="illustrations_image">
<style type="text/css">
	.st0_camera-93{fill:#68E1FD;}
	.st1_camera-93{fill:#093F68;}
	.st2_camera-93{fill:#FFFFFF;}
	.st3_camera-93{fill:#FFBC0E;}
	.st4_camera-93{fill:#FFC9B0;}
</style>
<g id="camera_camera-93">
	<path class="st0_camera-93 targetColor" d="M486.1,178.3v167.2c0,13-10.5,23.5-23.5,23.5c0,0,0,0,0,0H174.4c-13,0-23.6-10.5-23.6-23.5V178.3&#10;&#9;&#9;c0-13,10.5-23.6,23.6-23.6l0,0h288.2C475.6,154.7,486.1,165.3,486.1,178.3C486.1,178.3,486.1,178.3,486.1,178.3z" style="fill: rgb(76, 99, 124);"/>
	<path class="st1_camera-93" d="M462.6,371H174.4c-14,0-25.4-11.4-25.4-25.5V178.3c0-14.1,11.4-25.5,25.5-25.5h288.1&#10;&#9;&#9;c14.1,0,25.5,11.4,25.5,25.5v167.3C488.1,359.6,476.7,371,462.6,371z M174.4,156.7c-11.9,0-21.6,9.7-21.6,21.6v167.3&#10;&#9;&#9;c0,11.9,9.7,21.6,21.6,21.6h288.2c11.9,0,21.6-9.7,21.6-21.6V178.3c0-11.9-9.7-21.6-21.6-21.6H174.4z"/>
	<path class="st2_camera-93" d="M486.1,178.3v36.3H150.9v-36.3c0-13,10.5-23.6,23.6-23.6l0,0h288.2C475.6,154.7,486.1,165.3,486.1,178.3&#10;&#9;&#9;C486.1,178.3,486.1,178.3,486.1,178.3z"/>
	<path class="st1_camera-93" d="M486.1,216.5H150.9c-1.1,0-1.9-0.9-1.9-1.9l0,0v-36.3c0-14.1,11.4-25.5,25.5-25.5h288.2&#10;&#9;&#9;c14.1,0,25.5,11.4,25.5,25.5v36.3C488.1,215.6,487.2,216.5,486.1,216.5L486.1,216.5z M152.8,212.6h331.4v-34.3&#10;&#9;&#9;c0-11.9-9.7-21.6-21.6-21.6H174.4c-11.9,0-21.6,9.7-21.6,21.6V212.6z"/>
	<circle class="st0_camera-93 targetColor" cx="325.2" cy="271" r="81.4" style="fill: rgb(76, 99, 124);"/>
	<path class="st1_camera-93" d="M325.2,354.4c-46,0-83.4-37.3-83.4-83.4s37.3-83.4,83.4-83.4c46,0,83.4,37.3,83.4,83.4&#10;&#9;&#9;C408.5,317.1,371.2,354.4,325.2,354.4z M325.2,191.6c-43.9,0-79.5,35.6-79.5,79.5c0,43.9,35.6,79.5,79.5,79.5&#10;&#9;&#9;c43.9,0,79.5-35.6,79.5-79.5C404.6,227.2,369,191.6,325.2,191.6z"/>
	<circle class="st1_camera-93" cx="325.2" cy="271" r="65.4"/>
	<path class="st1_camera-93" d="M325.2,338.4c-37.2,0-67.4-30.2-67.4-67.4c0-37.2,30.2-67.3,67.4-67.3s67.4,30.2,67.4,67.3&#10;&#9;&#9;C392.5,308.2,362.3,338.4,325.2,338.4z M325.2,207.6c-35.1,0-63.5,28.4-63.5,63.5s28.4,63.5,63.5,63.5s63.5-28.4,63.5-63.5l0,0&#10;&#9;&#9;C388.6,236,360.2,207.6,325.2,207.6L325.2,207.6z"/>
	<path class="st2_camera-93" d="M334.8,226.2c-0.1,0-0.3,0-0.4,0c-4.8-1-9.8-1.2-14.7-0.6c-1.1,0.1-2-0.7-2.1-1.8c-0.1-1,0.6-1.9,1.6-2.1&#10;&#9;&#9;c5.3-0.6,10.7-0.4,15.9,0.7c1,0.2,1.7,1.2,1.5,2.3C336.5,225.6,335.7,226.3,334.8,226.2L334.8,226.2z"/>
	<path class="st2_camera-93" d="M277.5,273c-1.1,0-1.9-0.9-1.9-1.9l0,0c0-20.9,13.1-39.6,32.8-46.7c1-0.4,2.1,0,2.6,1s0,2.1-1,2.6&#10;&#9;&#9;c-0.1,0-0.2,0.1-0.2,0.1c-18.1,6.6-30.2,23.8-30.2,43.1C279.4,272.1,278.5,273,277.5,273L277.5,273z"/>
	<rect x="200.1" y="141" class="st1_camera-93" width="43.6" height="13.7"/>
	<path class="st1_camera-93" d="M243.8,156.7h-43.6c-1.1,0-1.9-0.9-1.9-1.9l0,0V141c0-1.1,0.9-1.9,1.9-1.9l0,0h43.6c1.1,0,1.9,0.9,1.9,1.9l0,0&#10;&#9;&#9;v13.7C245.7,155.8,244.8,156.7,243.8,156.7C243.8,156.7,243.8,156.7,243.8,156.7z M202.1,152.8h39.7V143h-39.7V152.8z"/>
	<path class="st0_camera-93 targetColor" d="M288.4,125.4h72.7c5.1,0,9.7,3.2,11.6,8l8.2,21.3H268.7l8.2-21.3C278.7,128.6,283.3,125.4,288.4,125.4z" style="fill: rgb(76, 99, 124);"/>
	<path class="st1_camera-93" d="M380.8,156.7H268.7c-1.1,0-1.9-0.9-1.9-1.9c0-0.2,0-0.5,0.1-0.7l8.1-21.3c2.1-5.5,7.5-9.2,13.4-9.2h72.7&#10;&#9;&#9;c5.9,0,11.2,3.7,13.4,9.2l8.2,21.3c0.4,1-0.1,2.1-1.1,2.5C381.3,156.6,381.1,156.7,380.8,156.7L380.8,156.7z M271.5,152.8H378&#10;&#9;&#9;l-7.2-18.7c-1.6-4-5.4-6.7-9.8-6.7h-72.7c-4.3,0-8.2,2.7-9.8,6.7L271.5,152.8z"/>
	<path class="st3_camera-93" d="M419.3,177.5h24c3.2,0,5.8,2.6,5.8,5.8v4.6c0,3.2-2.6,5.8-5.8,5.8h-24c-3.2,0-5.8-2.6-5.8-5.8v-4.6&#10;&#9;&#9;C413.5,180.1,416.1,177.5,419.3,177.5z"/>
	<path class="st1_camera-93" d="M443.1,195.7h-23.7c-4.4,0-8-3.6-8-8v-4.2c0-4.4,3.6-8,8-8h23.6c4.4,0,8,3.6,8,8v4.2&#10;&#9;&#9;C451.1,192.1,447.6,195.7,443.1,195.7z M419.5,179.4c-2.3,0-4.1,1.8-4.1,4.1v4.2c0,2.3,1.8,4.1,4.1,4.1h23.6c2.3,0,4.1-1.8,4.1-4.1&#10;&#9;&#9;v-4.2c0-2.3-1.8-4.1-4.1-4.1H419.5z"/>
</g>
<g id="hand_camera-93">
	<path class="st4_camera-93" d="M64.7,247.5c0,0,47-120.7,62.6-128.4s92.9-19.8,109.5-3.2s-41.3,24.8-79.3,33.5L128,235.9L64.7,247.5z"/>
	<path class="st1_camera-93" d="M64.7,249.4c-1.1,0-1.9-0.9-1.9-1.9c0-0.2,0-0.5,0.1-0.7c4.8-12.4,47.7-121.6,63.5-129.4&#10;&#9;&#9;c16.2-8,94.4-20.2,111.7-2.9c3,3,4.1,6,3.2,9c-3,10-27.2,15.8-63.8,23.5c-6.5,1.4-12.7,2.7-18.6,4l-29,85.6&#10;&#9;&#9;c-0.2,0.7-0.8,1.2-1.5,1.3L65,249.4C64.9,249.4,64.8,249.4,64.7,249.4z M200,109.5c-5.6,0-11.6,0.3-18.2,0.8&#10;&#9;&#9;c-24,2-46.5,7-53.7,10.5c-11.9,5.9-46.4,88.7-60.4,124.2l58.8-10.7l29-85.5c0.2-0.6,0.8-1.1,1.4-1.3c6.2-1.4,12.8-2.8,19.7-4.2&#10;&#9;&#9;c26-5.4,58.3-12.2,60.9-20.8c0.2-0.6,0.7-2.3-2.2-5.2C230.3,112.2,217.8,109.5,200,109.5z"/>
	<path class="st4_camera-93" d="M197.7,205.6c-12-6.4-135-3.4-144.6,15.8c-7.6,15.1-30,125-39.2,171h118.7c3.5-2.7,6.7-5.8,9.4-9.4&#10;&#9;&#9;c8.8-11.5,9.6-35.4,9.6-42.5c0.3,3.6,2.5,11.3,14.4,16.1c14.6,5.9,16.6-29.2,16.8-35.1c-0.1,4.4,0.6,24.2,18.4,26.3&#10;&#9;&#9;c20,2.4,11.6-51.3,11.6-51.3s18,21.7,30,6.5S209.7,212,197.7,205.6z"/>
	<path class="st1_camera-93" d="M132.5,394.3H13.9c-1.1,0-1.9-0.9-1.9-2c0-0.1,0-0.2,0-0.4c9.3-46.5,31.7-156.2,39.4-171.5&#10;&#9;&#9;c1.9-3.8,7-6.9,15.7-9.7c34.4-11,120.5-12.8,131.6-6.9c10.2,5.4,41.3,55.9,47,83.4c1.7,8,1.2,13.5-1.5,16.9c-3.2,4-7,6.1-11.5,6.1&#10;&#9;&#9;h-0.2c-6.7,0-13.2-4.7-17.2-8.3c1.2,11.4,2.9,36-5.4,44.6c-2.3,2.5-5.7,3.7-9.1,3.1c-10-1.2-15.1-7.5-17.6-13.9&#10;&#9;&#9;c-1.4,8.8-4.1,18.4-9.5,22c-2.6,1.7-5.8,1.9-8.6,0.6c-6.1-2.4-9.8-5.6-12.1-8.8c-0.7,10.5-3,25.8-9.6,34.5&#10;&#9;&#9;c-2.8,3.7-6.1,6.9-9.7,9.7C133.3,394.2,132.9,394.3,132.5,394.3z M16.2,390.5h115.6c3.2-2.5,6-5.4,8.5-8.6&#10;&#9;&#9;c8.4-11,9.2-34.4,9.2-41.3c0-1,0.8-1.9,1.9-1.9c1-0.1,1.9,0.7,2,1.8c0,0,0,0,0,0c0.3,3.6,2.5,10.2,13.2,14.5c1.6,0.8,3.5,0.7,5-0.3&#10;&#9;&#9;c5.9-3.9,8.6-20.3,9.1-33.1c0.1-1.1,1-1.9,2.1-1.8c1,0.1,1.7,0.9,1.8,1.9c-0.3,20.7,12.7,23.9,16.7,24.4c2.2,0.4,4.3-0.4,5.8-2&#10;&#9;&#9;c7.8-8,5.3-36.7,3.6-47.1c-0.1-0.9,0.3-1.7,1.1-2.1c0.8-0.4,1.7-0.1,2.3,0.5c0.1,0.1,9.4,11.2,18.4,11.2h0.1c3.3,0,6-1.6,8.5-4.7&#10;&#9;&#9;c1.9-2.4,2.1-7.1,0.7-13.7c-5.8-27.6-36.6-76.2-45.1-80.8c-9.2-4.9-93.7-3.9-128.6,7.2c-9.4,3-12.5,5.9-13.5,7.8&#10;&#9;&#9;C47.5,236.9,25.7,342.9,16.2,390.5z"/>
	<path class="st4_camera-93" d="M213.3,301.1c0,0-1.9-46.4-7.5-54.4s-72.1-19.6-72.1-19.6"/>
	<path class="st1_camera-93" d="M213.3,303.1c-1,0-1.9-0.8-1.9-1.9c-0.5-12.8-2.8-47.2-7.1-53.4c-3.7-5.4-45.4-14.4-70.8-18.8&#10;&#9;&#9;c-1.1-0.1-1.8-1.1-1.7-2.2s1.1-1.8,2.2-1.7c0.1,0,0.1,0,0.2,0c11.2,2,67.6,12.1,73.3,20.4s7.6,50.6,7.8,55.4&#10;&#9;&#9;C215.3,302.1,214.4,303,213.3,303.1L213.3,303.1z"/>
	<path class="st4_camera-93" d="M182.7,320.6c0,0,3.7-40.8-3.2-47.2s-58.8-11.5-58.8-11.5"/>
	<path class="st1_camera-93" d="M182.7,322.5h-0.2c-1.1-0.1-1.8-1-1.8-2.1c1.4-15.4,2-41.4-2.6-45.6c-4.7-4.3-37.9-9-57.7-11&#10;&#9;&#9;c-1.1-0.1-1.8-1.1-1.7-2.1c0.1-1,1.1-1.8,2.1-1.7c5.4,0.5,52.7,5.4,59.9,12s4.5,41.8,3.8,48.8C184.5,321.8,183.7,322.6,182.7,322.5&#10;&#9;&#9;z"/>
	<path class="st4_camera-93" d="M150.9,345.5c0,0,1.9-36.9,0.6-39.6s-24.2-1.2-24.2-1.2s27.7,52.9-9.1,72.7"/>
	<path class="st1_camera-93" d="M118.1,379.4c-1.1,0-1.9-0.9-1.9-1.9c0-0.7,0.4-1.4,1-1.7c34.7-18.6,8.6-69.5,8.3-70c-0.5-0.9-0.1-2.1,0.8-2.6&#10;&#9;&#9;c0.2-0.1,0.5-0.2,0.8-0.2c24.1-1.6,25.5,1.2,26.1,2.2c1.4,2.7,0.4,26.6-0.4,40.5c-0.1,1.1-1,1.9-2,1.8s-1.9-1-1.8-2&#10;&#9;&#9;c0.7-14.1,1.4-34.7,0.8-38.4c-2.2-0.9-11.1-1-19.5-0.5c5.1,11.2,22,54.8-11.2,72.6C118.8,379.3,118.4,379.4,118.1,379.4z"/>
</g>
</svg>