<svg version="1.1" id="Layer_1" xmlns="http://www.w3.org/2000/svg" xmlns:xlink="http://www.w3.org/1999/xlink" x="0px" y="0px" viewBox="0 0 500 500" style="width: 188px;" xml:space="preserve" data-imageid="doctor-1-74-159ad" imageName="Doctor 1" class="illustrations_image">
<style type="text/css">
	.st0_doctor-1-74-159ad{fill:#FFFFFF;}
	.st1_doctor-1-74-159ad{fill:#231F20;}
	.st2_doctor-1-74-159ad{fill:none;}
	.st3_doctor-1-74-159ad{fill:#68E1FD;}
	.st4_doctor-1-74-159ad{fill:#D1D3D4;}
</style>
<g id="Character_doctor-1-74-159ad">
	<path class="st0_doctor-1-74-159ad" d="M387.3,232.1c0,0,5.5-10.2,4.2-12.9s-4.4-8.4-5.4-11.3s2.5-15,5.9-17.2c2.1-1.4,5.5,1.1,5.1,4&#10;&#9;&#9;s-1.9,9.3-1.9,9.3s5.4-10,5.6-12.4s-5-13.6-4.1-18c0.5-2.4,5.3-3.3,7.1-0.9s4.2,15.6,4.2,15.7c0.1-0.9,0.2-1.7,0.5-2.6&#10;&#9;&#9;c0.3-1.2,0.8-2.4,1.1-3.6c0.5-2.5,0.5-5.1,0-7.6c-0.2-1.3-0.6-2.5-1-3.8c-0.2-0.5-0.2-1-0.1-1.4c0.3-0.7,0.8-1.2,1.5-1.3&#10;&#9;&#9;c1.3-0.3,2.8,0,3.8,0.9c1.1,0.9,1.9,2,2.4,3.2c1.1,2.4,1.6,5.1,1.3,7.7c-0.1,1.3-0.3,4.9-1.4,5.9c0.1-0.1,4.3-4.1,6-1.3&#10;&#9;&#9;s1.6,7.4,1.6,7.4s8-4.5,8.4,1.9s-8.5,27.9-11.6,30.8s-6,5.4-6,5.4l-7,15"/>
	<path class="st1_doctor-1-74-159ad" d="M407.8,245.6c-0.1,0-0.2,0-0.3-0.1c-0.4-0.2-0.5-0.6-0.3-0.9c0,0,0,0,0,0l7-15c0-0.1,0.1-0.2,0.2-0.2&#10;&#9;&#9;c0,0,2.9-2.5,5.9-5.3s11.8-24,11.4-30.2c0.1-1-0.4-1.9-1.2-2.4c-1.7-0.9-5.1,0.5-6.2,1.2c-0.3,0.2-0.8,0-0.9-0.3&#10;&#9;&#9;c0-0.1-0.1-0.2-0.1-0.3c0,0,0-4.4-1.6-7.1c-0.2-0.3-0.5-0.6-0.9-0.6c-1.2-0.1-3,1.1-4,2.1c-0.3,0.3-0.7,0.3-1,0s-0.3-0.7,0-1&#10;&#9;&#9;c0.7-0.6,1-3.5,1.1-4.7c0-0.3,0-0.6,0.1-0.8c0.3-2.5-0.2-5.1-1.2-7.4c-0.5-1.2-1.2-2.2-2.2-3c-0.9-0.7-2.1-1-3.2-0.8&#10;&#9;&#9;c-0.4,0.1-0.8,0.4-1,0.8c-0.1,0.4,0,0.7,0.1,1.1c0.1,0.4,0.2,0.9,0.3,1.3c0.2,0.8,0.5,1.7,0.6,2.5c0.5,2.6,0.5,5.3,0,7.9&#10;&#9;&#9;c-0.1,0.7-0.3,1.3-0.6,1.9c-0.2,0.6-0.4,1.1-0.5,1.7c0,0.2-0.1,0.4-0.2,0.6c-0.2,0.5-0.3,1.1-0.3,1.7l0,0c0,0.4-0.3,0.7-0.7,0.7&#10;&#9;&#9;c-0.3,0-0.6-0.2-0.7-0.5l0,0c-0.6-3.4-2.5-13.4-4-15.4c-0.9-1-2.4-1.4-3.7-1c-1,0.1-1.8,0.7-2.2,1.6c-0.5,2.5,1.2,7.6,2.5,11.6&#10;&#9;&#9;c1.1,3.2,1.7,5.2,1.6,6.3c-0.2,2.6-5.1,11.7-5.7,12.7c-0.2,0.3-0.6,0.5-0.9,0.3c-0.3-0.1-0.4-0.5-0.4-0.8c0-0.1,1.4-6.4,1.9-9.2&#10;&#9;&#9;c0.1-1.3-0.5-2.5-1.6-3.2c-0.7-0.5-1.6-0.6-2.4-0.2c-3.3,2.2-6.5,14-5.6,16.4c1.1,2.6,2.3,5.1,3.6,7.6c0.7,1.4,1.4,2.8,1.8,3.7&#10;&#9;&#9;c1.3,2.9-3.3,11.8-4.3,13.5c-0.2,0.3-0.6,0.5-0.9,0.3c0,0,0,0,0,0c-0.3-0.2-0.5-0.6-0.3-0.9c0,0,0,0,0,0c2.1-3.8,5-10.6,4.2-12.3&#10;&#9;&#9;c-0.4-0.9-1.1-2.2-1.8-3.7c-1.3-2.5-2.6-5.1-3.6-7.7c-1.2-3.2,2.7-15.7,6.2-18.1c1.2-0.7,2.7-0.7,3.9,0.1c1.6,1,2.5,2.7,2.3,4.6&#10;&#9;&#9;c-0.2,1.1-0.5,2.7-0.8,4.2c1.5-3,3-6.3,3.1-7.5c0.1-0.8-0.8-3.3-1.6-5.8c-1.5-4.4-3.1-9.5-2.5-12.4c0.4-1.5,1.7-2.5,3.2-2.7&#10;&#9;&#9;c1.9-0.5,3.9,0.1,5.1,1.6c1.3,1.8,2.8,8.4,3.6,12.5c0.1-0.3,0.2-0.7,0.3-1c0.2-0.6,0.4-1.2,0.5-1.8c0.5-2.4,0.5-4.9,0-7.3&#10;&#9;&#9;c-0.2-0.8-0.4-1.6-0.6-2.4c-0.1-0.4-0.2-0.9-0.4-1.3c-0.2-0.6-0.2-1.2-0.1-1.8c0.3-0.9,1.1-1.6,2-1.8c1.6-0.4,3.2,0,4.5,1&#10;&#9;&#9;c1.1,0.9,2,2.1,2.6,3.5c1.2,2.5,1.6,5.3,1.4,8.1c0,0.2,0,0.5-0.1,0.7c-0.1,1-0.2,2-0.4,3c0.9-0.6,2-0.9,3.1-0.9&#10;&#9;&#9;c0.8,0.1,1.5,0.6,1.9,1.3c1,2.1,1.6,4.3,1.7,6.7c1.5-0.7,4.5-1.8,6.6-0.7c1.3,0.8,2,2.1,1.9,3.6c0.4,6.7-8.6,28.4-11.8,31.4&#10;&#9;&#9;c-2.7,2.5-5.3,4.8-5.9,5.3l-6.9,14.8C408.3,245.4,408.1,245.6,407.8,245.6z"/>
	
		<rect x="391.2" y="141.9" transform="matrix(0.3743 -0.9273 0.9273 0.3743 122.6055 474.3972)" class="st0_doctor-1-74-159ad" width="43.2" height="9"/>
	<path class="st1_doctor-1-74-159ad" d="M408.9,168.8c-0.1,0-0.2,0-0.3-0.1l-8.3-3.4c-0.4-0.1-0.5-0.6-0.4-0.9l16.2-40.1c0.1-0.2,0.2-0.3,0.4-0.4&#10;&#9;&#9;c0.2-0.1,0.4-0.1,0.5,0l8.3,3.3c0.4,0.1,0.5,0.6,0.4,0.9l-16.2,40.1c-0.1,0.2-0.2,0.3-0.4,0.4C409.1,168.8,409,168.8,408.9,168.8z&#10;&#9;&#9; M401.5,164.3l7,2.8l15.6-38.8l-7-2.8L401.5,164.3z"/>
	<rect x="409.1" y="148.5" transform="matrix(0.3743 -0.9273 0.9273 0.3743 114.7069 476.0121)" class="st1_doctor-1-74-159ad" width="2" height="9"/>
	<path class="st1_doctor-1-74-159ad" d="M413.8,156.4c-0.1,0-0.2,0-0.3-0.1l-8.3-3.4c-0.4-0.1-0.5-0.5-0.4-0.9c0,0,0,0,0,0l0.8-1.9&#10;&#9;&#9;c0.1-0.2,0.2-0.3,0.4-0.4c0.2-0.1,0.4-0.1,0.5,0l8.3,3.4c0.4,0.1,0.5,0.5,0.4,0.9c0,0,0,0,0,0l-0.8,1.9c-0.1,0.2-0.2,0.3-0.4,0.4&#10;&#9;&#9;C414,156.3,413.9,156.3,413.8,156.4z M406.4,151.9l7,2.8l0.2-0.6l-7-2.8L406.4,151.9z"/>
	<line class="st2_doctor-1-74-159ad" x1="416.5" y1="149.3" x2="411.2" y2="147.2"/>
	<path class="st1_doctor-1-74-159ad" d="M416.5,150c-0.1,0-0.2,0-0.3-0.1l-5.2-2.1c-0.4-0.1-0.5-0.6-0.4-0.9c0,0,0,0,0,0c0.1-0.4,0.6-0.5,0.9-0.4&#10;&#9;&#9;l5.2,2.1c0.4,0.1,0.5,0.6,0.4,0.9c0,0,0,0,0,0C417,149.8,416.7,150,416.5,150z"/>
	<line class="st2_doctor-1-74-159ad" x1="417.9" y1="145.8" x2="414" y2="144.3"/>
	<path class="st1_doctor-1-74-159ad" d="M417.9,146.5c-0.1,0-0.2,0-0.3,0l-3.9-1.6c-0.4-0.1-0.5-0.6-0.4-0.9c0.1-0.4,0.6-0.5,0.9-0.4l0,0l3.9,1.6&#10;&#9;&#9;c0.4,0.1,0.5,0.6,0.4,0.9c0,0,0,0,0,0C418.4,146.4,418.1,146.5,417.9,146.5z"/>
	<line class="st2_doctor-1-74-159ad" x1="419.2" y1="142.4" x2="415.4" y2="140.8"/>
	<path class="st1_doctor-1-74-159ad" d="M419.2,143.1c-0.1,0-0.2,0-0.2-0.1l-3.9-1.6c-0.4-0.1-0.6-0.5-0.5-0.9s0.5-0.6,0.9-0.5c0,0,0.1,0,0.1,0&#10;&#9;&#9;l3.9,1.6c0.4,0.1,0.5,0.5,0.4,0.9c0,0,0,0,0,0C419.8,142.9,419.5,143.1,419.2,143.1z"/>
	<line class="st2_doctor-1-74-159ad" x1="420.6" y1="138.9" x2="415.4" y2="136.8"/>
	<path class="st1_doctor-1-74-159ad" d="M420.6,139.6c-0.1,0-0.2,0-0.3-0.1l-5.2-2.1c-0.4-0.1-0.5-0.6-0.4-0.9c0.1-0.4,0.6-0.5,0.9-0.4l5.2,2.1&#10;&#9;&#9;c0.4,0.1,0.5,0.5,0.4,0.9c0,0,0,0,0,0C421.2,139.4,420.9,139.6,420.6,139.6z"/>
	<line class="st2_doctor-1-74-159ad" x1="422" y1="135.4" x2="418.2" y2="133.9"/>
	<path class="st1_doctor-1-74-159ad" d="M422,136.1c-0.1,0-0.2,0-0.3-0.1l-3.9-1.6c-0.4-0.1-0.5-0.5-0.4-0.9c0,0,0,0,0,0c0.1-0.4,0.6-0.5,0.9-0.4&#10;&#9;&#9;c0,0,0,0,0,0l3.9,1.6c0.4,0.1,0.5,0.5,0.4,0.9C422.6,136,422.3,136.2,422,136.1L422,136.1z"/>
	<line class="st2_doctor-1-74-159ad" x1="423.4" y1="132" x2="419.6" y2="130.4"/>
	<path class="st1_doctor-1-74-159ad" d="M423.4,132.7c-0.1,0-0.2,0-0.3-0.1l-3.9-1.6c-0.4-0.1-0.5-0.5-0.4-0.9c0,0,0,0,0,0c0.1-0.4,0.6-0.5,0.9-0.4&#10;&#9;&#9;c0,0,0,0,0,0l3.9,1.6c0.4,0.1,0.5,0.5,0.4,0.9c0,0,0,0,0,0C424,132.5,423.7,132.7,423.4,132.7z"/>
	
		<rect x="419" y="120.5" transform="matrix(0.3743 -0.9273 0.9273 0.3743 149.5389 468.5906)" class="st0_doctor-1-74-159ad" width="6.1" height="6.1"/>
	<path class="st1_doctor-1-74-159ad" d="M423.7,128.1c-0.1,0-0.2,0-0.3-0.1l-5.6-2.3c-0.2-0.1-0.3-0.2-0.4-0.4c-0.1-0.2-0.1-0.4,0-0.5l2.3-5.6&#10;&#9;&#9;c0.2-0.4,0.6-0.5,0.9-0.4l5.6,2.3c0.2,0.1,0.3,0.2,0.4,0.4c0.1,0.2,0.1,0.4,0,0.5l-2.3,5.6C424.2,128,423.9,128.1,423.7,128.1z&#10;&#9;&#9; M419,124.8l4.3,1.8l1.8-4.3l-4.3-1.7L419,124.8z"/>
	<polygon class="st0_doctor-1-74-159ad" points="424.9,121.4 421.3,120 424.1,115.8 425.8,116.5 &#9;"/>
	<path class="st1_doctor-1-74-159ad" d="M424.9,122.1c-0.1,0-0.2,0-0.3,0l-3.7-1.5c-0.2-0.1-0.4-0.2-0.4-0.4c-0.1-0.2,0-0.4,0.1-0.6l2.8-4.2&#10;&#9;&#9;c0.2-0.3,0.5-0.4,0.9-0.3l1.8,0.7c0.3,0.1,0.5,0.5,0.4,0.8l-0.9,4.9c0,0.2-0.2,0.4-0.4,0.5C425.2,122.1,425,122.1,424.9,122.1z&#10;&#9;&#9; M422.4,119.6l2,0.8l0.6-3.5l-0.7-0.3L422.4,119.6z"/>
	<polygon class="st0_doctor-1-74-159ad" points="431.6,99.7 424.6,116.1 425.3,116.3 &#9;"/>
	<path class="st1_doctor-1-74-159ad" d="M425.3,117c-0.1,0-0.2,0-0.3,0l-0.6-0.2c-0.2-0.1-0.3-0.2-0.4-0.4c-0.1-0.2-0.1-0.4,0-0.6l7-16.4&#10;&#9;&#9;c0.2-0.3,0.6-0.5,0.9-0.4c0.4,0.1,0.5,0.5,0.4,0.9l-6.4,16.6c-0.1,0.2-0.2,0.3-0.4,0.4C425.5,117,425.4,117,425.3,117z"/>
	<ellipse transform="matrix(0.3743 -0.9273 0.9273 0.3743 99.0194 479.8587)" class="st0_doctor-1-74-159ad" cx="405.1" cy="166.6" rx="1.9" ry="10"/>
	<path class="st1_doctor-1-74-159ad" d="M413.1,171.4c-0.7,0-1.4-0.1-2.1-0.3c-2.4-0.5-4.7-1.2-6.9-2.2c-1.6-0.7-9.9-4.1-8.9-6.4&#10;&#9;&#9;c0.4-0.9,1.6-1.1,4-0.6c4.7,1.1,9.2,2.9,13.4,5.4c2.1,1.3,2.8,2.3,2.5,3.2C414.8,171.1,414.2,171.4,413.1,171.4z M396.6,163.1&#10;&#9;&#9;c0.6,0.8,3.2,2.6,8,4.6s8,2.4,9,2.3c-0.6-0.8-3.2-2.6-8-4.6S397.5,163,396.6,163.1z M395.8,162.8L395.8,162.8z"/>
	<path class="st0_doctor-1-74-159ad" d="M393.3,188.5l4.4,1.8l9.1-22.6c0,0-0.2-0.8-2-1.5s-2.4-0.3-2.4-0.3L393.3,188.5z"/>
	<path class="st1_doctor-1-74-159ad" d="M397.7,191c-0.1,0-0.2,0-0.3-0.1l-4.4-1.8c-0.4-0.1-0.5-0.6-0.4-0.9c0,0,0,0,0,0l9.1-22.6&#10;&#9;&#9;c0.1-0.1,0.1-0.2,0.2-0.3c0.2-0.1,1.1-0.6,3.1,0.2s2.4,1.8,2.4,2c0.1,0.1,0.1,0.3,0,0.4l-9.1,22.6c-0.1,0.2-0.2,0.3-0.4,0.4&#10;&#9;&#9;C397.9,191,397.8,191,397.7,191z M394.2,188.1l3.1,1.3l8.8-21.7c-0.4-0.4-0.9-0.7-1.5-0.9c-0.5-0.2-1.1-0.4-1.6-0.3L394.2,188.1z"/>
	<ellipse transform="matrix(0.3743 -0.9273 0.9273 0.3743 71.9198 485.6365)" class="st0_doctor-1-74-159ad" cx="395.8" cy="189.5" rx="1" ry="5.4"/>
	<path class="st1_doctor-1-74-159ad" d="M400.1,192.4c-1.7-0.2-3.4-0.6-5-1.3c-2.1-0.9-5.6-2.5-5-3.9l0,0c0.3-0.8,1.5-0.7,2.5-0.5&#10;&#9;&#9;c1.3,0.3,2.6,0.7,3.8,1.2c1.2,0.5,2.4,1.1,3.6,1.8c0.9,0.6,1.8,1.3,1.5,2.1C401.3,192.3,400.8,192.4,400.1,192.4z M392.1,188&#10;&#9;&#9;c1.1,0.7,2.3,1.3,3.5,1.8c1.2,0.5,2.5,0.9,3.8,1.2c-1.1-0.7-2.3-1.3-3.5-1.8C394.7,188.7,393.4,188.3,392.1,188L392.1,188z"/>
	<path class="st1_doctor-1-74-159ad" d="M421.1,208.1c-0.4,0-0.7-0.1-1.1-0.2c-1-0.4-1.9-1.2-2.3-2.3c-0.7-1.7-0.8-3.5-0.3-5.3c-0.6,0.7-1.3,1.4-2,2.1&#10;&#9;&#9;c-0.8,0.8-1.7,1.5-2.8,1.9c-1.2,0.5-2.6,0.2-3.6-0.7c-1.2-1.3-0.8-3.3-0.3-4.7c1.4-5,3.9-9.7,7.1-13.8c0.2-0.3,0.7-0.3,1-0.1&#10;&#9;&#9;s0.3,0.7,0.1,1c-3.1,3.9-5.5,8.5-6.9,13.3c-0.5,1.6-0.5,2.7,0,3.3c0.6,0.5,1.4,0.6,2.1,0.4c0.9-0.4,1.6-0.9,2.2-1.6&#10;&#9;&#9;c2.1-1.9,3.8-4.2,5-6.8l0,0c0.1-0.4,0.5-0.5,0.9-0.4c0.4,0.1,0.5,0.5,0.4,0.9c0,0,0,0.1,0,0.1l0,0c-1,2.2-3.1,6.7-1.7,9.8&#10;&#9;&#9;c0.3,0.7,0.8,1.2,1.5,1.5c1,0.2,2-0.1,2.6-0.8c0.8-0.8,1.4-1.8,1.8-2.8l2.4-4.9c0.2-0.3,0.6-0.5,0.9-0.3c0,0,0,0,0,0&#10;&#9;&#9;c0.3,0.2,0.5,0.6,0.3,0.9c0,0,0,0,0,0l-2.4,4.9c-0.5,1.2-1.2,2.3-2.1,3.2C423.2,207.6,422.2,208,421.1,208.1z"/>
	<path class="st0_doctor-1-74-159ad" d="M395.3,204c0,0,14.1,5.6,15.7,13"/>
	<path class="st1_doctor-1-74-159ad" d="M411,217.6c-0.3,0-0.6-0.2-0.7-0.6c-1.5-7-15.1-12.4-15.3-12.5c-0.4-0.1-0.5-0.6-0.4-0.9&#10;&#9;&#9;c0.1-0.4,0.6-0.5,0.9-0.4c0.6,0.2,14.4,5.8,16.1,13.5c0.1,0.4-0.1,0.8-0.5,0.8c0,0,0,0,0,0L411,217.6z"/>
	<path class="st1_doctor-1-74-159ad" d="M172.8,357.7c0,0-19.1,48.6-16.7,69.2h145.3c0,0-4.7-49.4-11.4-67.1L172.8,357.7z"/>
	<path class="st1_doctor-1-74-159ad" d="M301.5,427.6H156.2c-0.4,0-0.7-0.3-0.7-0.6c-2.5-20.5,15.9-67.6,16.7-69.6c0.1-0.3,0.4-0.4,0.7-0.4l117.3,2&#10;&#9;&#9;c0.3,0,0.5,0.2,0.6,0.5c6.6,17.6,11.4,66.8,11.4,67.3c0,0.2-0.1,0.4-0.2,0.5C301.9,427.5,301.7,427.6,301.5,427.6z M156.8,426.2&#10;&#9;&#9;h143.9c-0.6-6.3-5.1-49.2-11.1-65.8l-116.3-2C171.4,363.3,154.9,406.7,156.8,426.2z"/>
	<path class="st3_doctor-1-74-159ad targetColor" d="M283.8,363.4c-6-39.4-31.8-161.3-31.8-161.3c-22.1,6.4-36.6,1.3-36.6,1.3s-40.1,128-46.8,160L283.8,363.4z" style="fill: rgb(76, 99, 124);"/>
	<path class="st0_doctor-1-74-159ad" d="M386.5,222.8L354,277.1L302.6,214c-6.9-11.9-39.8-11.9-39.8-11.9s-50.8-3.4-61.1-0.1c0,0-40.1,12.3-48.1,21&#10;&#9;&#9;s14.4,49.1,15.5,91.4s-17.1,85-17.1,85l53.4,15.2c0,0,10.2-68.4,10.2-101.1c0-67-0.1-110-0.1-110l36.3,1.2c0,0-1.2,63.7-3,112.6&#10;&#9;&#9;c-2.4,63.7,11.5,97.4,11.5,97.4l48.5-12.8c0,0-15.9-57.7-15.7-88.3c0.3-9.1,1.1-18.1,2.6-27c16.2,20,46,64.7,69.5,55.3&#10;&#9;&#9;c18-7.1,51.2-97.5,51.2-97.5L386.5,222.8z"/>
	<path class="st1_doctor-1-74-159ad" d="M260.1,415.3c-0.3,0-0.5-0.2-0.6-0.4c-0.1-0.3-13.9-34.5-11.5-97.7c1.7-45.6,2.9-104.8,3-111.8l-34.9-1.1&#10;&#9;&#9;c0,5.9,0.1,47.7,0.1,109.3c0,32.4-10.1,100.5-10.2,101.2c0,0.2-0.1,0.4-0.3,0.5c-0.2,0.1-0.4,0.1-0.6,0.1L151.8,400&#10;&#9;&#9;c-0.2-0.1-0.4-0.2-0.4-0.4c-0.1-0.2-0.1-0.4,0-0.6c0.2-0.4,18.1-43,17.1-84.6c-0.6-21.3-6.5-42.1-11.3-58.7s-8.2-28.5-4-33.2&#10;&#9;&#9;c8-8.8,46.8-20.7,48.4-21.2c10.2-3.3,59.2-0.1,61.3,0.1l0,0c1.7,0,33.3,0.2,40.3,12.2l50.7,62.2l32-53.4c0.1-0.2,0.3-0.3,0.5-0.3&#10;&#9;&#9;c0.2,0,0.4,0,0.6,0.1l29.8,21.5c0.3,0.2,0.4,0.5,0.2,0.8c-1.4,3.7-33.6,90.7-51.6,97.9c-2.2,0.9-4.5,1.3-6.9,1.3&#10;&#9;&#9;c-19.2,0-41-28.1-55.9-47.4c-2.3-3-4.5-5.8-6.4-8.2c-1.3,8.4-2.1,16.9-2.4,25.4c-0.2,30.2,15.5,87.5,15.6,88.1&#10;&#9;&#9;c0.1,0.4-0.1,0.8-0.5,0.9l-48.5,12.8L260.1,415.3z M215.4,202.8L215.4,202.8l36.3,1.2c0.4,0,0.7,0.3,0.7,0.7c0,0,0,0,0,0&#10;&#9;&#9;c0,0.6-1.2,64.3-3,112.6c-2.2,58.4,9.4,91.8,11.2,96.5l47.2-12.5c-1.8-6.6-15.7-59.2-15.5-87.8c0-6.8,0.9-15.4,2.6-27.1&#10;&#9;&#9;c0.1-0.4,0.4-0.6,0.8-0.6c0.2,0,0.3,0.1,0.4,0.3c2.2,2.8,4.8,6,7.5,9.5c16.5,21.3,41.4,53.5,61.2,45.6&#10;&#9;&#9;c16.8-6.7,47.9-89.4,50.6-96.6l-28.7-20.8l-32.1,53.6c-0.1,0.2-0.3,0.3-0.5,0.3c-0.2,0-0.4-0.1-0.6-0.3L302,214.5&#10;&#9;&#9;c-6.7-11.5-38.9-11.6-39.2-11.6c-0.5,0-50.9-3.4-60.8-0.1c-0.4,0.1-40,12.3-47.8,20.9c-3.7,4-0.1,16.3,4.3,31.8&#10;&#9;&#9;c4.8,16.7,10.8,37.6,11.3,59.1c1,39-14.5,78.7-16.9,84.5l51.9,14.8c1.1-7.7,10-69.8,10-100.2c0-66.2-0.1-109.6-0.1-110&#10;&#9;&#9;C214.6,203.1,215,202.8,215.4,202.8L215.4,202.8z"/>
	<path class="st0_doctor-1-74-159ad" d="M172,153.9c-0.2,4,0.7,8,1,12.1s-0.3,8.4-3,11.4c-3,3.4-8.1,4.3-12.6,3.4s-8.4-3.3-12.3-5.6&#10;&#9;&#9;c-0.2,6.8,3.9,13.3,9.6,16.9c10,6.3,29.5,5.4,40.1,1.2c8.1-3.2,15.2-9.7,17.6-18.1c2.4-8.1,0.3-16.9-3-24.7&#10;&#9;&#9;c-3.6-8.6-10.5-16.5-20.7-16.4C179.7,134.2,172.4,145.8,172,153.9z"/>
	<path class="st1_doctor-1-74-159ad" d="M175,197.3c-7.8,0-15.5-1.4-20.6-4.6c-6.2-3.9-10.1-10.8-10-17.5c0-0.3,0.2-0.5,0.4-0.6c0.2-0.1,0.5-0.1,0.7,0&#10;&#9;&#9;c3.6,2.2,7.7,4.7,12.1,5.6c3.7,0.7,8.8,0.3,11.9-3.2c2.2-2.4,3.1-6.1,2.8-10.9c-0.1-1.5-0.3-3-0.5-4.4c-0.4-2.6-0.6-5.1-0.5-7.7&#10;&#9;&#9;c0.5-4.8,2.3-9.4,5.3-13.3c3.5-4.6,7.8-7.1,12.2-7.2h0.3c12.7,0,19,11.8,21.2,16.9c4.1,9.6,5.1,18.1,3,25.1&#10;&#9;&#9;c-2.4,8.1-9.1,15.1-18.1,18.6C188.7,196.2,181.9,197.3,175,197.3z M145.8,176.4c0.5,6.2,4,11.8,9.3,15.1c9.6,6,28.5,5.5,39.5,1.2&#10;&#9;&#9;c8.5-3.3,15-9.9,17.2-17.6c2-6.7,1-14.9-3-24.2c-2.1-4.9-8.1-16.1-20.1-16c-8.7,0.1-15.7,11.5-16.1,19.1l0,0&#10;&#9;&#9;c-0.1,2.5,0.1,5,0.5,7.5c0.2,1.5,0.4,3,0.5,4.5c0.3,5.2-0.7,9.2-3.1,11.9c-3.5,3.9-9.1,4.5-13.2,3.6S149.3,178.4,145.8,176.4&#10;&#9;&#9;L145.8,176.4z M172,153.9L172,153.9z"/>
	<path class="st1_doctor-1-74-159ad" d="M187.1,148.2c-3.4-1.5-6.1-4.4-7.2-8c-1.1-3.6-0.4-7.5,2-10.5c0.7-0.9,1.7-1.6,2.7-2c1-0.4,2.2-0.6,3.3-0.5&#10;&#9;&#9;c5.1,0.3,9.6,3.7,11.2,8.6C201.4,143.9,195.5,152,187.1,148.2z"/>
	<path class="st1_doctor-1-74-159ad" d="M191.2,149.9c-1.5,0-3-0.4-4.4-1l0,0c-3.6-1.6-6.4-4.7-7.6-8.4c-1.2-3.8-0.4-8,2.2-11.1c0.8-1,1.8-1.7,3-2.2&#10;&#9;&#9;c1.1-0.4,2.4-0.6,3.6-0.5c5.4,0.4,10.1,4,11.7,9.2c1.4,4.5,0.2,9.4-2.9,12.1C195.2,149.2,193.3,149.9,191.2,149.9z M187.4,147.6&#10;&#9;&#9;c3.2,1.4,6.2,1.2,8.4-0.8c2.7-2.4,3.7-6.6,2.5-10.7c-1.5-4.6-5.6-7.8-10.4-8.2c-1-0.1-2,0.1-3,0.4c-1,0.4-1.8,1.1-2.4,1.9&#10;&#9;&#9;c-2.2,2.7-3,6.4-1.9,9.8C181.6,143.4,184.1,146.1,187.4,147.6z"/>
	<path class="st0_doctor-1-74-159ad" d="M214,79.2l-0.2,0.1c-1.1,0.8-5.1,5.4-6.1,5.5c-41.4,1.2-24.8,59.1-3.8,75.4c8.3,6.5,22.9,12,33.5,9.5&#10;&#9;&#9;c7.8-1.9,15-8.4,15.3-16.4c8.1-0.6,16.9-1.6,23-7.1c3.6-3.3,5.8-7.9,7.2-12.7c3.4-11.5,2.6-24.4-3.1-34.9&#10;&#9;&#9;c-10-18.5-36.4-29.9-56.6-24C220,75.7,216.8,77.2,214,79.2z"/>
	<path class="st1_doctor-1-74-159ad" d="M231.7,171.1c-9.9,0-21.3-4.8-28.3-10.3c-14.4-11.2-26.6-41.2-20.3-60.2c3.4-10.4,11.9-16.1,24.5-16.5&#10;&#9;&#9;c1.3-0.9,2.4-2,3.4-3.2c0.7-0.8,1.5-1.5,2.3-2.2l0.2-0.1c2.9-2,6.1-3.6,9.4-4.6c20.4-6,47.2,5.4,57.4,24.3&#10;&#9;&#9;c5.6,10.4,6.7,23.3,3.1,35.4c-1.7,5.7-4.2,10-7.4,13c-6.3,5.7-15.7,6.6-22.8,7.2c-0.7,8.5-8.4,14.7-15.8,16.5&#10;&#9;&#9;C235.6,170.9,233.7,171.1,231.7,171.1z M234.6,73.8c-3.8,0-7.6,0.5-11.2,1.6c-3.2,1-6.3,2.5-9,4.4l0,0l-0.2,0.1&#10;&#9;&#9;c-0.7,0.6-1.4,1.3-2.1,2c-2.4,2.5-3.6,3.6-4.4,3.6c-12,0.4-20,5.7-23.2,15.5c-6.1,18.5,5.9,47.7,19.9,58.6&#10;&#9;&#9;c8.2,6.4,22.5,11.9,32.9,9.4c7.1-1.7,14.5-7.7,14.8-15.8c0-0.4,0.3-0.6,0.6-0.7c8.6-0.7,16.9-1.7,22.5-6.9c3.1-2.8,5.4-6.9,7-12.3&#10;&#9;&#9;c3.5-11.8,2.4-24.3-3-34.4C271.1,83.9,252.1,73.8,234.6,73.8z M214,79.2L214,79.2z"/>
	<path class="st0_doctor-1-74-159ad" d="M260.1,142.4c2.1-12.4,22.9-15.3,21.7-0.6c-0.4,5.1-2.1,10.2-5.7,13.7s-9.3,5.2-13.9,3.1"/>
	<path class="st1_doctor-1-74-159ad" d="M266.6,160.3c-1.6,0-3.2-0.3-4.7-1c-0.4-0.1-0.5-0.5-0.4-0.9c0.1-0.4,0.5-0.5,0.9-0.4c0,0,0.1,0,0.1,0&#10;&#9;&#9;c4.1,1.9,9.5,0.7,13.1-3c3.9-3.9,5.1-9.4,5.5-13.3c0.4-5.1-2-8.5-6.6-9.1c-5.6-0.7-12.6,3.2-13.7,9.9c-0.1,0.4-0.4,0.6-0.8,0.6&#10;&#9;&#9;c-0.4-0.1-0.6-0.4-0.6-0.8c1.3-7.5,9.1-11.8,15.3-11c4.1,0.5,8.4,3.6,7.8,10.6c-0.3,4.1-1.6,9.9-5.9,14.2&#10;&#9;&#9;C274,158.7,270.4,160.2,266.6,160.3z"/>
	<path class="st0_doctor-1-74-159ad" d="M208.6,141.9c-1.9-12.5-22.5-15.8-21.6-1.1c0.3,5.1,1.9,10.2,5.4,13.9s9.2,5.4,13.8,3.4"/>
	<path class="st1_doctor-1-74-159ad" d="M201.9,159.6c-3.8-0.1-7.5-1.7-10.1-4.5c-4.2-4.3-5.3-10.2-5.6-14.3c-0.4-7,3.9-10,8-10.4&#10;&#9;&#9;c6.2-0.6,13.9,3.9,15,11.3c0.1,0.4-0.2,0.7-0.6,0.8s-0.7-0.2-0.8-0.6c-1-6.7-7.9-10.7-13.5-10.1c-4.6,0.5-7.1,3.8-6.8,8.9&#10;&#9;&#9;c0.2,3.9,1.3,9.4,5.2,13.4c3.6,3.7,8.9,5,13.1,3.2c0.4-0.2,0.8,0,0.9,0.4c0.2,0.4,0,0.8-0.4,0.9l0,0&#10;&#9;&#9;C204.9,159.3,203.4,159.6,201.9,159.6z"/>
	<path class="st4_doctor-1-74-159ad" d="M210.8,319c-0.3,0-0.6-0.2-0.7-0.5c-0.7-1.9-16.3-46.5-17.5-53.1c-1.1-6,10.6-16.3,14.3-19.4&#10;&#9;&#9;c-4.8-1.3-17-4.8-18.2-7.4c-1.2-2.9,11.5-26.4,15.4-33.6c0.2-0.3,0.6-0.5,0.9-0.3s0.5,0.6,0.3,0.9l0,0&#10;&#9;&#9;c-7.9,14.5-15.9,30.6-15.4,32.4c0.7,1.5,10,4.7,18.6,6.9c0.4,0.1,0.6,0.5,0.5,0.9c0,0.1-0.1,0.3-0.2,0.4&#10;&#9;&#9;c-4.4,3.5-15.8,13.8-14.9,18.9c1.2,6.5,17.3,52.4,17.4,52.9c0.1,0.4-0.1,0.8-0.4,0.9C211,319,210.9,319.1,210.8,319z"/>
	<path class="st4_doctor-1-74-159ad" d="M252.8,318.7c-0.1,0-0.2,0-0.3-0.1c-0.3-0.2-0.5-0.6-0.3-0.9c0.2-0.4,21.6-42.1,22.8-51.9&#10;&#9;&#9;c0-3.2-12-10.4-19.6-14.1c-0.2-0.1-0.4-0.4-0.4-0.6c0-0.3,0.2-0.5,0.4-0.6c5.1-2.4,18.6-9.8,19.5-14.8s-8.9-24.9-12.8-32.1&#10;&#9;&#9;c-0.2-0.3-0.1-0.8,0.3-0.9c0.3-0.2,0.8-0.1,0.9,0.3c0.6,1.1,14.2,26.4,12.9,33c-1.1,5.8-14.7,13-19,15.1&#10;&#9;&#9;c4.7,2.4,19.2,10.1,19.1,14.8c-1.2,10.2-22.1,50.7-23,52.5C253.3,318.6,253.1,318.7,252.8,318.7z"/>
	<path class="st1_doctor-1-74-159ad" d="M274.4,255.8c-0.7,0-1.4-0.4-1.8-1.1c-0.3-0.5-0.3-0.8-0.7-3.8c-4.9-41.5-14.4-50.2-21.6-50.2l0,0&#10;&#9;&#9;c-1.2,0-2.1-0.9-2.1-2.1v0c0-1.1,0.9-2.1,2.1-2.1c0,0,0,0,0.1,0c19.4,0,24.2,40.6,25.8,53.9c0.1,1.1,0.3,2.2,0.3,2.6&#10;&#9;&#9;c0.3,0.9-0.1,2-0.9,2.5C275.1,255.7,274.8,255.8,274.4,255.8z"/>
	<path class="st1_doctor-1-74-159ad" d="M186.9,294.7L186.9,294.7c-1.2,0-2.1-1-2.1-2.2c0.7-28.1,3.2-57.3,16.5-79.6c7.6-12.7,13.3-19,17.5-19.1&#10;&#9;&#9;c1.3,0,2.5,0.5,3.2,1.6c0.6,1,0.3,2.3-0.6,2.9c-0.8,0.5-1.9,0.4-2.6-0.2c-0.7,0.1-4.7,1.4-13.9,17c-12.8,21.5-15.2,50-15.9,77.6&#10;&#9;&#9;C189,293.8,188,294.7,186.9,294.7z"/>
	<path class="st0_doctor-1-74-159ad" d="M215.4,203.4c0,0,11.5,10.7,19.4,10.6s16.9-9.4,16.9-9.4l-0.5-8.7l-1.2-20.3l-1.1-18.9l-32.5-0.4l-1.2,15.5&#10;&#9;&#9;l-0.4,5L215.4,203.4z"/>
	<path class="st1_doctor-1-74-159ad" d="M234.6,214.7c-8.1,0-19.3-10.3-19.7-10.8c-0.1-0.1-0.2-0.3-0.2-0.5l-0.6-26.6l0.4-5.1l1.3-15.5&#10;&#9;&#9;c0-0.4,0.3-0.6,0.7-0.6l32.5,0.4c0.4,0,0.7,0.3,0.7,0.6l2.8,47.9c0,0.2-0.1,0.4-0.2,0.5c-0.4,0.4-9.2,9.4-17.3,9.6H234.6z&#10;&#9;&#9; M216.1,203.1c1.6,1.4,11.6,10.2,18.6,10.2h0.2c6.9-0.1,14.8-7.6,16.1-9l-2.7-47l-31.2-0.3l-1.6,19.8L216.1,203.1z"/>
	<path class="st1_doctor-1-74-159ad" d="M214.8,176.8c2.4,4.6,6.4,8.2,10.6,10.9c6.9,4.5,17.4,9.6,25.9,8.2l-1.2-20.3c-6.2,0.8-12.5,0.8-18.7-0.1&#10;&#9;&#9;c-5.5-0.6-11.1-1.3-16.1-3.8L214.8,176.8z"/>
	<path class="st1_doctor-1-74-159ad" d="M248.2,196.8c-8.6,0-18.1-5.2-23.2-8.6c-5-3.3-8.6-7-10.8-11.1c-0.1-0.1-0.1-0.2-0.1-0.4l0.4-5&#10;&#9;&#9;c0-0.4,0.4-0.7,0.8-0.6c0.1,0,0.1,0,0.2,0.1c5,2.5,10.8,3.1,15.9,3.7c6.2,0.9,12.4,0.9,18.6,0.1c0.2,0,0.4,0,0.5,0.1&#10;&#9;&#9;c0.2,0.1,0.3,0.3,0.3,0.5l1.2,20.3c0,0.4-0.2,0.7-0.6,0.7C250.3,196.8,249.2,196.8,248.2,196.8z M215.5,176.7&#10;&#9;&#9;c2.1,3.8,5.5,7.3,10.2,10.4c5.5,3.6,15.9,9.3,24.7,8.2l-1.1-18.9c-6,0.7-12.1,0.7-18.2-0.2c-4.9-0.5-10.4-1.1-15.4-3.4L215.5,176.7&#10;&#9;&#9;z"/>
	<path class="st0_doctor-1-74-159ad" d="M231.3,180.2h3.3c15.8,0.2,28.7-12.4,28.9-28.2l0.3-27.1c0,0-16-3.9-26.3-7.8c-17.4-6.6-22-15.9-22-15.9&#10;&#9;&#9;c-0.3,4.8-2.1,13.8-4.1,18.2c-1.9,4.3-7.8,11.9-7.8,11.9s-0.5,14.1-0.6,20C203,167.1,215.6,180,231.3,180.2z"/>
	<path class="st1_doctor-1-74-159ad" d="M235,180.9h-0.3h-3.3c-16.2-0.2-29.1-13.4-29-29.6c0.1-5.8,0.6-19.9,0.6-20c0-0.1,0-0.3,0.1-0.4&#10;&#9;&#9;c0.1-0.1,5.9-7.6,7.7-11.8s3.7-13.2,4-18c0-0.3,0.2-0.6,0.6-0.6c0.3-0.1,0.6,0.1,0.8,0.4c0,0.1,4.8,9.2,21.7,15.6&#10;&#9;&#9;c10.2,3.8,26.1,7.7,26.2,7.8c0.3,0.1,0.5,0.4,0.5,0.7l-0.3,27.1C264,168,251,180.9,235,180.9z M204.4,131.6&#10;&#9;&#9;c-0.1,1.8-0.5,14.3-0.6,19.7c-0.2,15.4,12.2,28,27.6,28.2l0,0h3.3c15.3,0.1,27.9-12.2,28.1-27.5l0.3-26.5&#10;&#9;&#9;c-2.9-0.7-16.6-4.2-25.9-7.7c-13.1-4.9-19-11.4-21.3-14.5c-0.6,5.1-2.2,12.5-3.9,16.4S205.2,130.4,204.4,131.6L204.4,131.6z"/>
	<path class="st1_doctor-1-74-159ad" d="M233.7,159.8c-1.6,0-3.2-0.1-4.8-0.3c-0.4,0-0.6-0.4-0.6-0.8c0,0,0,0,0,0c0.1-0.4,0.4-0.6,0.8-0.6&#10;&#9;&#9;c2.7,0.3,5.4,0.4,8.1,0.1c0.1,0,0.2-0.1,0.3-0.2c1.4-2.2-2-13.6-4.5-20.2c-0.1-0.4,0.1-0.8,0.4-0.9c0,0,0,0,0,0&#10;&#9;&#9;c0.4-0.1,0.8,0.1,0.9,0.4c0.7,1.8,6.6,17.9,4.4,21.4c-0.3,0.5-0.8,0.8-1.3,0.9C236.1,159.7,234.9,159.8,233.7,159.8z"/>
	
		<ellipse transform="matrix(1.099531e-02 -0.9999 0.9999 1.099531e-02 83.9853 352.5635)" class="st1_doctor-1-74-159ad" cx="220.2" cy="133.8" rx="4.9" ry="2"/>
	
		<ellipse transform="matrix(1.099531e-02 -0.9999 0.9999 1.099531e-02 110.3404 377.9798)" class="st1_doctor-1-74-159ad" cx="246.2" cy="133.2" rx="4.9" ry="2"/>
	<path class="st1_doctor-1-74-159ad" d="M233.7,166.5c-0.6,0-1.2,0-1.8-0.1c-10.4-0.9-16.7-9.3-16.9-9.7c-0.2-0.3-0.2-0.8,0.1-1c0.3-0.2,0.8-0.2,1,0.2&#10;&#9;&#9;c0.1,0.1,6.2,8.3,15.9,9.1c6.7,0.6,13.5-2.4,20.3-8.8c0.3-0.3,0.7-0.3,1,0s0.3,0.7,0,1C246.8,163.3,240.2,166.5,233.7,166.5z"/>
	<path class="st0_doctor-1-74-159ad" d="M210.8,92.7c4.3,11.1,9.9,22.2,19.5,29.3c4.8,3.5,10.3,5.9,15.8,8.1c8.4,3.2,16.5,3.6,23.6,9.5&#10;&#9;&#9;c6.7,5.5,11.5,13,13.7,21.4c5-13.4,3.8-28.3-3.4-40.7c-6.7-11.3-17.8-19.3-28.7-26.6c-6-4-12.5-8.1-19.7-7.9"/>
	<path class="st1_doctor-1-74-159ad" d="M283.4,161.6L283.4,161.6c-0.4,0-0.6-0.2-0.7-0.5c-2.2-8.2-6.9-15.6-13.5-21c-4.7-3.9-9.8-5.3-15.3-6.8&#10;&#9;&#9;c-2.6-0.7-5.4-1.5-8.1-2.6c-5.4-2.1-11.1-4.5-16-8.1C219.6,115,214,102.8,210.2,93c-0.1-0.4,0-0.8,0.4-0.9s0.8,0,0.9,0.4&#10;&#9;&#9;c3.7,9.6,9.2,21.6,19.2,29c4.4,3.3,9.5,5.6,15.6,8c2.7,1,5.4,1.8,8,2.5c5.6,1.6,10.9,3,15.8,7.1c6.2,5.1,10.9,11.9,13.3,19.6&#10;&#9;&#9;c4.1-12.7,2.6-26.5-4.1-38c-6.6-11.2-17.7-19.2-28.4-26.4c-6.2-4.2-12.4-8-19.2-7.8c-0.4,0-0.7-0.3-0.7-0.7c0,0,0,0,0,0&#10;&#9;&#9;c0-0.4,0.3-0.7,0.7-0.7c0,0,0,0,0,0c7.2-0.1,13.6,3.7,20.1,8.1c10.9,7.3,22.1,15.4,28.9,26.8c7.2,12.6,8.5,27.7,3.5,41.3&#10;&#9;&#9;C284,161.5,283.7,161.6,283.4,161.6z"/>
	<path class="st0_doctor-1-74-159ad" d="M149.9,347.1c0,0,16.2,16.3,17.8,21.3s0.8,35.8-1.6,37.5s-19.8,12.4-23.5,8.7s-10.3-13.6-7-13.2&#10;&#9;&#9;s8.2,4.5,8.2,4.5s6.1-3.1,8.2-6.5c0,0-10.2-9.5-4.5-20.7l-9.4-11"/>
	<path class="st1_doctor-1-74-159ad" d="M145,416c-1.1,0.1-2.1-0.3-2.9-1c-2.4-2.5-9.1-11.2-7.9-13.7c0.3-0.6,0.9-0.8,1.5-0.7c3,0.4,7,3.4,8.2,4.4&#10;&#9;&#9;c1.3-0.7,5.3-3.1,7.2-5.6c-1.9-2-9.2-10.7-4.4-20.6l-9-10.6c-0.3-0.3-0.2-0.7,0.1-1c0.3-0.3,0.7-0.2,1,0.1l0,0l9.3,11&#10;&#9;&#9;c0.2,0.2,0.2,0.5,0.1,0.8c-5.5,10.5,4.2,19.8,4.3,19.8c0.2,0.2,0.3,0.6,0.1,0.9c-2.2,3.5-8.2,6.6-8.5,6.8c-0.3,0.1-0.6,0.1-0.8-0.1&#10;&#9;&#9;c-0.1,0-4.8-4-7.9-4.4c-0.1,0-0.1,0-0.2,0c-0.4,1,4,8.2,7.8,12c2.7,2.7,16-4.4,22.6-8.8c2-1.7,3.1-31.5,1.4-36.7&#10;&#9;&#9;c-1.6-4.7-17.5-20.8-17.7-21c-0.3-0.3-0.3-0.7,0-1c0,0,0,0,0,0c0.3-0.3,0.7-0.3,1,0c0.7,0.7,16.3,16.5,18,21.5&#10;&#9;&#9;c1.4,4.4,1.2,36.2-1.9,38.3C166.3,406.6,152,416,145,416z"/>
	<path class="st0_doctor-1-74-159ad" d="M153.7,223c0,0-86.2,67.2-86,82.3c0.2,10.8,68.9,70.9,68.9,70.9l22-24.9l-34-41.5l48.2-32.8"/>
	<path class="st1_doctor-1-74-159ad" d="M136.6,376.9c-0.2,0-0.3-0.1-0.5-0.2c-2.8-2.5-69-60.4-69.2-71.4c-0.1-6.5,14.4-22.4,43.1-47.4&#10;&#9;&#9;c21.3-18.5,42.9-35.3,43.1-35.5c0.3-0.2,0.7-0.2,1,0.1s0.2,0.7-0.1,1c-0.2,0.2-21.8,17-43.1,35.4c-35.4,30.7-42.7,42.1-42.7,46.3&#10;&#9;&#9;c0.1,8.6,48.8,52.9,68.2,69.9l21.2-23.9l-33.7-41c-0.1-0.2-0.2-0.4-0.2-0.5c0-0.2,0.1-0.4,0.3-0.5l48.2-32.8c0.3-0.2,0.8-0.1,1,0.2&#10;&#9;&#9;c0.2,0.3,0.1,0.8-0.2,1L125.6,310l33.5,40.9c0.2,0.3,0.2,0.6,0,0.9l-22,24.9C137,376.9,136.8,376.9,136.6,376.9z"/>
	<path class="st1_doctor-1-74-159ad" d="M289.7,342.5c-1.1,0-2.1-0.1-3.2-0.2c-2.2-0.3-4.3-1.2-6.1-2.6c-1.1,0.7-2.4,1.2-3.7,1.5&#10;&#9;&#9;c-13,2.8-18.4-3.8-18.7-4.1c-0.2-0.3-0.2-0.7,0.1-1c0.3-0.2,0.7-0.2,1,0.1c0.2,0.3,5.1,6.2,17.3,3.6c1-0.2,1.9-0.5,2.8-1&#10;&#9;&#9;c-6.9-6.3-9.3-19.4-11-28.7c-2.4-12.8-4-39.4-2.3-47.2c1.1-5,2.9-8.3,5.5-9.7c2.1-1,4.6-1.1,6.7-0.1c5.5,2.1,8.9,14.7,11.4,42.1&#10;&#9;&#9;c1.5,16.7,1,36.7-7.9,43.7c1.5,1.1,3.3,1.7,5.1,2c11,1.6,16.2-6.3,16.2-6.4c0.2-0.3,0.6-0.4,1-0.2c0,0,0,0,0,0&#10;&#9;&#9;c0.3,0.2,0.4,0.6,0.3,0.9c0,0,0,0,0,0.1C300.8,339.8,295.4,342.5,289.7,342.5z M274.7,253.7c-0.9,0-1.8,0.2-2.6,0.6&#10;&#9;&#9;c-2.2,1.2-3.8,4.2-4.8,8.8c-1.5,7.1-0.2,32.8,2.3,46.6c2.1,11.5,4.8,22.9,10.8,28.2c8.7-6.4,9.1-26.1,7.6-42.7s-4.1-38.6-10.4-41&#10;&#9;&#9;C276.7,253.9,275.7,253.7,274.7,253.7L274.7,253.7z"/>
	<path class="st1_doctor-1-74-159ad" d="M266.8,294c-1.1,0-2-0.9-2.1-2c-0.2-3.9-0.4-7.5-0.6-11.1c-0.3-4.4-0.5-8.8-0.7-13.5&#10;&#9;&#9;c-0.3-6.1,1.7-11.2,5.4-13.9c2.9-2.1,6.6-2.5,9.9-1.2c10.4,3.9,11.2,19.4,11.8,31.9c0.1,2.5,0.2,4.9,0.4,7c0.1,1.2-0.8,2.2-1.9,2.3&#10;&#9;&#9;s-2.2-0.8-2.3-1.9c-0.2-2.2-0.3-4.6-0.4-7.1c-0.6-11.2-1.3-25.2-9-28.1c-2-0.8-4.2-0.5-5.9,0.7c-2.5,1.9-3.9,5.6-3.7,10.3&#10;&#9;&#9;s0.5,9,0.7,13.4c0.2,3.6,0.4,7.2,0.6,11.1C268.9,293,268,294,266.8,294L266.8,294z"/>
	
		<ellipse transform="matrix(0.4459 -0.8951 0.8951 0.4459 -158.3429 419.8502)" class="st1_doctor-1-74-159ad" cx="259.9" cy="337.8" rx="2.4" ry="3.5"/>
	
		<ellipse transform="matrix(0.5979 -0.8016 0.8016 0.5979 -145.3787 378.0586)" class="st1_doctor-1-74-159ad" cx="304.1" cy="333.9" rx="3.5" ry="2.4"/>
	<circle class="st0_doctor-1-74-159ad" cx="188.4" cy="297.4" r="9.3"/>
	<path class="st1_doctor-1-74-159ad" d="M188.4,307.4c-5.5,0-10-4.5-10-10s4.5-10,10-10s10,4.5,10,10S193.9,307.4,188.4,307.4z M188.4,288.8&#10;&#9;&#9;c-4.8,0-8.6,3.9-8.6,8.6c0,4.8,3.9,8.6,8.6,8.6c4.8,0,8.6-3.9,8.6-8.6l0,0C197,292.6,193.2,288.8,188.4,288.8z"/>
	<circle class="st0_doctor-1-74-159ad" cx="208.5" cy="340" r="2.4"/>
	<circle class="st0_doctor-1-74-159ad" cx="202.5" cy="371.7" r="2.4"/>
	<path class="st4_doctor-1-74-159ad" d="M172.8,376.9c-0.3,0-0.5-0.2-0.6-0.4c-0.1-0.4,0-0.8,0.4-0.9c6.1-2.5,26-10.8,27.5-10.8c0.4,0,0.7,0.3,0.7,0.7&#10;&#9;&#9;c0,0.4-0.3,0.7-0.7,0.7c-1.4,0.1-17.3,6.6-27,10.7C173,376.9,172.9,376.9,172.8,376.9z"/>
	<path class="st4_doctor-1-74-159ad" d="M295.4,381.9c-0.1,0-0.2,0-0.2,0L261.1,370c-0.4-0.1-0.5-0.5-0.4-0.9c0,0,0,0,0,0c0.1-0.4,0.5-0.6,0.9-0.4&#10;&#9;&#9;l34,11.9c0.4,0.1,0.6,0.5,0.4,0.9C295.9,381.7,295.7,381.9,295.4,381.9L295.4,381.9z"/>
	<circle class="st4_doctor-1-74-159ad" cx="206.6" cy="334.4" r="1.8"/>
	<path class="st1_doctor-1-74-159ad" d="M295.6,287.1h-0.1c-0.4-0.1-0.6-0.4-0.6-0.8c0-0.3,4.3-28.1,8.6-42.2c0.1-0.4,0.5-0.6,0.9-0.5&#10;&#9;&#9;c0.4,0.1,0.6,0.5,0.5,0.9c0,0,0,0,0,0c-4.2,14-8.5,41.8-8.5,42.1C296.2,286.9,295.9,287.1,295.6,287.1z"/>
	<path class="st1_doctor-1-74-159ad" d="M339.1,305c-0.4,0-0.7-0.3-0.7-0.7c0-0.1,0-0.2,0.1-0.3l14.9-27.2c0.2-0.3,0.6-0.5,0.9-0.3c0,0,0.1,0,0.1,0&#10;&#9;&#9;c0.3,0.2,0.5,0.6,0.3,0.9c0,0,0,0,0,0.1l-14.9,27.2C339.6,304.9,339.3,305,339.1,305z"/>
</g>
</svg>