<svg version="1.1" id="Layer_1" xmlns="http://www.w3.org/2000/svg" xmlns:xlink="http://www.w3.org/1999/xlink" x="0px" y="0px" viewBox="0 0 500 500" style="width: 188px;" xml:space="preserve" data-imageid="eating-salad-93" imageName="Eating Salad" class="illustrations_image">
<style type="text/css">
	.st0_eating-salad-93{fill:#FFFFFF;}
	.st1_eating-salad-93{fill:#231F20;}
	.st2_eating-salad-93{fill:#68E1FD;}
	.st3_eating-salad-93{fill:#D1D3D4;}
</style>
<g id="Character_eating-salad-93">
	<path class="st0_eating-salad-93" d="M307.8,233.4c0,0,56.1,72.5,68.3,95.7s7,44,0,49.3s-64.3-57.2-64.3-57.2S297.7,246.5,307.8,233.4z"/>
	<path class="st1_eating-salad-93" d="M375,379.5c-2.8,0-10.4-3.7-34.3-27.3c-15-14.8-29.4-30.5-29.5-30.6c-0.1-0.1-0.2-0.3-0.2-0.4&#10;&#9;&#9;c-0.6-3.1-14-75.1-3.9-88.4c0.2-0.2,0.4-0.3,0.7-0.3l0,0c0.3,0,0.5,0.1,0.7,0.3c0.6,0.7,56.3,72.9,68.4,95.8&#10;&#9;&#9;c7,13.2,7.8,24.6,7.3,31.8c-0.6,8.4-3.5,15.5-7.5,18.5C376.1,379.3,375.6,379.5,375,379.5z M312.5,320.7c23.6,25.7,58.6,60.2,63,57&#10;&#9;&#9;c6.5-4.9,11.9-25.2-0.2-48.2c-11.3-21.4-61-86.1-67.5-94.6C299.5,249.4,311.7,316.2,312.5,320.7z"/>
	<path class="st0_eating-salad-93" d="M349.6,219.2c-6.1,6.4-8.9,15.2-7.7,24c1.9,14.9,16.9,25.3,17.7,29.8s0.9,56.4,0.4,73&#10;&#9;&#9;c-0.7,22.5,15,50.3,33.9,43s17.7-22.9,8.3-54.4s-16-55.5-16-55.5s7.2-36.7-1.1-49S349.6,219.2,349.6,219.2z"/>
	<path class="st1_eating-salad-93" d="M387.7,391c-4-0.1-7.8-1.4-11-3.7c-10.5-7.5-18.1-25.2-17.5-41.3c0.6-17.6,0.4-68.6-0.4-72.8&#10;&#9;&#9;c-0.3-1.3-2.3-3.6-4.6-6.3c-5-5.7-11.8-13.6-13.1-23.6c-1.2-9,1.7-18.1,8-24.7c0.1-0.1,0.3-0.2,0.5-0.2c1.1-0.1,27.6-1.5,36.1,11.1&#10;&#9;&#9;c8.2,12.2,1.9,46.3,1.3,49.5c0.6,2.3,7.1,25.6,16,55.3c9.7,32.2,10.7,47.8-8.8,55.4C392.2,390.6,389.9,391,387.7,391z M350,220&#10;&#9;&#9;c-5.7,6.3-8.4,14.7-7.3,23.1c1.2,9.5,7.9,17.1,12.7,22.7c2.7,3.1,4.6,5.3,5,7.1c0.9,4.7,0.9,56.7,0.4,73.1&#10;&#9;&#9;c-0.5,15.6,6.7,32.7,16.9,39.9c5.1,3.6,10.5,4.4,15.9,2.3c18.2-7.1,17.1-22.2,7.8-53.4s-16-55.3-16-55.5c0-0.1,0-0.3,0-0.4&#10;&#9;&#9;c0.1-0.4,7.1-36.5-1-48.4C376.8,219.3,353,219.9,350,220z"/>
	<path class="st0_eating-salad-93" d="M236.8,89.9c-5,2.5-9.6,5.7-12,10.7c-2.5,5.1-2.3,11.5-5.7,16.1c-5.2,6.8-17.3,7.8-19,16.1&#10;&#9;&#9;c-0.7,3.3,0.6,6.6,0.4,9.9c-0.4,6.8-6.6,11.5-11.5,16.2c-8.7,8.5-12.8,28.3-0.9,36.1c7.3,4.8,17.5,2.1,25,6.5c2.1,1.4,4,3,5.8,4.7&#10;&#9;&#9;c10.5,9,21.1,8.6,34,9.3c12.5,0.6,22.3,6.2,34.7-1.2c3.3-2,6.3-4.5,10-5.5s7.8-0.2,11.6-0.3c14.8-0.5,22.4-14.2,25.7-27.1&#10;&#9;&#9;c1.4-5.6,0.8-12.1-3.1-16.4s-10.6-6.7-11-12.3c-0.4-5,4.8-9.7,3-14.3c-1.2-3-4.7-4.2-7.4-6.1c-8.6-5.8-5.7-14.9-7.6-23.5&#10;&#9;&#9;c-1.6-7.3-6.7-16.3-13.6-19.7c-6.1-2.9-12.6-1.1-17.6,2.9c-5.5-5.8-13.5-9.8-21.8-8.9c-4.8,0.5-9.2,2.5-13.6,4.4&#10;&#9;&#9;C240.4,88.2,238.6,89,236.8,89.9z"/>
	<path class="st1_eating-salad-93" d="M273.9,219c-3.7-0.1-7.3-0.6-10.9-1.3c-3.3-0.6-6.7-1.1-10.1-1.3l-3.3-0.1c-11.5-0.5-21.4-0.9-31.2-9.3&#10;&#9;&#9;c-0.5-0.4-1-0.8-1.4-1.3c-1.3-1.2-2.7-2.4-4.3-3.4c-3.5-2.1-7.6-2.5-11.9-3c-4.5-0.5-9.2-1-13.1-3.5c-4.4-2.9-7.1-7.6-7.7-13.6&#10;&#9;&#9;c-0.8-8.4,2.6-18.2,8.4-23.9c0.7-0.7,1.5-1.4,2.3-2.2c4.2-4,8.6-8.1,8.9-13.5c0-1.4-0.1-2.8-0.3-4.2c-0.4-1.9-0.4-3.9-0.1-5.9&#10;&#9;&#9;c1.1-5.2,5.8-7.7,10.4-10.2c3.3-1.8,6.6-3.6,8.7-6.3c1.9-2.5,2.6-5.5,3.4-8.8c0.5-2.5,1.3-4.9,2.3-7.2c2.7-5.6,8.1-8.8,12.4-11l0,0&#10;&#9;&#9;c1.8-0.9,3.6-1.8,5.4-2.5c4.4-1.9,8.9-4,13.9-4.5c7.6-0.8,15.8,2.4,22,8.7c5.7-4.2,12.4-5.2,17.9-2.5c7.5,3.6,12.5,13,14.1,20.2&#10;&#9;&#9;c0.5,2.5,0.7,5,0.8,7.6c0.3,5.9,0.6,11.5,6.4,15.4c0.7,0.4,1.4,0.9,2.1,1.2c2.3,1.3,4.6,2.6,5.6,5.2c1.1,2.9-0.1,5.7-1.3,8.4&#10;&#9;&#9;c-0.9,2-1.8,4.1-1.6,6.2c0.3,3.4,3.2,5.6,6.2,7.9c1.6,1.2,3.2,2.5,4.6,3.9c3.7,4.2,5,10.6,3.3,17.2c-2.6,10.1-9.5,27.2-26.5,27.7&#10;&#9;&#9;c-1.4,0-2.7,0-4-0.1c-5.2-0.8-10.4,0.7-14.4,4.1c-0.9,0.6-1.8,1.2-2.7,1.8C283.8,217.7,278.9,219,273.9,219z M237.2,90.6&#10;&#9;&#9;c-4.1,2.1-9.1,5.2-11.7,10.3c-1,2.2-1.7,4.5-2.2,6.8c-0.8,3.3-1.6,6.6-3.7,9.4c-2.3,3-5.8,4.9-9.3,6.7c-4.4,2.4-8.6,4.6-9.6,9.1&#10;&#9;&#9;c-0.3,1.8-0.2,3.6,0.1,5.3c0.2,1.5,0.4,3,0.3,4.5c-0.4,6.1-5,10.4-9.5,14.6c-0.8,0.7-1.5,1.4-2.2,2.1c-5.4,5.2-8.7,14.7-7.9,22.5&#10;&#9;&#9;c0.4,3.8,1.9,9,6.9,12.3c3.5,2.3,7.8,2.8,12.3,3.3c4.3,0.5,8.8,0.9,12.6,3.2c1.6,1,3.1,2.2,4.5,3.5l1.4,1.2c9.4,8,19,8.4,30.2,9&#10;&#9;&#9;l3.3,0.1c3.5,0.2,6.9,0.7,10.3,1.3c8.2,1.4,15.3,2.7,23.9-2.5c0.9-0.5,1.8-1.1,2.7-1.7c4.3-3.6,9.9-5.2,15.4-4.3&#10;&#9;&#9;c1.3,0.1,2.6,0.1,3.9,0.1c15.9-0.5,22.4-16.8,24.9-26.5c1.5-6,0.4-12-2.9-15.7c-1.3-1.4-2.8-2.6-4.3-3.7c-3.2-2.4-6.5-5-6.9-9.1&#10;&#9;&#9;c-0.2-2.4,0.8-4.7,1.8-6.9c1.1-2.5,2.1-4.9,1.3-7.1c-0.8-2-2.8-3.1-4.9-4.4c-0.8-0.4-1.5-0.9-2.2-1.3c-6.5-4.3-6.8-10.6-7.1-16.7&#10;&#9;&#9;c-0.1-2.5-0.3-4.9-0.8-7.3c-1.5-7.1-6.5-15.9-13.2-19.1c-5.2-2.5-11.3-1.5-16.8,2.8c-0.3,0.3-0.8,0.2-1.1-0.1&#10;&#9;&#9;c-5.9-6.2-13.8-9.5-21.1-8.7c-4.7,0.5-9.1,2.5-13.4,4.3C240.8,89,239,89.8,237.2,90.6L237.2,90.6z"/>
	<path class="st0_eating-salad-93" d="M305.1,312.5c-0.5-15.5,8.3-74.4,2.6-79.2c-2.4-2-13.4-4-26.1-7.6l-1.8-25.9c0,0,18.9-5.1,19.8-20.5&#10;&#9;&#9;c0.4-9.4,0-18.9-1.4-28.2c-1.1-7.5-0.7-16.6-5.4-23c-3.2-4.4-19-8.2-14.7-16.7c-4.6,9-12.8,15.7-22.5,18.5&#10;&#9;&#9;c-6.4,1.8-13.8,2-18.5,6.7c-9,9-4.7,28-4.1,39.2c0.7,13.8,1.6,19.4,2.4,33.2c0,1.3,0.3,10.2-13,13.6c-10.1,2.6-38.8,0.7-56.1,17.6&#10;&#9;&#9;S179,343.8,179,343.8l116.5-1.7C295.5,342.1,305.6,328,305.1,312.5z"/>
	<path class="st1_eating-salad-93" d="M179,344.6c-0.4,0-0.7-0.2-0.8-0.6c-1.2-3.5-29.9-87.3-12.4-104.3c13.4-13,33.3-15,46.5-16.4&#10;&#9;&#9;c3.4-0.3,6.7-0.7,10-1.4c11.2-2.8,12.4-9.8,12.4-12.7c-0.4-6.4-0.8-11.1-1.2-15.6c-0.5-5.3-0.9-10.3-1.2-17.7&#10;&#9;&#9;c-0.1-2.2-0.4-4.6-0.6-7.3c-1.1-11.2-2.5-25.1,5-32.6c3.7-3.7,8.8-4.7,13.8-5.8c1.7-0.4,3.4-0.7,5-1.2c9.5-2.7,17.5-9.2,22-18.1&#10;&#9;&#9;l0,0c0.2-0.4,0.7-0.6,1.1-0.3c0.4,0.2,0.5,0.7,0.4,1.1l0,0c-2.4,4.7,2,7.7,8.4,11.4c2.7,1.6,5.1,2.9,6.2,4.5&#10;&#9;&#9;c3.7,5,4.3,11.4,4.9,17.7c0.2,2,0.4,3.9,0.6,5.7c1.4,9.4,1.9,18.9,1.5,28.4c-0.8,14.1-16.3,19.9-19.7,21l1.7,24.6&#10;&#9;&#9;c4.2,1.2,8.2,2.2,11.8,3.1c7.1,1.8,12.3,3.1,14,4.5c3.7,3.1,2.2,23-0.4,50.8c-1.1,12.1-2.1,23.5-2,29l0,0c0.5,15.6-9.4,29.5-9.8,30&#10;&#9;&#9;c-0.2,0.2-0.4,0.3-0.7,0.3L179,344.6z M276.7,115.7c-4.9,7.4-12.3,12.7-20.8,15.2c-1.7,0.5-3.4,0.8-5.1,1.2c-5,1-9.7,2-13,5.3&#10;&#9;&#9;c-7,7-5.6,20.4-4.5,31.3c0.3,2.6,0.5,5.1,0.6,7.3c0.4,7.4,0.8,12.4,1.2,17.6c0.4,4.5,0.8,9.2,1.2,15.6c0,3.4-1.2,11.3-13.6,14.4&#10;&#9;&#9;c-3.4,0.7-6.8,1.1-10.2,1.4c-13,1.3-32.6,3.4-45.5,15.9c-16,15.6,10.1,94.5,12.6,102l115.4-1.7c1.5-2.2,9.8-15,9.3-28.7l0,0&#10;&#9;&#9;c-0.2-5.6,0.9-17.1,2-29.2c1.8-19.7,4.3-46.6,1-49.4c-1.4-1.2-6.9-2.6-13.3-4.2c-3.7-0.9-8-2-12.4-3.3c-0.3-0.1-0.6-0.4-0.6-0.7&#10;&#9;&#9;l-1.8-25.9c0-0.4,0.2-0.8,0.6-0.9c0.2-0.1,18.4-5.1,19.1-19.7c0.4-9.4,0-18.7-1.4-28c-0.3-1.9-0.5-3.8-0.6-5.8&#10;&#9;&#9;c-0.6-6-1.1-12.2-4.6-16.8c-0.9-1.3-3.3-2.6-5.7-4C282.4,122.4,277.6,119.6,276.7,115.7L276.7,115.7z M295.5,342.1L295.5,342.1z"/>
	<path class="st1_eating-salad-93" d="M324.3,341.7c1.4-2.6,0-93.5,0-93.5s-11-9.6-16.6-14.8s-26.1-7.6-26.1-7.6s-2.1,37-29.8,30.2&#10;&#9;&#9;s-29.5-33.2-29.5-33.2s-38.3,1.4-56.1,17.6S179,343.8,179,343.8L324.3,341.7z"/>
	<path class="st1_eating-salad-93" d="M179,344.6c-0.3,0-0.7-0.2-0.8-0.5c-1.2-3.6-30.4-88-12.4-104.3c9.3-8.5,24.2-12.9,35.1-15&#10;&#9;&#9;c7.1-1.4,14.3-2.3,21.5-2.8c0.4,0,0.8,0.3,0.9,0.8c0,0.3,2.1,25.8,28.8,32.4c6.7,1.7,12.4,0.8,16.9-2.6&#10;&#9;&#9;c10.6-7.8,11.8-26.7,11.8-26.9c0-0.2,0.1-0.4,0.3-0.6c0.2-0.2,0.4-0.2,0.6-0.2c0.8,0.1,20.8,2.4,26.5,7.8&#10;&#9;&#9;c5.6,5.2,16.5,14.7,16.6,14.8c0.2,0.2,0.3,0.4,0.3,0.6c0.2,15.2,1.3,91.2-0.1,93.9c-0.1,0.3-0.4,0.4-0.7,0.4L179,344.6z&#10;&#9;&#9; M221.8,223.7c-5.5,0.3-38.8,2.8-54.8,17.3c-16.5,14.9,10,94.4,12.6,101.9l144.1-2.1c0.8-6.1,0.4-57.6-0.2-92.3&#10;&#9;&#9;c-1.7-1.5-11.2-9.9-16.3-14.6c-4.7-4.4-20.8-6.8-24.8-7.3c-0.4,4-2.4,19.8-12.4,27.2c-5,3.7-11.1,4.6-18.3,2.9&#10;&#9;&#9;C226.6,250.6,222.3,228.2,221.8,223.7L221.8,223.7z M324.4,341.7L324.4,341.7z M324.4,341.7L324.4,341.7z"/>
	<path class="st2_eating-salad-93 targetColor" d="M197.3,223.3c0,0,20.3,20.6,31.6,73.3c0,0-35.4,37.1-47.2,39s-7.9,4.5-7.9,4.5l19.3,77.9h130l-1.6-42.2&#10;&#9;&#9;c0,0,8.5-13.4,12.5-35.8s-10.3-40.2-10.3-40.2s-8.9-57.4-21.6-71.6l-10-3c0,0,19.2,58.6,19,70.6s-56,11.1-68.4-0.2&#10;&#9;&#9;c-3.8-25-8.5-34.1-17.6-48.9s-15.7-25.4-15.7-25.4L197.3,223.3z" style="fill: rgb(76, 99, 124);"/>
	<path class="st0_eating-salad-93" d="M166.4,240.4c-19.7,18.4-90.2,130.9-72.4,150.6s98.6-20.1,108.4-19.3s45,1.6,55.2-1.2s38.2-18.1,31.5-24.4&#10;&#9;&#9;s-30.3,7.1-32.3,7.9s-48.4-8.3-56.5-7.5s-47,0.5-47,0.5s48.7-52.4,46.8-76.7C198.1,245.4,182.6,225.2,166.4,240.4z"/>
	<path class="st1_eating-salad-93" d="M111,397.3c-7.7,0-14-1.6-17.7-5.8c-10.6-11.8,9.3-53.1,22.1-76.7c18.4-33.9,41-66.2,50.4-75&#10;&#9;&#9;c6.9-6.4,12.9-6,16.8-4.5c9.4,3.7,16.9,18,18.2,34.9c1.8,22.4-37.9,67.3-45.8,76c7.9,0,38.1,0.1,45.1-0.5&#10;&#9;&#9;c4.8-0.5,21.8,2.3,36.8,4.7c9.1,1.5,18.5,3,19.6,2.8c0.2-0.1,0.8-0.4,1.7-0.8c10.8-5.5,25.8-12.2,31.5-6.9c1.1,1,1.6,2.6,1.1,4&#10;&#9;&#9;c-2,7.9-24.4,19.5-33,21.8c-10.4,2.8-45.7,2-55.5,1.2c-2.7-0.2-12,3.1-22.8,7C158.6,387,130.2,397.3,111,397.3z M166.4,240.4&#10;&#9;&#9;l0.6,0.6c-9.4,8.8-31.8,40.8-50.1,74.6c-21.5,39.4-29.6,66.7-22.3,74.8c12.2,13.6,57.4-2.7,84.3-12.4c11.9-4.3,20.5-7.4,23.5-7.1&#10;&#9;&#9;c9.4,0.8,44.9,1.6,54.9-1.1c8.9-2.4,30.2-14,31.8-20.6c0.3-0.9,0-1.8-0.7-2.4c-3.6-3.4-13.5-1-29.6,7.1c-1,0.5-1.6,0.8-1.9,0.9&#10;&#9;&#9;c-0.9,0.4-5.2-0.2-20.4-2.7c-14.2-2.3-31.8-5.2-36.4-4.7c-8.1,0.8-45.5,0.5-47.1,0.5c-0.3,0-0.6-0.2-0.8-0.5&#10;&#9;&#9;c-0.1-0.3-0.1-0.6,0.1-0.9c0.5-0.5,48.5-52.5,46.6-76.1c-1.3-16.3-8.3-30-17.2-33.5c-4.9-1.9-10.1-0.5-15.1,4.2L166.4,240.4z"/>
	<path class="st0_eating-salad-93" d="M237.5,152.5c-2.2-6.2-10.4-10.7-16.8-9c-8.4,2.1-7.3,11.7-4.1,17.7c4.1,7.5,13.6,10.2,21.1,6.1&#10;&#9;&#9;c0.1,0,0.1-0.1,0.2-0.1"/>
	<path class="st1_eating-salad-93" d="M230.2,170c-1.5,0-3-0.2-4.4-0.6c-4.2-1.2-7.8-4-9.9-7.9c-2-3.6-3.6-9.3-1.6-13.8c1.1-2.6,3.5-4.5,6.2-5.1&#10;&#9;&#9;c6.8-1.7,15.4,2.9,17.8,9.6c0.2,0.4-0.1,0.9-0.5,1.1c-0.4,0.2-0.9-0.1-1.1-0.5l0,0c-2.1-5.9-9.8-10.1-15.8-8.5&#10;&#9;&#9;c-2.3,0.5-4.2,2-5.1,4.1c-1.6,3.7-0.4,8.9,1.6,12.4c3.9,7.1,12.9,9.7,20,5.8c0.1,0,0.1-0.1,0.2-0.1c0.4-0.2,0.9,0,1.1,0.4&#10;&#9;&#9;c0.2,0.4,0.1,0.8-0.3,1.1C235.8,169.3,233,170,230.2,170z"/>
	<path class="st1_eating-salad-93" d="M273.6,165.2c-0.8,0-1.5,0-2.3-0.1c-0.5-0.1-0.8-0.5-0.7-0.9c0,0,0,0,0,0c0.1-0.5,0.5-0.8,0.9-0.7&#10;&#9;&#9;c1.8,0.2,6.8,0.3,8.3-1.8c1-1.5-4.4-9.3-10.1-15.8c-0.3-0.3-0.3-0.9,0.1-1.2c0.3-0.3,0.9-0.3,1.2,0.1c11.8,13.3,10.8,17,10.3,17.8&#10;&#9;&#9;C279.6,164.8,276,165.2,273.6,165.2z"/>
	<path class="st1_eating-salad-93" d="M280.6,199.3c0,0-10.9,3.1-25-4.3c0,0,6.9,20.1,26.4,20.1L280.6,199.3z"/>
	<path class="st1_eating-salad-93" d="M282.1,216L282.1,216c-19.9,0-27.1-20.5-27.2-20.7c-0.1-0.3,0-0.7,0.2-0.9c0.3-0.2,0.6-0.3,0.9-0.1&#10;&#9;&#9;c13.6,7.1,24.3,4.3,24.4,4.2c0.2-0.1,0.5,0,0.7,0.1c0.2,0.1,0.3,0.4,0.4,0.6l1.5,15.8c0,0.2-0.1,0.5-0.2,0.6&#10;&#9;&#9;C282.5,215.9,282.3,216,282.1,216z M257.3,196.8c2.3,4.9,9.4,17,23.9,17.6l-1.3-14C277,200.9,268.3,201.9,257.3,196.8z"/>
	<path class="st1_eating-salad-93" d="M285.8,175.2l-26.7-3.2c0,0,1.4,14.4,12.6,15.7S285.8,175.2,285.8,175.2z"/>
	<path class="st1_eating-salad-93" d="M273.1,188.7c-0.5,0-1,0-1.5-0.1c-11.8-1.3-13.3-16.3-13.3-16.4c0-0.2,0.1-0.5,0.2-0.7&#10;&#9;&#9;c0.2-0.2,0.4-0.3,0.7-0.2l26.7,3.1c0.5,0.1,0.8,0.5,0.7,0.9c0,0,0,0,0,0.1C286.6,175.5,283.7,188.7,273.1,188.7z M260.1,173&#10;&#9;&#9;c0.6,3.2,3,12.9,11.7,13.9c8.9,1,12.2-8.1,13-11L260.1,173z"/>
	<circle class="st3_eating-salad-93" cx="284.5" cy="181.8" r="7.7"/>
	<path class="st1_eating-salad-93" d="M284.5,190.3c-4.7,0-8.5-3.8-8.5-8.5c0-4.7,3.8-8.5,8.5-8.5c4.7,0,8.5,3.8,8.5,8.5c0,0,0,0,0,0&#10;&#9;&#9;C293,186.5,289.2,190.3,284.5,190.3z M284.5,174.9c-3.8,0-6.9,3.1-6.9,6.9s3.1,6.9,6.9,6.9c3.8,0,6.9-3.1,6.9-6.9v0&#10;&#9;&#9;C291.3,178,288.2,174.9,284.5,174.9z"/>
	<path class="st2_eating-salad-93 targetColor" d="M301.2,193.6c-0.9-0.5-1.9,0.1-2.7,0.7c-0.4,0.3-0.8,0.6-1.3,0.7c-0.5,0.1-1-0.2-1.1-0.7&#10;&#9;&#9;c0.6-0.5-0.1-1.5-0.9-1.6c-0.8,0-1.5,0.2-2.2,0.5c-0.9,0.2-1.8,0.1-2.5-0.4c0.8-0.5,1.6-1.1,1.6-2c0-0.6-0.4-1.1-0.3-1.7&#10;&#9;&#9;c0.1-1,1.5-1.6,1.4-2.6c-0.3-1.4-3.2-0.9-3.4-2.3c0-0.5,0.2-0.9,0.7-1.1c0.4-0.2,0.9-0.3,1.3-0.4c-0.5-1.2-2.1-1.5-3.4-1.5&#10;&#9;&#9;s-2.9,0-3.6-1.1c-0.5-0.7-0.5-1.6,0-2.3c0.5-0.7,1.4-0.9,2.2-0.6c-0.5-0.8-1-1.7-1.3-2.6c-0.2-0.5-0.3-1.1-0.2-1.6&#10;&#9;&#9;c0.1-0.6,0.7-0.9,1.2-0.8c0.2,0.1,0.3,0.1,0.5,0.1c0.2,0,0.4-0.3,0.5-0.5c0.6-1.1,1.4-2,2.5-2.7c1.1-0.7,2.8-1.1,3.8-0.2&#10;&#9;&#9;s0.9,2.2,1.7,3.2c0.8,0.7,1.8,1.1,2.9,1c1,0,2.1-0.3,3.1-0.3c0.5,0,1,0.1,1.4,0.3c1.2,0.8,0.7,2.8,1.7,3.8c1.3,1.2,3.9,0,5,1.5&#10;&#9;&#9;c0.7,1,0.1,2.3-0.6,3.4c0.7,0.6,1.6,1,2.1,1.8c0.4,0.8,0.4,1.7,0,2.5c-0.4,0.8-1.1,1.4-1.9,1.8c-1.9,1-3.4,2.5-4.4,4.3&#10;&#9;&#9;c-0.4,0.8-0.6,2.4-1.6,2.7S302,194,301.2,193.6z" style="fill: rgb(76, 99, 124);"/>
	<path class="st1_eating-salad-93" d="M303.2,195.7c-0.7-0.1-1.3-0.4-1.7-1c-0.2-0.2-0.4-0.4-0.6-0.5l0,0c-0.6-0.3-1.6,0.3-2.1,0.6&#10;&#9;&#9;c-0.4,0.4-1,0.7-1.5,0.8c-0.5,0.1-0.9,0-1.3-0.3c-0.3-0.2-0.5-0.5-0.6-0.9c0-0.2,0.1-0.4,0.2-0.6c0,0,0-0.1-0.1-0.2&#10;&#9;&#9;c-0.1-0.1-0.2-0.2-0.4-0.3c-0.4,0-0.8,0.1-1.2,0.2c-0.3,0.1-0.5,0.2-0.8,0.2c-1,0.2-2.1,0.1-3-0.4c-0.2-0.1-0.3-0.3-0.3-0.5&#10;&#9;&#9;c0-0.2,0.1-0.4,0.3-0.5c0.7-0.4,1.3-0.9,1.3-1.5c0-0.2,0-0.4-0.1-0.6c-0.1-0.4-0.2-0.8-0.1-1.2c0.1-0.6,0.4-1.1,0.9-1.5&#10;&#9;&#9;c0.4-0.4,0.5-0.7,0.5-0.9s-0.5-0.5-1.2-0.6s-2-0.6-2.1-1.7c-0.1-0.7,0.3-1.4,1-1.8c0.2-0.1,0.3-0.2,0.5-0.2&#10;&#9;&#9;c-0.7-0.3-1.5-0.5-2.2-0.5c-1.3,0-3.1,0-4.1-1.4c-0.8-1.2-0.5-2.8,0.6-3.6c0.3-0.2,0.7-0.4,1-0.4c-0.3-0.5-0.5-1.1-0.7-1.6&#10;&#9;&#9;c-0.3-0.6-0.3-1.3-0.2-2c0.1-0.5,0.5-0.9,0.9-1.1c0.3-0.2,0.8-0.2,1.1-0.1l0.2,0.1c0,0,0-0.1,0-0.1c0.6-1.2,1.5-2.2,2.7-2.9&#10;&#9;&#9;c1.3-0.9,3.3-1.2,4.5-0.1c0.5,0.5,0.9,1.2,1.1,1.9c0.1,0.5,0.4,0.9,0.6,1.3c0.6,0.6,1.5,0.9,2.4,0.8c0.5,0,1-0.1,1.5-0.1&#10;&#9;&#9;c0.5-0.1,1.1-0.1,1.6-0.2c0.6,0,1.3,0.1,1.8,0.4c0.7,0.6,1.1,1.4,1.2,2.4c0,0.6,0.2,1.1,0.6,1.5c0.6,0.4,1.3,0.6,2,0.5&#10;&#9;&#9;c1.1-0.2,2.2,0.2,3,1c0.9,1.2,0.2,2.8-0.2,3.6c0.1,0.1,0.3,0.2,0.4,0.3c0.6,0.3,1,0.8,1.4,1.3c0.6,1,0.6,2.2,0,3.1&#10;&#9;&#9;c-0.5,0.9-1.3,1.6-2.2,2c-1.8,0.9-3.2,2.3-4.1,4.1c-0.1,0.3-0.2,0.5-0.3,0.8c-0.3,0.8-0.7,1.8-1.6,2.1&#10;&#9;&#9;C303.6,195.6,303.4,195.6,303.2,195.7z M301.5,193.1c0.3,0.2,0.7,0.5,0.9,0.8c0.5,0.5,0.7,0.7,1,0.6s0.6-0.8,0.8-1.4&#10;&#9;&#9;c0.1-0.3,0.2-0.7,0.4-1c1.1-2,2.7-3.5,4.6-4.6c0.7-0.3,1.3-0.8,1.6-1.5c0.3-0.6,0.3-1.3,0-1.9c-0.3-0.4-0.7-0.7-1.1-0.9&#10;&#9;&#9;c-0.4-0.2-0.7-0.5-1-0.7c-0.2-0.2-0.2-0.5-0.1-0.8c0.8-1.2,1-2.1,0.6-2.7s-1-0.5-2-0.6c-1.7,0.4-3.4-0.7-3.7-2.4&#10;&#9;&#9;c0-0.2-0.1-0.4-0.1-0.6c-0.1-0.7-0.3-1.3-0.7-1.6c-0.3-0.2-0.7-0.3-1.1-0.2c-0.5,0-1,0.1-1.5,0.1c-0.5,0.1-1.1,0.1-1.6,0.1&#10;&#9;&#9;c-1.2,0.1-2.5-0.4-3.3-1.2c-0.4-0.5-0.7-1.1-0.9-1.7c-0.1-0.5-0.4-1-0.8-1.4c-0.8-0.7-2.1-0.4-3,0.2c-0.9,0.6-1.7,1.5-2.2,2.4&#10;&#9;&#9;c-0.2,0.4-0.5,0.7-1,0.8c-0.2,0-0.5,0-0.7-0.1c-0.1,0-0.2,0-0.3,0c-0.1,0.1-0.2,0.2-0.3,0.4c-0.1,0.4,0,0.8,0.2,1.2&#10;&#9;&#9;c0.3,0.9,0.7,1.7,1.2,2.4c0.2,0.2,0.2,0.5,0,0.7c-0.2,0.2-0.5,0.3-0.7,0.2c-0.5-0.2-1.2,0-1.5,0.4c-0.3,0.5-0.3,1.1,0,1.6&#10;&#9;&#9;c0.5,0.8,1.7,0.8,3.1,0.8c2.7,0,3.6,1,4,1.9c0.1,0.3,0,0.7-0.3,0.8c-0.1,0-0.1,0-0.2,0c-0.4,0-0.7,0.1-1.1,0.3&#10;&#9;&#9;c-0.2,0.1-0.3,0.3-0.4,0.5c0,0.3,0.5,0.4,1.2,0.6c0.9,0.2,1.9,0.5,2.1,1.6c0.1,0.7-0.2,1.5-0.8,1.9c-0.3,0.2-0.5,0.5-0.6,0.9&#10;&#9;&#9;c0,0.2,0,0.4,0.1,0.7c0.1,0.3,0.2,0.6,0.2,0.9c0,0.7-0.4,1.4-1,1.8c0.4,0.1,0.7,0.1,1.1,0c0.2-0.1,0.5-0.1,0.7-0.2&#10;&#9;&#9;c0.6-0.2,1.2-0.3,1.8-0.3c0.7,0.1,1.3,0.6,1.6,1.3c0.1,0.3,0.1,0.6,0,0.9c0.1,0,0.2,0,0.3,0c0.3-0.1,0.7-0.3,0.9-0.5&#10;&#9;&#9;c1.7-1.3,2.8-1.1,3.5-0.8L301.5,193.1z"/>
	<path class="st0_eating-salad-93" d="M377.9,253.4c0,0-56.4-43.4-59.3-45.8s-5.1-7.1-7.7-10s-13.2-11-13.2-11l1.2-1l4.1-3.5l1-1.2&#10;&#9;&#9;c0,0,8.8,3,12.2,6.4s4.9,8.7,7.2,13.9s60.1,47.8,61.5,49.1S379.8,253.9,377.9,253.4z"/>
	<path class="st1_eating-salad-93" d="M378.5,254.3c-0.3,0-0.5,0-0.8-0.1c-0.1,0-0.2-0.1-0.3-0.1c-0.6-0.4-56.4-43.5-59.3-45.8&#10;&#9;&#9;c-1.9-1.8-3.6-3.8-4.9-6.1c-0.9-1.4-1.8-2.7-2.9-4c-2.5-2.9-13-10.8-13.1-10.9c-0.4-0.3-0.4-0.8-0.1-1.2c0,0,0.1-0.1,0.1-0.1&#10;&#9;&#9;l5.3-4.5l1-1.1c0.2-0.3,0.6-0.4,0.9-0.2c0.4,0.1,9,3.1,12.5,6.6c2.7,2.8,4.3,6.6,5.9,10.7c0.5,1.1,0.9,2.3,1.4,3.5&#10;&#9;&#9;c1.7,4,39.7,32.5,54,43.3c4.8,3.6,7,5.2,7.2,5.5c0.5,0.4,0.6,1.2,0.3,1.7C384.9,252.8,380.7,254.3,378.5,254.3z M378.3,252.7&#10;&#9;&#9;c2.1-0.1,4.1-0.8,5.8-2c-0.7-0.6-3.5-2.7-6.9-5.2c-26.1-19.6-52.9-40.1-54.6-44c-0.5-1.2-1-2.4-1.5-3.5c-1.6-3.9-3.1-7.6-5.5-10.1&#10;&#9;&#9;c-2.7-2.8-9.4-5.3-11.3-6l-0.7,0.8l-4.6,3.9c2.6,2,10.3,8,12.5,10.5c1.1,1.3,2.1,2.8,3,4.2c1.2,2.1,2.8,4,4.5,5.7&#10;&#9;&#9;C322,209.3,375.1,250.2,378.3,252.7z"/>
	<path class="st1_eating-salad-93" d="M311.1,193.2c-0.3,0-0.5-0.1-0.7-0.4c-2.7-3.9-10.9-7.2-11-7.2c-0.4-0.2-0.6-0.7-0.5-1.1&#10;&#9;&#9;c0.2-0.4,0.7-0.6,1.1-0.5c0.4,0.1,8.8,3.5,11.7,7.8c0.3,0.4,0.2,0.9-0.2,1.2c0,0,0,0,0,0C311.5,193.1,311.3,193.2,311.1,193.2z"/>
	<path class="st1_eating-salad-93" d="M313.4,190.2c-0.3,0-0.5-0.1-0.7-0.4c-2.9-4.1-10.7-6.2-10.8-6.3c-0.4-0.1-0.7-0.6-0.6-1&#10;&#9;&#9;c0.1-0.4,0.6-0.7,1-0.6c0.4,0.1,8.5,2.3,11.8,6.9c0.3,0.4,0.2,0.9-0.2,1.1c0,0,0,0,0,0C313.7,190.2,313.6,190.2,313.4,190.2z"/>
	<path class="st0_eating-salad-93" d="M383.3,238.4c-1.3-0.5-13.1,7.6-20,4.2s9.2-13.7,9.2-13.7s-18.1,14.5-25.5,10.8s8.7-13.9,9.7-13.9&#10;&#9;&#9;s-12.1,6.8-18.1,2.6s11-9.2,11-9.2s-13.9-1.8-13.9-7.9s40.6,2.6,47.7,12.8s5.4,22.9,5.4,22.9"/>
	<path class="st1_eating-salad-93" d="M388.8,247.9h-0.1c-0.4-0.1-0.7-0.5-0.7-0.9c0-0.1,1.5-12.5-5.3-22.3c-5.9-8.6-37.5-16.5-45.1-14.1&#10;&#9;&#9;c-0.4,0.1-1,0.4-1,0.8c0,4.4,9.5,6.6,13.2,7.1c0.5,0.1,0.8,0.5,0.7,0.9c0,0.3-0.3,0.6-0.6,0.7c-4.7,1.4-11.4,4.2-11.7,6.3&#10;&#9;&#9;c0,0.2-0.1,0.7,0.9,1.4c3.6,2.5,10.2,0.6,14.1-0.9c1.1-0.8,2.3-1.4,3.6-1.8c0.5,0,0.9,0.4,0.9,0.9c0,0.3-0.2,0.7-0.5,0.8&#10;&#9;&#9;c-1,0.7-2.1,1.2-3.3,1.7c-3.1,2.2-7.7,5.9-7.9,8.6c0,0.6,0,1.4,1.5,2.1c4.3,2.1,13.3-2.8,19.6-7.1c1.6-1.3,3.3-2.5,5-3.7&#10;&#9;&#9;c0.4-0.2,0.9-0.1,1.1,0.2c0.3,0.4,0.2,0.9-0.2,1.1c-0.2,0.2-2.1,1.7-4.9,3.6c-3,2.5-5.8,5.4-5.7,7.2c0,0.4,0.2,1,1.2,1.5&#10;&#9;&#9;c4.5,2.2,11.5-1,15.8-2.9c2.6-1.2,3.5-1.6,4.1-1.3c0.4,0.2,0.6,0.7,0.5,1.1c0,0,0,0,0,0c-0.2,0.4-0.6,0.6-1,0.5&#10;&#9;&#9;c-1,0.3-2,0.7-2.9,1.2c-4.5,2.1-12,5.5-17.2,2.9c-1.2-0.5-2.1-1.6-2.1-2.9c0-1.3,0.5-2.5,1.3-3.6c-5.5,3-11.7,5.4-15.5,3.6&#10;&#9;&#9;c-1.9-0.9-2.7-2.5-2.3-4.3s2.5-4.3,4.7-6.2c-3.8,1-8.1,1.2-11-0.8c-1.6-1.1-1.7-2.2-1.6-3c0.5-2.8,6-5.3,9.8-6.6&#10;&#9;&#9;c-4.3-1-11.4-3.3-11.4-8.1c0-0.8,0.4-1.8,2.2-2.4c8.1-2.5,40.6,5.5,47,14.7c7.2,10.4,5.6,23,5.5,23.5&#10;&#9;&#9;C389.5,247.6,389.2,247.9,388.8,247.9z"/>
	<path class="st1_eating-salad-93" d="M153.1,347.8h-25.7c-0.5,0-0.8-0.4-0.8-0.8c0-0.5,0.4-0.8,0.8-0.8h25.7c0.5,0,0.8,0.4,0.8,0.8&#10;&#9;&#9;C154,347.4,153.6,347.8,153.1,347.8z"/>
	<path class="st1_eating-salad-93" d="M256.2,144c-2.6,0-5.1-0.7-7.3-2.1c-0.4-0.3-0.5-0.8-0.2-1.2s0.8-0.5,1.2-0.2c0.2,0.2,5.8,4,13.1,0&#10;&#9;&#9;c0.4-0.2,0.9-0.1,1.1,0.3c0.2,0.4,0.1,0.9-0.3,1.1C261.5,143.3,258.9,144,256.2,144z"/>
	<path class="st1_eating-salad-93" d="M281.9,144c-2.6,0-5.1-0.7-7.3-2.1c-0.4-0.3-0.5-0.8-0.2-1.2c0.3-0.4,0.8-0.5,1.2-0.2c0.2,0.2,5.8,4,13.1,0&#10;&#9;&#9;c0.4-0.2,0.9-0.1,1.1,0.3c0.2,0.4,0.1,0.9-0.3,1.1C287.2,143.3,284.6,144,281.9,144z"/>
	<path class="st1_eating-salad-93" d="M259.1,134.8c-0.5,0-0.8-0.4-0.8-0.8c0-0.4,0.3-0.7,0.6-0.8c14.8-3.5,18.4-21.6,18.4-21.7&#10;&#9;&#9;c0.1-0.4,0.5-0.7,1-0.6c0.4,0.1,0.7,0.5,0.6,0.9c0,0.2-3.9,19.3-19.7,23C259.2,134.7,259.2,134.8,259.1,134.8z"/>
</g>
<g id="Salad_Bowl_eating-salad-93">
	<path class="st0_eating-salad-93" d="M301.7,301c0,4-3.9,13.8-10.6,24.7c-6,9.8-14.3,20.5-24.1,28.6c-20.6,4.6-42,4.6-62.6,0&#10;&#9;&#9;c-9.8-8.1-18.1-18.8-24.1-28.6c-6.7-10.9-10.6-20.7-10.6-24.7c0-11,29.6-20,66-20S301.7,290,301.7,301z"/>
	<path class="st1_eating-salad-93" d="M235.7,358.4c-10.6,0.1-21.1-1.1-31.5-3.4c-0.1,0-0.2-0.1-0.3-0.1c-11.1-9.1-19.3-20.7-24.3-28.8&#10;&#9;&#9;c-6.3-10.3-10.6-20.6-10.6-25.1c0-11.6,29.3-20.6,66.7-20.6s66.7,9.1,66.7,20.6c0,4.5-4.4,14.8-10.7,25c-5,8.1-13.2,19.6-24.3,28.8&#10;&#9;&#9;c-0.1,0.1-0.2,0.1-0.3,0.1C256.8,357.3,246.3,358.5,235.7,358.4z M204.7,353.6c20.4,4.5,41.5,4.5,61.9,0c8.5-7,17-17.1,23.9-28.3&#10;&#9;&#9;S301,304.6,301,301c0-10.4-29.9-19.2-65.3-19.2s-65.3,8.8-65.3,19.2c0,3.6,3.6,13.1,10.5,24.3S196.2,346.6,204.7,353.6L204.7,353.6&#10;&#9;&#9;z M266.9,354.3L266.9,354.3z"/>
	<path class="st2_eating-salad-93 targetColor" d="M188.6,274.8c1.4-0.5,2.3-2.1,3.4-3.3c1.3-1.5,3.3-2.6,5.2-2.2c0.9,0.4,1.8,0.6,2.8,0.9&#10;&#9;&#9;c2.3,0.2,3.8-2.2,5.6-3.5c1.4-1.1,3.2-1.6,5-1.5c2.8,0.3,3.9,4.2,6.5,5.6c2.1,1.2,4.7,1.3,6.9,0.4c1.4-0.6,2.7-1.8,4.3-2&#10;&#9;&#9;c1.5-0.1,3.1,0.5,4.1,1.7c1,1.2,1.8,2.5,2.4,3.9c2.8,5.9,8.6,17,2.3,22.9c-1.2,1-2.6,1.6-4.1,1.9c-5.8,1.4-11.9,1.8-17.8,1.1&#10;&#9;&#9;c-2.7-0.3-5.9-1.8-8.5-1.6c-1,0.1-2,0.9-3.1,1c-1.4,0.1-2.8-0.2-4.1-0.6c-3-0.9-5.9-2-8.8-3.4c-1.8-0.7-3.4-1.7-4.9-2.9&#10;&#9;&#9;c-4.1-3.4-5.8-8.9-6.5-14.2c-0.3-1.5-0.2-3,0.2-4.4c0.5-1.5,1.9-2.4,3.4-2.3c1.9,0.3,3.1,2.7,5,2.8&#10;&#9;&#9;C188,275,188.3,274.9,188.6,274.8z" style="fill: rgb(76, 99, 124);"/>
	<path class="st1_eating-salad-93" d="M220.7,301.6c-1.9,0-3.8-0.1-5.8-0.3c-1.2-0.2-2.4-0.4-3.6-0.8c-1.6-0.5-3.2-0.8-4.8-0.8&#10;&#9;&#9;c-0.5,0.1-0.9,0.2-1.3,0.4c-0.5,0.3-1.1,0.5-1.7,0.5c-1.5,0.1-3-0.2-4.4-0.7c-3-0.9-6-2.1-8.9-3.4c-1.8-0.8-3.5-1.8-5.1-3&#10;&#9;&#9;c-3.6-2.9-5.8-7.7-6.7-14.6c-0.3-1.6-0.2-3.2,0.2-4.7c0.6-1.7,2.2-2.9,4.1-2.7c1,0.2,2,0.8,2.7,1.5c0.6,0.6,1.4,1.1,2.2,1.2&#10;&#9;&#9;c0.2,0,0.5,0,0.7-0.1c1-0.5,1.8-1.3,2.4-2.2c0.2-0.3,0.5-0.6,0.7-0.9c1.3-1.5,3.5-2.9,5.9-2.4c0.4,0.1,0.8,0.3,1.2,0.4&#10;&#9;&#9;c0.5,0.2,0.9,0.3,1.4,0.4c1.3,0.1,2.5-1,3.6-2.1c0.5-0.5,1-0.9,1.5-1.4c1.6-1.2,3.5-1.7,5.5-1.6c1.8,0.2,3,1.7,4.1,3.1&#10;&#9;&#9;c0.7,1,1.6,1.9,2.6,2.5c2,1.1,4.3,1.2,6.3,0.4c0.5-0.2,1-0.5,1.4-0.8c0.9-0.6,2-1.1,3.1-1.3c1.8-0.1,3.5,0.6,4.6,1.9&#10;&#9;&#9;c1,1.2,1.9,2.5,2.5,4l0.4,0.8c3.1,6.3,8.2,16.9,1.8,22.8c-1.3,1-2.8,1.7-4.4,2C229,301,224.8,301.5,220.7,301.6z M206.9,298.4&#10;&#9;&#9;c1.6,0.1,3.2,0.4,4.8,0.9c1.1,0.3,2.3,0.6,3.4,0.8c5.9,0.7,11.9,0.3,17.7-1.2c1.4-0.2,2.7-0.8,3.8-1.7c5.7-5.3,0.9-15.4-2-21.4&#10;&#9;&#9;l-0.4-0.8c-0.6-1.4-1.3-2.6-2.3-3.7c-0.9-1-2.2-1.6-3.6-1.5c-0.9,0.2-1.8,0.6-2.6,1.1c-0.5,0.3-1,0.6-1.6,0.9&#10;&#9;&#9;c-2.4,1-5.1,0.9-7.4-0.4c-1.2-0.7-2.2-1.7-3-2.9c-1-1.3-2-2.5-3.3-2.6c-1.6-0.1-3.3,0.3-4.6,1.3c-0.5,0.4-1,0.8-1.4,1.3&#10;&#9;&#9;c-1.3,1.3-2.7,2.6-4.6,2.4c-0.6-0.1-1.2-0.2-1.8-0.5c-0.3-0.2-0.7-0.3-1.1-0.4c-1.8-0.4-3.6,0.8-4.6,2l-0.7,0.8&#10;&#9;&#9;c-0.7,1.2-1.8,2.1-3,2.6l0,0c-0.4,0.1-0.8,0.2-1.1,0.2c-1.1-0.2-2.2-0.7-3-1.5c-0.6-0.6-1.3-1-2.1-1.2c-1.2,0-2.3,0.8-2.7,1.9&#10;&#9;&#9;c-0.4,1.3-0.4,2.7-0.1,4.1c0.9,6.6,2.9,11.1,6.2,13.8c1.5,1.1,3.1,2.1,4.8,2.8c2.8,1.3,5.8,2.4,8.7,3.3c1.2,0.4,2.6,0.7,3.9,0.6&#10;&#9;&#9;c0.5-0.1,0.9-0.2,1.4-0.5c0.5-0.3,1.1-0.5,1.7-0.5L206.9,298.4z M188.6,274.8L188.6,274.8z"/>
	<path class="st0_eating-salad-93" d="M193,276.4c0,0,0.3,4.1,8.1,7s14.5,1.5,18.6-3c3.9-4.3,2.7-13.3,2.7-13.3s-3.6,6.6-13,8.4&#10;&#9;&#9;C199.6,277.5,193,276.4,193,276.4z"/>
	<path class="st1_eating-salad-93" d="M209,285.6c-2.8,0-5.5-0.6-8.1-1.6c-8.1-3-8.5-7.4-8.5-7.6c0-0.2,0.1-0.4,0.2-0.6c0.2-0.1,0.4-0.2,0.6-0.2&#10;&#9;&#9;c5.4,0.6,10.8,0.3,16.1-0.8c9-1.8,12.5-8,12.6-8.1c0.1-0.3,0.4-0.4,0.7-0.4c0.3,0.1,0.5,0.3,0.6,0.6c0.1,0.4,1.2,9.3-2.9,13.8&#10;&#9;&#9;C217.3,284,213.2,285.7,209,285.6z M194,277.2c0.6,1.3,2.3,3.6,7.3,5.5c7.2,2.7,13.7,1.7,17.8-2.8c2.6-2.9,2.8-8,2.7-10.8&#10;&#9;&#9;c-3.2,3.7-7.5,6.3-12.4,7.1C204.4,277.3,199.2,277.6,194,277.2z"/>
	<path class="st0_eating-salad-93" d="M193,276.4c0,0,5.5,4.3,15,1.7c7.8-2.2,11.8-5.1,14.4-10.9C222.4,267.1,202.1,276.2,193,276.4z"/>
	<path class="st1_eating-salad-93" d="M202,279.6c-3.3,0.1-6.6-0.8-9.4-2.7c-0.3-0.2-0.4-0.7-0.1-1c0.1-0.2,0.3-0.3,0.5-0.3&#10;&#9;&#9;c8.8-0.1,28.9-9.1,29.1-9.2c0.3-0.1,0.6-0.1,0.8,0.1c0.2,0.2,0.3,0.5,0.1,0.8c-2.7,6-6.7,9-14.8,11.3&#10;&#9;&#9;C206.2,279.3,204.1,279.6,202,279.6z M195.4,276.9c4,1.6,8.3,1.8,12.4,0.5c6.8-1.9,10.6-4.4,13.1-8.8&#10;&#9;&#9;C216.2,270.6,203.4,275.8,195.4,276.9z"/>
	<path class="st1_eating-salad-93" d="M295.5,301c0,2.5-2.4,4.8-6.5,6.9l-0.5,0.2c-2.1,1-4.3,1.8-6.6,2.5c-7.6,2.2-15.4,3.7-23.2,4.4&#10;&#9;&#9;c-4.7,0.5-9.8,0.9-15,1c-2.3,0.1-4.6,0.1-6.9,0.1h-1.1c-2.8,0-5.6,0-8.4-0.1c-22.2-0.8-40.4-4.7-47.9-9.9c-2.3-1.6-3.6-3.4-3.6-5.2&#10;&#9;&#9;c0-0.7,0.2-1.4,0.6-2.1c1.1-2,3.7-3.9,7.5-5.6c10.4-4.5,29.6-7.6,51.8-7.6c10,0,19.9,0.6,29.8,2c1.8,0.3,3.5,0.5,5.1,0.8&#10;&#9;&#9;c2.2,0.4,4.2,0.8,6.1,1.3c1.8,0.4,3.4,0.9,5,1.4c8.1,2.5,13.1,5.6,13.7,9.1C295.4,300.5,295.5,300.8,295.5,301z"/>
	<path class="st1_eating-salad-93" d="M235.7,317c-2.8,0-5.6,0-8.4-0.1c-22.1-0.8-40.6-4.6-48.3-10c-2.6-1.8-3.9-3.8-3.9-5.8c0-0.9,0.2-1.7,0.6-2.4&#10;&#9;&#9;c1.1-2.1,3.8-4.1,7.8-5.9c10.8-4.7,30.7-7.7,52.1-7.7c10,0,20,0.6,29.9,2c1.8,0.3,3.5,0.5,5.1,0.8c2.1,0.4,4.2,0.8,6.2,1.3&#10;&#9;&#9;s3.5,0.9,5.1,1.4c6.1,1.9,13.5,5,14.2,9.6c0.1,0.3,0.1,0.5,0.1,0.8c0,2.7-2.3,5.3-6.9,7.6l-0.5,0.2c-2.2,1-4.4,1.9-6.7,2.6&#10;&#9;&#9;c-7.6,2.2-15.5,3.7-23.4,4.4c-4.8,0.5-9.9,0.9-15.1,1c-2.1,0.1-4.4,0.1-6.9,0.1L235.7,317z M235.7,286.5c-21.2,0-40.9,2.9-51.4,7.5&#10;&#9;&#9;c-3.7,1.6-6.2,3.4-7.1,5.2c-0.3,0.5-0.4,1.1-0.5,1.7c0,1.5,1.1,3.1,3.2,4.6c7.4,5.2,25.6,9,47.4,9.8c2.8,0.1,5.6,0.1,8.3,0.1&#10;&#9;&#9;c0.4,0,0.7,0,1.1,0c2.5,0,4.7,0,6.9-0.1c5.1-0.2,10.1-0.5,15-1c7.8-0.7,15.5-2.2,23.1-4.4c2.2-0.7,4.4-1.5,6.5-2.5l0.5-0.2&#10;&#9;&#9;c4-2,6.1-4.1,6.1-6.2c0-0.2,0-0.3,0-0.5c-0.5-3-5.2-6-13.2-8.5c-1.5-0.5-3.1-0.9-5-1.4s-4-0.9-6.1-1.3c-1.6-0.3-3.3-0.6-5.1-0.8&#10;&#9;&#9;C255.5,287.2,245.6,286.5,235.7,286.5L235.7,286.5z"/>
	<path class="st2_eating-salad-93 targetColor" d="M248.6,268.6c0.7,0.6,1.2,1.4,2.1,1.6c1.7,0.5,3.1-1.8,4.9-1.9s3,2,4.4,3.2c3.9,3.5,10.2,0.2,15.4,1.1&#10;&#9;&#9;c2.2,0.4,4.8,0.9,6.2,2.8c0.9,1.3,1.8,2.8,3.3,3.1c1.1,0,2.1-0.2,3.1-0.6c1-0.3,2.3-0.3,3,0.5c0.5,0.6,0.5,1.7,1.3,1.9&#10;&#9;&#9;c0.4,0.1,0.7,0.1,1.1-0.1l4.4-1.2c0.4-0.2,0.9-0.2,1.4-0.1c0.8,0.3,1.3,1.2,1.1,2.1c-0.2,0.8-0.6,1.6-1.2,2.3&#10;&#9;&#9;c-1.7,2.3-3.4,4.7-5.1,7c-3.9,5.3-9.1,10.1-15.5,12.2c-8.2,2.7-17.4,1.9-25.6-0.1s-19.6-7.5-18.9-17.8&#10;&#9;&#9;C234.3,280,241.8,262.9,248.6,268.6z" style="fill: rgb(76, 99, 124);"/>
	<path class="st1_eating-salad-93" d="M266.9,305.1c-4.8-0.1-9.6-0.7-14.2-1.8c-9.8-2.4-20-8.4-19.3-18.4c0.3-4,4.9-15.2,10.4-17.5&#10;&#9;&#9;c1.8-0.8,3.9-0.5,5.3,0.9l0,0c0.2,0.2,0.4,0.4,0.6,0.6c0.3,0.4,0.7,0.7,1.2,0.9c0.7,0.2,1.4-0.3,2.2-0.8c0.7-0.6,1.6-1,2.6-1.1&#10;&#9;&#9;c1.6-0.1,2.8,1.2,3.7,2.3c0.3,0.4,0.7,0.8,1.1,1.1c2.2,2,5.3,1.6,8.5,1.1c2.2-0.4,4.4-0.5,6.6-0.2h0.2c2.2,0.4,4.9,0.9,6.4,3&#10;&#9;&#9;l0.4,0.5c0.7,1,1.4,2.1,2.5,2.3c0.7,0.1,1.5-0.1,2.1-0.4l0.7-0.2c1.6-0.5,2.9-0.2,3.6,0.8c0.2,0.3,0.4,0.6,0.5,1&#10;&#9;&#9;c0.2,0.4,0.3,0.7,0.5,0.8c0.2,0,0.5,0,0.7-0.1l4.4-1.2c0.6-0.2,1.1-0.2,1.7-0.1c1.1,0.4,1.8,1.6,1.6,2.8c-0.2,1-0.6,1.8-1.3,2.6&#10;&#9;&#9;c-1.7,2.3-3.4,4.7-5.1,7c-4.6,6.2-10.1,10.5-15.9,12.4C274.8,304.6,270.8,305.2,266.9,305.1z M245.7,268.1c-0.5,0-1.1,0.1-1.5,0.3&#10;&#9;&#9;c-4.9,2.1-9.4,12.9-9.6,16.5c-0.6,9.2,9.1,14.9,18.4,17.1c9.8,2.4,18.3,2.4,25.2,0.1c5.5-1.8,10.8-5.9,15.2-12l5.1-7&#10;&#9;&#9;c0.5-0.6,0.8-1.3,1-2c0.1-0.6-0.2-1.1-0.7-1.4c-0.4,0-0.7,0-1.1,0.1l-4.4,1.2c-0.5,0.2-1,0.2-1.4,0c-0.6-0.3-1.1-0.8-1.2-1.5&#10;&#9;&#9;c-0.1-0.2-0.2-0.5-0.3-0.7c-0.4-0.6-1.5-0.5-2.3-0.3l-0.6,0.2c-0.9,0.4-1.8,0.5-2.8,0.4c-1.6-0.3-2.5-1.7-3.3-2.9L281,276&#10;&#9;&#9;c-1.1-1.6-3.5-2.1-5.6-2.5h-0.2c-2.1-0.3-4.1-0.2-6.2,0.2c-3.4,0.4-6.9,0.9-9.5-1.5c-0.4-0.4-0.8-0.8-1.2-1.2&#10;&#9;&#9;c-0.8-1-1.6-1.9-2.6-1.9h-0.1c-0.7,0.1-1.4,0.4-2,0.9c-0.9,0.8-2,1.1-3.2,1c-0.7-0.2-1.3-0.7-1.8-1.2c-0.2-0.2-0.4-0.4-0.6-0.5l0,0&#10;&#9;&#9;C247.5,268.6,246.6,268.2,245.7,268.1L245.7,268.1z"/>
	<path class="st2_eating-salad-93 targetColor" d="M241.2,275c1.7-1.1,4.5-0.7,5.1,1.2c0.3,0.9,0,2,0.6,2.8c0.7,0.8,1.7,1,2.7,0.7c1.6-0.5,3.1-1.4,4.3-2.6&#10;&#9;&#9;c1.2-1.2,2.7-2.1,4.3-2.6c1.6-0.4,3.6,0.1,4.4,1.6c0.5,1,0.5,2.5,1.5,2.9c0.4,0.1,0.8,0.2,1.2,0.1c1-0.2,1.9-0.6,2.8-1.1&#10;&#9;&#9;c1.5-1,2.9-2.5,4.6-2.2c1.9,0.3,2.6,2.6,3,4.5c1.7-0.4,3.5-0.6,5.3-0.4c1.8,0.2,3.3,1.4,4,3.1c0.2,0.9,0.3,1.8,0.1,2.7&#10;&#9;&#9;c-1,7.9-6.6,14.6-13.2,18.9c-8.7,5.7-20.1,7.9-29.9,4.2c-6.1-2.3-10.7-8.3-9.2-15.1c0.7-3,2.4-6,3.5-8.9&#10;&#9;&#9;C237.4,281.8,238.3,277,241.2,275z" style="fill: rgb(76, 99, 124);"/>
	<path class="st1_eating-salad-93" d="M252.1,311.2c-3.6,0-7.1-0.6-10.4-1.8c-6-2.2-11.2-8.4-9.6-15.9c0.5-2,1.3-4,2.2-5.9c0.5-1,0.9-2,1.3-3&#10;&#9;&#9;c0.2-0.6,0.5-1.4,0.7-2.1c1-3,2.1-6.4,4.5-8l0,0c1.2-0.8,2.7-0.9,4-0.5c0.9,0.3,1.7,1.1,2,2c0.1,0.4,0.2,0.9,0.2,1.3&#10;&#9;&#9;c0,0.5,0.1,0.9,0.3,1.3c0.5,0.5,1.3,0.7,2,0.5c1.5-0.5,2.9-1.3,4-2.5c1.3-1.2,2.8-2.2,4.5-2.8c1.8-0.5,4.2,0.1,5.1,2&#10;&#9;&#9;c0.2,0.4,0.3,0.8,0.4,1.2c0.2,0.8,0.4,1.3,0.8,1.5c0.3,0.1,0.6,0.1,0.9,0c0.9-0.2,1.8-0.5,2.6-1c0.3-0.2,0.7-0.5,1-0.7&#10;&#9;&#9;c1.1-0.9,2.5-1.9,4-1.6c2.3,0.4,3.1,3,3.4,4.4c1.6-0.4,3.3-0.5,4.9-0.3c2,0.3,3.8,1.6,4.5,3.5c0.2,1,0.3,2,0.1,3&#10;&#9;&#9;c-1,7.3-5.9,14.4-13.5,19.4C266.1,309,259.2,311.2,252.1,311.2z M241.6,275.5c-2.1,1.4-3.1,4.6-4,7.3c-0.3,0.8-0.5,1.5-0.8,2.2&#10;&#9;&#9;c-0.4,1-0.9,2.1-1.3,3.1c-0.9,1.8-1.6,3.7-2.1,5.7c-1.5,6.8,3.3,12.4,8.8,14.4c9,3.4,20.2,1.8,29.3-4.1c7.3-4.8,12-11.5,13-18.5&#10;&#9;&#9;c0.2-0.8,0.1-1.6-0.1-2.4c-0.6-1.5-2-2.5-3.5-2.7c-1.7-0.2-3.4-0.1-5.1,0.4c-0.3,0.1-0.7-0.2-0.7-0.5c-0.5-2.5-1.3-3.8-2.5-4&#10;&#9;&#9;c-1-0.2-2,0.6-3.1,1.4c-0.4,0.3-0.7,0.5-1.1,0.8c-0.9,0.6-1.9,1-3,1.2c-0.5,0.1-1.1,0.1-1.6-0.1c-0.8-0.5-1.4-1.3-1.5-2.3&#10;&#9;&#9;c-0.1-0.3-0.2-0.7-0.3-1c-0.6-1.3-2.3-1.6-3.6-1.3c-1.5,0.5-2.9,1.4-4,2.5c-1.3,1.3-2.8,2.2-4.6,2.7c-1.2,0.4-2.5,0-3.4-1&#10;&#9;&#9;c-0.4-0.6-0.5-1.3-0.5-2c0-0.3-0.1-0.7-0.1-1c-0.2-0.6-0.7-1-1.2-1.2c-1-0.3-2-0.2-2.9,0.3L241.6,275.5z"/>
	<path class="st0_eating-salad-93" d="M265.5,275.2c-0.8,3.8-4.4,11.8-12.9,12.9s-12.4-1.4-16.8-7.4c-2.6-3.4-3.7-7.7-3.2-12l26.6,5l3.5,0.7&#10;&#9;&#9;L265.5,275.2z"/>
	<path class="st1_eating-salad-93" d="M249,289.1c-6.6,0-10.1-2.9-13.8-7.9c-2.7-3.6-3.9-8.1-3.3-12.5c0.1-0.4,0.4-0.6,0.8-0.5l30.1,5.7l2.9,0.8&#10;&#9;&#9;c0.4,0.1,0.6,0.5,0.5,0.8c-0.9,4.5-4.8,12.3-13.6,13.5C251.5,289,250.2,289.1,249,289.1z M233.2,269.6c-0.3,3.8,0.9,7.7,3.2,10.8&#10;&#9;&#9;c4.2,5.7,7.7,8.2,16.1,7.1c7.5-1,11.1-7.5,12.2-11.7l-2.2-0.6l-3.4-0.7L233.2,269.6z"/>
	<path class="st3_eating-salad-93" d="M249.5,286.3c-3.4,0-6.5-1.5-8.8-4c-3.8-4-4.9-9.2-5.1-12c0-0.4,0.2-0.7,0.6-0.8c0.4,0,0.7,0.2,0.8,0.6&#10;&#9;&#9;c0.2,2.1,1.1,7.4,4.7,11.2c5.2,5.4,11.5,3.8,15.2,0.8c4.4-3.5,4.8-6.8,4.8-6.9c0.1-0.4,0.4-0.6,0.8-0.6c0.4,0.1,0.6,0.4,0.6,0.7&#10;&#9;&#9;c0,0.2-0.5,3.9-5.3,7.8C255.5,285.2,252.6,286.3,249.5,286.3z"/>
	<path class="st3_eating-salad-93" d="M259.2,274.3c-0.3,0.8-0.8,1.5-1.4,2.1c-1.2,1.3-3,2.5-4.7,1.8c-0.8-0.3-1.5-1-2.4-1.1c-0.6,0-1.1,0.2-1.6,0.1&#10;&#9;&#9;c-1-0.1-1.5-1.1-2-1.8c-0.6-0.8-1.4-1.4-2.4-1.5c-2-0.5-2.6-1.1-3.4-3.1c0-0.1-0.1-0.2-0.1-0.2L259.2,274.3z"/>
	<path class="st3_eating-salad-93" d="M243.5,275.8c0.1-0.4-3.7,0.4-3.1,1.5S242.9,277.2,243.5,275.8z"/>
	<path class="st3_eating-salad-93" d="M248.2,278.2c-0.1-0.3-3.9,2.5-2.4,3.1S248.4,279.5,248.2,278.2z"/>
	<path class="st3_eating-salad-93" d="M254,279c0,0-0.7,2.6,0.7,2.6C256.1,281.6,254.9,280.4,254,279z"/>
	<path class="st2_eating-salad-93 targetColor" d="M255.6,291.9c0.2-2.2,0-4.7-1.7-6.1c-1.5-1-3.4-1.2-5-0.4c-1.6,0.7-3,1.8-4.3,3c-0.8-1.8-2.1-3.4-3.6-4.6&#10;&#9;&#9;c-1.6-1.1-4.1-1.3-5.5,0.1c-0.8,0.9-1.4,2.3-2.5,2.3c-0.8,0-1.4-0.8-1.9-1.5c-2.5-3.5-5.8-6.6-9.9-7.7s-9.1,0.5-10.9,4.4&#10;&#9;&#9;c-1.3,2.7-0.7,5.9,0,8.8c1.1,4.8,3,9.3,5.7,13.3c2.7,4.1,6.8,7.1,11.4,8.6c5,1.5,10.4,0.6,15.5-0.5&#10;&#9;&#9;C252,309.5,255,300.5,255.6,291.9z" style="fill: rgb(76, 99, 124);"/>
	<path class="st1_eating-salad-93" d="M233.1,313.6c-2,0-4-0.2-6-0.8c-4.8-1.5-9-4.7-11.8-8.9c-2.8-4.1-4.7-8.7-5.8-13.5c-0.7-2.9-1.3-6.3,0.1-9.3&#10;&#9;&#9;c2-4.4,7.5-5.9,11.7-4.8c3.7,1,7.2,3.6,10.3,7.9c0.4,0.6,0.9,1.2,1.4,1.2l0,0c0.4,0,0.8-0.4,1.3-1.1c0.2-0.3,0.5-0.6,0.7-0.9&#10;&#9;&#9;c1.6-1.7,4.5-1.5,6.4-0.2c1.4,1.1,2.6,2.5,3.4,4.1c1.1-1.1,2.4-1.9,3.8-2.6c1.9-0.8,4-0.6,5.7,0.5c1.6,1.3,2.3,3.5,2,6.7&#10;&#9;&#9;c-0.9,11.7-5.4,18.6-13.3,20.3C239.8,313,236.5,313.5,233.1,313.6z M218.5,277.4c-3.1,0-6.3,1.4-7.7,4.3c-1.2,2.5-0.6,5.6,0,8.3&#10;&#9;&#9;c1,4.7,2.9,9.1,5.6,13.1c2.6,3.9,6.5,6.9,11,8.3c4.9,1.4,10.2,0.6,15.2-0.6c7.2-1.6,11.3-8,12.2-19.1l0,0c0.2-2.7-0.3-4.5-1.5-5.5&#10;&#9;&#9;c-1.3-0.9-2.9-1-4.3-0.3c-1.5,0.7-2.9,1.7-4.1,2.9c-0.2,0.1-0.4,0.2-0.6,0.2c-0.2,0-0.4-0.2-0.5-0.4c-0.8-1.7-2-3.2-3.4-4.4&#10;&#9;&#9;c-1.4-0.9-3.4-1.1-4.6,0c-0.2,0.2-0.4,0.5-0.6,0.8c-0.5,0.9-1.4,1.6-2.4,1.7l0,0c-1.1-0.1-2-0.8-2.5-1.8c-2.9-4-6.1-6.5-9.5-7.4&#10;&#9;&#9;C220.1,277.5,219.3,277.4,218.5,277.4L218.5,277.4z"/>
	<circle class="st0_eating-salad-93" cx="265.2" cy="296.3" r="16.2"/>
	<path class="st1_eating-salad-93" d="M265.2,313.2c-9.4,0-16.9-7.6-16.9-16.9c0-9.4,7.6-16.9,16.9-16.9c9.4,0,16.9,7.6,16.9,16.9c0,0,0,0,0,0&#10;&#9;&#9;C282.1,305.7,274.6,313.2,265.2,313.2z M265.2,280.8c-8.6,0-15.5,7-15.5,15.5s7,15.5,15.5,15.5c8.6,0,15.5-7,15.5-15.5&#10;&#9;&#9;C280.7,287.7,273.8,280.8,265.2,280.8z"/>
	<path class="st3_eating-salad-93" d="M265.2,311.2c-8.2,0-14.9-6.6-14.9-14.8s6.6-14.9,14.8-14.9c8.2,0,14.9,6.6,14.9,14.8c0,0,0,0,0,0&#10;&#9;&#9;C280,304.5,273.4,311.1,265.2,311.2z M265.2,282.9c-7.4,0-13.5,6-13.5,13.4s6,13.5,13.4,13.5s13.5-6,13.5-13.4c0,0,0,0,0,0&#10;&#9;&#9;C278.7,288.9,272.6,282.9,265.2,282.9z"/>
	<path class="st3_eating-salad-93" d="M257.8,296.8c0.8-3,5-0.7,5-0.7s-2.7-6-4.5-6.2s-5.6,1.7-6.3,6.1c-0.6,4.2,1.5,6.1,4.9,5.9&#10;&#9;&#9;c2.6-0.2,5.4-3.4,5.4-3.4S257.1,299.4,257.8,296.8z M257.3,292.6c0.7-0.4,1.5,1.1,1.5,1.1C257,293.5,256.5,293,257.3,292.6z&#10;&#9;&#9; M254.9,296c0.4-0.7,2,0.3,2,0.3C255.3,296.9,254.5,296.7,254.9,296z M254.5,298.1c0.1-0.7,2-0.1,2-0.1&#10;&#9;&#9;C255.2,299,254.4,298.9,254.5,298.1z M255.8,300.1c-0.3-0.7,1.7-1,1.7-1C256.9,300.5,256.1,300.7,255.8,300.1L255.8,300.1z&#10;&#9;&#9; M256,293.8c0.6-0.5,1.7,0.9,1.7,0.9C256,294.8,255.3,294.3,256,293.8L256,293.8z"/>
	<path class="st3_eating-salad-93" d="M267.3,298c0,0,2.3,3.6,4.9,4.2c3.4,0.8,6-0.8,6.2-5c0.2-4.5-3.4-7-5.3-7s-5.8,5.5-5.8,5.5s4.8-1.6,5,1.5&#10;&#9;&#9;C272.6,299.8,267.3,298,267.3,298z M271.9,293.9c0,0,1.1-1.4,1.8-0.9S273.8,294,271.9,293.9L271.9,293.9z M273.4,296.8&#10;&#9;&#9;c0,0,1.9-0.7,2.1,0S274.9,297.6,273.4,296.8L273.4,296.8z M273.4,298.5c0,0,2.1-0.3,2.1,0.4S274.6,299.6,273.4,298.5L273.4,298.5z&#10;&#9;&#9; M272.3,299.4c0,0,2,0.6,1.6,1.2S272.6,300.9,272.3,299.4L272.3,299.4z M272.9,295.1c0,0,1.4-1.2,2-0.6S274.6,295.5,272.9,295.1&#10;&#9;&#9;L272.9,295.1z"/>
	<path class="st3_eating-salad-93" d="M265,303.4c-2.9,0.5-2-4-2-4s-4.5,4.7-4.3,6.3s4.5,4.4,8.6,3.2c3.9-1.1,4.9-2.9,3.8-5.6&#10;&#9;&#9;c-0.9-2.1-5.9-4.5-5.9-4.5S267.5,303,265,303.4z M261.4,305.6c-0.6-0.5,0.6-1.7,0.6-1.7C262.3,305.4,262,306,261.4,305.6z&#10;&#9;&#9; M265.1,306.2c-0.7,0-0.3-1.8-0.3-1.8C265.8,305.5,265.8,306.3,265.1,306.2z M267.1,305.7c-0.7,0.2-0.7-1.7-0.7-1.7&#10;&#9;&#9;C267.6,304.8,267.8,305.5,267.1,305.7L267.1,305.7z M268.5,303.9c-0.5,0.5-1.3-1.1-1.3-1.1C268.5,302.7,269,303.3,268.5,303.9&#10;&#9;&#9;L268.5,303.9z M262.9,306.2c-0.6-0.3,0.3-1.8,0.3-1.8C263.8,305.8,263.5,306.5,262.9,306.2L262.9,306.2z"/>
	<path class="st3_eating-salad-93" d="M266.5,294c0,0,4.7-3.2,5.4-5.5c1-3-1.4-3.8-5.5-4.7c-4.3-1-7,1.8-7.1,3.5s4.8,6.3,4.8,6.3s-1.2-4.6,1.8-4.3&#10;&#9;&#9;C268.5,289.5,266.5,294,266.5,294z M262.8,289c0,0-1.2-1.3-0.7-1.8S263.1,287.4,262.8,289z M265.7,288.2c0,0-0.5-1.8,0.1-2&#10;&#9;&#9;S266.7,287,265.7,288.2L265.7,288.2z M267.4,288.5c0,0-0.1-1.9,0.6-1.8S268.6,287.6,267.4,288.5L267.4,288.5z M268.2,289.7&#10;&#9;&#9;c0,0,0.7-1.7,1.3-1.2S269.6,289.7,268.2,289.7L268.2,289.7z M264.1,288.4c0,0-1.1-1.5-0.5-1.9S264.5,286.8,264.1,288.4L264.1,288.4&#10;&#9;&#9;z"/>
	<path class="st2_eating-salad-93 targetColor" d="M177.1,287c-0.3-1.5-0.4-4,1.3-4.8s3.5,1.1,5.2,0.1c1-0.5,1.4-1.7,2-2.6c1.7-2.1,4.7-2.6,7-1.2&#10;&#9;&#9;c0.9,0.6,1.6,1.4,2.5,2c1.7,0.9,3.8,0.8,5.5-0.3c2.2-1.3,2.6-3.5,4.1-5s4.7-0.9,6.3,0.2s2.9,2.7,4.5,3.9c2.3,1.8,5.2,2.6,8,3.8&#10;&#9;&#9;c2.9,1.2,5.3,2.6,6.2,5.8c0.8,2.6,0.3,5.9,2.4,8.1c0.7,0.7,1.5,1.2,2.3,1.8c2.7,2.5,2.8,6.6,0.4,9.3c-2.2,2.2-5.7,2.6-8.8,1.9&#10;&#9;&#9;s-6-2.2-9-3c-5.5-1.5-11.2-0.4-16.8,0c-5.9,0.4-12-0.2-16.8-4.3c-1-0.9-1.8-1.9-2.5-3C178.4,295.9,177.9,291.4,177.1,287z" style="fill: rgb(76, 99, 124);"/>
	<path class="st1_eating-salad-93" d="M228.6,310.8c-0.9,0-1.9-0.1-2.8-0.3c-1.8-0.4-3.5-1-5.2-1.6c-1.2-0.5-2.5-0.9-3.8-1.3&#10;&#9;&#9;c-4.2-1.2-8.6-0.7-12.8-0.3c-1.3,0.1-2.5,0.3-3.8,0.4c-7.6,0.5-13.1-0.9-17.2-4.5c-1-0.9-1.9-1.9-2.6-3.1&#10;&#9;&#9;c-2.2-3.4-2.9-7.4-3.6-11.2l-0.3-1.9l0,0c-0.5-2.8,0.1-4.8,1.7-5.5c0.9-0.3,2-0.3,2.9,0c0.7,0.3,1.5,0.3,2.2,0&#10;&#9;&#9;c0.5-0.4,1-0.9,1.2-1.5c0.2-0.3,0.4-0.6,0.6-0.9c1.9-2.4,5.3-2.9,7.9-1.3c0.4,0.3,0.8,0.6,1.2,1c0.4,0.4,0.8,0.7,1.3,1&#10;&#9;&#9;c1.5,0.8,3.4,0.7,4.8-0.3c1-0.7,1.9-1.6,2.4-2.7c0.4-0.8,1-1.5,1.6-2.2c1.9-1.9,5.4-1.1,7.1,0.1c1,0.7,1.8,1.4,2.6,2.3&#10;&#9;&#9;c2.1,2.2,4.8,3.8,7.8,4.6c0.6,0.2,1.3,0.5,1.9,0.8c3.2,1.3,5.6,2.9,6.6,6.1c0.3,1,0.5,2,0.6,3c0.2,1.8,0.5,3.6,1.7,4.8&#10;&#9;&#9;c0.4,0.4,0.8,0.7,1.2,1c0.3,0.2,0.7,0.5,1,0.8c2.9,2.7,3.1,7.3,0.4,10.2C233.4,310.1,231.1,310.9,228.6,310.8z M210.8,305.6&#10;&#9;&#9;c2.2,0,4.3,0.2,6.4,0.8c1.3,0.4,2.6,0.9,3.9,1.3c1.6,0.7,3.3,1.2,5,1.6c3.4,0.7,6.5,0,8.2-1.8c2.2-2.4,2-6.2-0.4-8.4&#10;&#9;&#9;c-0.3-0.2-0.6-0.5-0.9-0.7c-0.5-0.3-1-0.7-1.4-1.1c-1.5-1.5-1.8-3.6-2-5.5c-0.1-0.9-0.3-1.9-0.5-2.8c-0.9-2.8-2.9-4.1-5.9-5.4&#10;&#9;&#9;c-0.6-0.3-1.3-0.5-1.9-0.7c-2.2-0.7-4.3-1.8-6.2-3.1c-0.7-0.6-1.4-1.2-2-1.8c-0.7-0.8-1.6-1.5-2.4-2.1c-1.4-0.9-4.2-1.6-5.6-0.3&#10;&#9;&#9;c-0.5,0.6-1,1.2-1.4,2c-0.6,1.3-1.6,2.4-2.8,3.2c-1.8,1.2-4.2,1.3-6.1,0.3c-0.5-0.3-1-0.7-1.4-1.1c-0.3-0.3-0.7-0.6-1.1-0.9&#10;&#9;&#9;c-2-1.3-4.7-0.8-6.2,1c-0.2,0.3-0.4,0.5-0.5,0.8c-0.4,0.8-1,1.4-1.7,1.9c-1,0.5-2.2,0.5-3.2,0.1c-0.6-0.3-1.3-0.3-2-0.1&#10;&#9;&#9;c-1.5,0.7-1.2,3.1-1,4.1l0.3,1.9c0.7,3.9,1.3,7.5,3.4,10.7c0.7,1.1,1.5,2,2.4,2.8c3.9,3.4,9.1,4.7,16.3,4.1&#10;&#9;&#9;c1.2-0.1,2.5-0.2,3.7-0.3C206.2,305.7,208.5,305.6,210.8,305.6L210.8,305.6z"/>
	<path class="st1_eating-salad-93" d="M210.5,279.4c10.2,3.9,16.6,12.2,14.1,18.6s-12.5,12.4-24.2,8s-15.3-15.6-12.9-22S200.3,275.5,210.5,279.4z"/>
	<path class="st1_eating-salad-93" d="M208.5,308.3c-2.8,0-5.6-0.5-8.3-1.5c-5.2-1.9-9.6-5.7-12.1-10.6c-2.1-4.2-2.5-8.8-1.2-12.4&#10;&#9;&#9;c1.3-3.4,4.5-5.7,9.1-6.6c5-0.9,10.1-0.3,14.8,1.6l0,0c10.6,4,17.1,12.8,14.6,19.6c-1.3,3.6-4.7,6.7-9,8.5&#10;&#9;&#9;C213.9,307.8,211.2,308.3,208.5,308.3z M200.4,278.2c-1.4,0-2.7,0.1-4.1,0.4c-4.1,0.8-6.9,2.9-8,5.7c-1.2,3.2-0.8,7.3,1.1,11.1&#10;&#9;&#9;c5.1,9.4,16.3,13.6,26.3,9.9c3.9-1.6,7-4.5,8.2-7.6c2.3-6-3.9-13.9-13.7-17.6l0,0C207.1,278.9,203.8,278.2,200.4,278.2z"/>
	
		<ellipse transform="matrix(0.3528 -0.9357 0.9357 0.3528 -138.8646 381.1853)" class="st0_eating-salad-93" cx="206.1" cy="291" rx="12.4" ry="19.8"/>
	<path class="st1_eating-salad-93" d="M211.9,305.3c-3.5,0-7.1-0.7-10.4-2c-4.8-1.7-8.9-4.7-12.1-8.6c-2.8-3.7-3.7-7.6-2.4-10.9s4.5-5.7,9-6.6&#10;&#9;&#9;c5-0.9,10.1-0.3,14.8,1.6l0,0c10.6,4,17.1,12.7,14.5,19.5c-1.3,3.3-4.5,5.7-9,6.6C214.8,305.1,213.4,305.3,211.9,305.3z&#10;&#9;&#9; M200.4,278.1c-1.4,0-2.8,0.1-4.1,0.4c-4.1,0.8-6.9,2.9-8,5.7s-0.3,6.3,2.2,9.6c6.3,7.4,15.9,11,25.5,9.6c4.1-0.8,6.9-2.9,8-5.7&#10;&#9;&#9;c2.3-6-3.9-14-13.7-17.7l0,0C207.1,278.8,203.8,278.2,200.4,278.1z"/>
	
		<ellipse transform="matrix(0.3528 -0.9357 0.9357 0.3528 -138.8646 381.1853)" class="st3_eating-salad-93" cx="206.1" cy="291" rx="8.4" ry="13.3"/>
	<path class="st2_eating-salad-93 targetColor" d="M237.3,315.5c-0.1,0.3-0.3,0.5-0.5,0.8h-1.1c-2.8,0-5.6,0-8.4-0.1c-22.2-0.8-40.4-4.7-47.8-9.9&#10;&#9;&#9;c-1.2-2.3-2.2-4.8-3-7.3c-0.1-0.4-0.3-0.9-0.4-1.3c-0.4-1-0.5-2-0.4-3.1c0.5-1.8,2.2-3.1,4.1-3c1.6,0.1,3.1,0.7,4.2,1.9&#10;&#9;&#9;c0.2,0.2,0.4,0.4,0.6,0.6c0.7,0.8,1.5,1.8,2.5,1.5s1.3-1.6,2-2.5c1.1-1.5,3.5-1.4,5-0.4c1.4,1.2,2.5,2.7,3.2,4.4&#10;&#9;&#9;c0.6,1.1,1.6,2.5,2.8,2.1c0.7-0.2,1-0.9,1.4-1.5c1.9-2.4,6.1-1.5,7.9,1c1.1,1.4,2.1,3.5,3.9,3.3c0.5-0.1,0.9-0.3,1.3-0.6&#10;&#9;&#9;c2.2-1.5,4.4-3.4,7.1-3.3c3.3,0.1,5.5,3.2,7.7,5.7c1.5,1.4,3.1,2.8,4.7,4C236.6,309.9,238.9,312.4,237.3,315.5z" style="fill: rgb(76, 99, 124);"/>
	<path class="st1_eating-salad-93" d="M235.7,316.9c-2.8,0-5.6,0-8.4-0.1c-22.1-0.8-40.5-4.6-48.2-10c-0.1-0.1-0.2-0.1-0.2-0.2&#10;&#9;&#9;c-1.2-2.4-2.2-4.8-3-7.4c-0.1-0.4-0.3-0.8-0.4-1.3c-0.4-1.1-0.6-2.3-0.4-3.4c0.6-2.1,2.5-3.6,4.7-3.6l0,0c1.7,0.1,3.4,0.8,4.6,2&#10;&#9;&#9;c0.2,0.2,0.4,0.4,0.6,0.6l0.1,0.1c0.6,0.6,1.2,1.4,1.8,1.2c0.4-0.1,0.7-0.5,1-1.2c0.2-0.4,0.4-0.7,0.6-1c1.3-1.8,4.1-1.7,5.8-0.5&#10;&#9;&#9;c1.5,1.2,2.7,2.9,3.4,4.7c0.2,0.4,1.1,2.1,2,1.7c0.4-0.2,0.7-0.5,0.9-0.8c0.1-0.2,0.2-0.3,0.3-0.5c1-1.1,2.4-1.7,3.8-1.6&#10;&#9;&#9;c2,0.1,3.9,1,5.1,2.6l0.6,0.8c1,1.5,1.7,2.4,2.7,2.2c0.4-0.1,0.7-0.3,1-0.5c0.4-0.2,0.8-0.5,1.1-0.8c1.9-1.3,3.9-2.7,6.3-2.6&#10;&#9;&#9;c3.2,0.1,5.4,2.7,7.4,5l0.8,0.9c0.9,0.9,1.9,1.8,2.9,2.5c0.6,0.5,1.1,0.9,1.7,1.4c2.7,2.3,5.2,5.1,3.4,8.6&#10;&#9;&#9;c-0.1,0.3-0.3,0.6-0.5,0.9c-0.1,0.2-0.3,0.3-0.5,0.3L235.7,316.9z M236.8,316.2L236.8,316.2z M179.9,305.8&#10;&#9;&#9;c7.6,5.2,25.7,8.9,47.4,9.7c2.8,0.1,5.6,0.1,8.3,0.1h0.8c0.1-0.1,0.2-0.3,0.2-0.4l0,0c1.4-2.7-0.7-5-3.1-7.1&#10;&#9;&#9;c-0.6-0.5-1.1-0.9-1.7-1.4c-1.1-0.8-2.1-1.7-3.1-2.7l-0.8-0.9c-1.9-2.2-3.9-4.4-6.5-4.5h-0.1c-1.9,0-3.7,1.2-5.4,2.4&#10;&#9;&#9;c-0.4,0.3-0.8,0.5-1.1,0.8c-0.5,0.3-1,0.6-1.5,0.7c-1.9,0.3-3-1.4-4-2.8c-0.2-0.3-0.4-0.5-0.5-0.8c-1-1.3-2.5-2.1-4.1-2.1&#10;&#9;&#9;c-1.1-0.1-2.1,0.4-2.8,1.2c-0.1,0.1-0.2,0.3-0.3,0.4c-0.3,0.6-0.8,1-1.4,1.3c-1.2,0.5-2.6-0.4-3.5-2.4c-0.6-1.6-1.7-3.1-3-4.2&#10;&#9;&#9;c-1.2-0.9-3.2-1-4.1,0.2c-0.2,0.3-0.4,0.6-0.5,0.9c-0.4,0.8-0.9,1.7-1.9,1.9c-1.3,0.3-2.3-0.8-3-1.6l-0.1-0.1&#10;&#9;&#9;c-0.2-0.2-0.3-0.4-0.5-0.6c-1-1-2.4-1.6-3.8-1.7l0,0c-1.6,0-3,1-3.5,2.5c-0.1,1,0,1.9,0.4,2.8c0.1,0.4,0.3,0.8,0.4,1.2&#10;&#9;&#9;C177.8,301.2,178.8,303.5,179.9,305.8L179.9,305.8z"/>
	<path class="st2_eating-salad-93 targetColor" d="M284.1,306.9c-0.4,1.4-1.2,2.7-2.2,3.8c-7.6,2.2-15.4,3.7-23.2,4.4c-7.3,0.8-14.6,1.1-21.9,1.2h-1.1&#10;&#9;&#9;c-2.8,0-5.6,0-8.4-0.1c1-1.1,2-2.2,2.9-3.4c1.1-1.5,2.1-4,3.8-5.1c0.6-0.4,1.4-0.5,2.1-0.4c1.7,0.2,3.5,1.7,4.8,0.2&#10;&#9;&#9;c0.6-0.8,1-1.8,1.1-2.8c0.9-3.4,4.8-13.2,9.8-9.5c2,1.5,2,5.2,4.7,5.6c1.9,0.3,3.8-2,5.8-0.9c1.2,0.6,1.4,2.3,2.4,3.2&#10;&#9;&#9;c0.6,0.5,1.4,0.7,2.1,0.8c1.3,0.1,2.7,0,3.9-0.5c2.2-0.8,4.2-2.5,6.5-2.9C281.2,299.7,285.3,302.8,284.1,306.9z" style="fill: rgb(76, 99, 124);"/>
	<path class="st1_eating-salad-93" d="M235.7,316.9c-2.8,0-5.6,0-8.4-0.1c-0.3,0-0.6-0.3-0.6-0.7c0-0.1,0.1-0.3,0.2-0.4c1-1.1,1.9-2.2,2.8-3.4&#10;&#9;&#9;c0.4-0.5,0.7-1.1,1-1.6c0.7-1.4,1.7-2.7,3-3.6c0.7-0.4,1.6-0.6,2.5-0.5c0.6,0.1,1.2,0.2,1.7,0.5c1.2,0.4,2,0.6,2.6,0&#10;&#9;&#9;c0.5-0.7,0.8-1.5,1-2.4c0.1-0.2,2.6-9.2,7-10.7c1.3-0.4,2.8-0.2,3.8,0.7c0.9,0.8,1.6,1.8,2,2.9c0.6,1.3,1.2,2.5,2.4,2.7&#10;&#9;&#9;c0.8,0,1.5-0.2,2.2-0.5c1.1-0.5,2.4-1,3.8-0.3c0.7,0.5,1.3,1.2,1.6,2c0.2,0.5,0.5,0.9,0.9,1.3c0.5,0.4,1.1,0.6,1.8,0.6&#10;&#9;&#9;c1.2,0.1,2.5,0,3.6-0.4c0.9-0.3,1.8-0.8,2.6-1.3c1.2-0.8,2.6-1.3,4-1.7c2.3-0.4,4.7,0.4,6.4,2.1c1.3,1.4,1.8,3.4,1.2,5.2l0,0&#10;&#9;&#9;c-0.5,1.5-1.3,2.9-2.4,4c-0.1,0.1-0.2,0.1-0.3,0.2c-7.6,2.2-15.4,3.7-23.3,4.4c-7.3,0.8-14.6,1.2-21.9,1.2L235.7,316.9z&#10;&#9;&#9; M228.7,315.5c2.3,0.1,4.7,0.1,7,0.1h1.1c7.3,0,14.6-0.4,21.8-1.2c7.8-0.7,15.4-2.2,22.9-4.3c0.9-0.9,1.6-2.1,2-3.4&#10;&#9;&#9;c0.4-1.4,0.1-2.9-0.9-4c-1.4-1.4-3.3-2-5.2-1.7c-1.3,0.3-2.5,0.8-3.6,1.5c-0.9,0.5-1.8,1-2.8,1.3c-1.3,0.5-2.8,0.6-4.2,0.5&#10;&#9;&#9;c-0.9,0-1.8-0.4-2.5-0.9c-0.5-0.5-0.9-1-1.2-1.7c-0.2-0.6-0.6-1.1-1.1-1.5c-0.8-0.5-1.7-0.1-2.7,0.4c-0.9,0.5-1.9,0.7-2.9,0.6&#10;&#9;&#9;c-1.9-0.3-2.6-1.9-3.3-3.3c-0.3-0.9-0.9-1.7-1.6-2.4c-0.7-0.6-1.7-0.8-2.7-0.5c-2.8,1-5.2,6.5-6.1,9.8c-0.2,1.1-0.6,2.1-1.3,3&#10;&#9;&#9;c-1.2,1.4-2.7,0.8-3.9,0.4c-0.5-0.2-1-0.3-1.4-0.4c-0.6-0.1-1.2,0.1-1.7,0.4c-1.1,0.8-2,1.9-2.5,3.2c-0.3,0.6-0.7,1.2-1.1,1.7&#10;&#9;&#9;C230.1,313.9,229.4,314.6,228.7,315.5L228.7,315.5z M284.1,306.9L284.1,306.9z"/>
	<path class="st2_eating-salad-93 targetColor" d="M300.8,291.1c-1.6,3.2-3.4,6.3-5.5,9.2c-1.5,1.9-3.1,3.7-4.8,5.4c-0.6,0.7-1.2,1.4-1.6,2.2l-0.5,0.2&#10;&#9;&#9;c-2.1,1-4.3,1.8-6.6,2.5c-7.6,2.2-15.4,3.7-23.2,4.4c-4.7,0.5-9.8,0.9-15,1c4-5,12.6-9.4,14.9-13.7c0.8-1.4,1.3-2.9,2.1-4.2&#10;&#9;&#9;c0.8-1.4,2.1-2.4,3.7-2.7c1.2-0.1,2.3,0.3,3.5,0c2-0.4,3.3-2.6,5.4-2.8c1.8-0.2,3.4,1.3,5.1,1c1.4-0.2,2.3-1.4,3.3-2.4l0.1-0.1&#10;&#9;&#9;c1-1,2.5-2,3.8-1.3c0.7,0.4,1.1,1.2,1.8,1.6c1.8,1.1,4-0.6,5.2-2.4c1-1.6,2.1-3.9,4.2-4.2c1.4-0.2,4,0.7,4.7,1.9&#10;&#9;&#9;S301.5,289.8,300.8,291.1z" style="fill: rgb(76, 99, 124);"/>
	<path class="st1_eating-salad-93" d="M243.7,316.8c-0.3,0-0.6-0.3-0.6-0.6c0-0.1,0-0.2,0.1-0.4c2.3-2.5,4.8-4.8,7.6-6.8c3.1-2.4,6-4.6,7.2-6.8&#10;&#9;&#9;c0.3-0.6,0.6-1.1,0.8-1.7c0.4-0.9,0.8-1.7,1.3-2.5c0.9-1.6,2.4-2.6,4.1-3c0.6-0.1,1.2-0.1,1.8,0c0.6,0.1,1.1,0.1,1.7,0&#10;&#9;&#9;c0.8-0.2,1.6-0.7,2.3-1.3c0.9-0.8,2-1.3,3.1-1.5c0.9,0,1.9,0.2,2.8,0.5c1.7,1,3.8,0.5,4.8-1.2c0-0.1,0.1-0.1,0.1-0.2l0.5-0.5&#10;&#9;&#9;c1.2-1.2,3-2.2,4.6-1.4c0.4,0.3,0.8,0.6,1.2,1c0.2,0.3,0.5,0.5,0.7,0.7c0.4,0.3,0.9,0.3,1.4,0.2c1.3-0.4,2.3-1.3,3-2.4l0.4-0.7&#10;&#9;&#9;c0.9-1.5,2.1-3.5,4.2-3.8c1.5-0.2,4.5,0.7,5.3,2.3s0.1,3.3-0.7,4.9c-1.6,3.2-3.5,6.3-5.5,9.3c-1.1,1.5-2.2,2.8-3.5,4.1&#10;&#9;&#9;c-0.4,0.4-0.9,0.9-1.3,1.4c-0.6,0.6-1.1,1.4-1.6,2.1c-0.1,0.1-0.1,0.2-0.2,0.2l-0.5,0.2c-2.2,1-4.4,1.9-6.7,2.6&#10;&#9;&#9;c-7.6,2.2-15.4,3.7-23.3,4.4C253.9,316.2,248.9,316.6,243.7,316.8L243.7,316.8z M265,296.1c-0.2,0-0.3,0-0.5,0&#10;&#9;&#9;c-1.4,0.3-2.5,1.2-3.2,2.4c-0.5,0.8-0.9,1.6-1.2,2.4c-0.3,0.6-0.6,1.2-0.9,1.8c-1.3,2.4-4.4,4.7-7.6,7.2c-2.3,1.7-4.5,3.5-6.5,5.5&#10;&#9;&#9;c4.6-0.2,9.2-0.5,13.5-1c7.8-0.7,15.5-2.2,23.1-4.4c2.2-0.7,4.4-1.5,6.5-2.5l0.3-0.1c0.5-0.8,1-1.5,1.6-2.1l1.3-1.4&#10;&#9;&#9;c1.3-1.2,2.4-2.5,3.4-3.9c2-2.9,3.8-6,5.4-9.2l0,0c0.6-1.2,1.2-2.6,0.7-3.7s-2.8-1.8-4-1.6c-1.5,0.2-2.5,1.8-3.3,3.2l-0.4,0.7&#10;&#9;&#9;c-0.9,1.4-2.2,2.5-3.8,2.9c-0.8,0.2-1.6,0-2.3-0.4c-0.4-0.2-0.7-0.5-1-0.9c-0.2-0.3-0.5-0.5-0.8-0.7c-1-0.5-2.3,0.3-3.1,1.2&#10;&#9;&#9;l-0.1,0.1l-0.3,0.3c-0.8,1.1-2,1.9-3.3,2.3c-1,0.1-2-0.1-3-0.5c-0.7-0.3-1.5-0.5-2.2-0.5c-0.9,0.2-1.8,0.6-2.5,1.3&#10;&#9;&#9;c-1.3,1.3-3.1,1.8-4.8,1.5C265.6,296.1,265.3,296.1,265,296.1z M289,307.9L289,307.9z"/>
	<path class="st0_eating-salad-93" d="M238.3,289.8c-1.1,0.1-2,0.8-2.5,1.8c-0.1,0.2-0.2,0.3-0.3,0.5c-0.3,0.4-0.9,0.3-1.4,0.4&#10;&#9;&#9;c-0.9,0.3-1.7,0.7-2.4,1.4c-0.9,0.7-1.8,1.2-2.9,1.5c1.3,0.2,2.5,0,3.6-0.7c0.3-0.1,0.5-0.2,0.8-0.3c0.2,0,0.4,0,0.6,0&#10;&#9;&#9;c0.5-0.1,1-0.4,1.4-0.8c0.8-0.8,1.8-1.3,2.9-1.4c1.1-0.1,2.1,0.8,2.3,1.9c-1,0.3-0.6,2.1-1.6,2.5c-0.2,0.1-0.5,0.1-0.7,0.1&#10;&#9;&#9;c-1.2,0-2.4,0.3-3.4,0.9c2.8,0,5.9-0.2,8-2.1c0.7-0.5,1.1-1.4,0.9-2.3C243.1,291.8,239.9,289.6,238.3,289.8z"/>
	<path class="st1_eating-salad-93" d="M259.3,313.2c-0.3,0-0.6-0.3-0.6-0.7c0-0.3,0.2-0.5,0.4-0.6c0.1,0,6.6-2,9.9-11.7c0.1-0.3,0.5-0.5,0.8-0.4&#10;&#9;&#9;c0.3,0.1,0.5,0.5,0.4,0.8c-3.5,10.5-10.5,12.5-10.8,12.5L259.3,313.2z"/>
	<path class="st1_eating-salad-93" d="M281.5,306.3c-0.2,0-0.4-0.1-0.5-0.3c-0.2-0.3-0.1-0.7,0.1-0.9c0,0,0,0,0,0c3.9-2.9,7.6-5.9,11.2-9.2&#10;&#9;&#9;c0.2-0.3,0.6-0.3,0.9-0.1s0.3,0.6,0.1,0.9c0,0-0.1,0.1-0.1,0.1c-3.6,3.3-7.4,6.4-11.3,9.3C281.7,306.3,281.6,306.3,281.5,306.3z"/>
	<path class="st1_eating-salad-93" d="M200.1,313.5c-0.1,0-0.3-0.1-0.4-0.1c-4.6-4.2-8.7-8.9-12.1-14.1c-0.2-0.3-0.1-0.7,0.2-0.9&#10;&#9;&#9;c0.3-0.2,0.7-0.1,0.9,0.2c3.3,5.1,7.3,9.8,11.9,13.8c0.3,0.2,0.3,0.6,0.1,0.9c0,0,0,0,0,0C200.5,313.4,200.3,313.5,200.1,313.5z"/>
	<path class="st1_eating-salad-93" d="M218.3,311.3c-0.2,0-0.4-0.1-0.5-0.2c-2.4-2.8-1.4-4.3-1.3-4.5c0.2-0.3,0.6-0.3,0.9-0.1c0,0,0,0,0,0&#10;&#9;&#9;c0.3,0.2,0.3,0.6,0.2,0.8c0,0.1-0.4,1,1.2,2.9c0.2,0.3,0.2,0.7-0.1,0.9C218.6,311.2,218.5,311.3,218.3,311.3z"/>
	<path class="st2_eating-salad-93 targetColor" d="M231,284.7c0,0-4.7-7.8-3.7-11.7" style="fill: rgb(76, 99, 124);"/>
	<path class="st1_eating-salad-93" d="M231,285.3c-0.2,0-0.4-0.1-0.5-0.3c-0.2-0.3-4.8-8.1-3.8-12.1c0.1-0.3,0.4-0.5,0.8-0.5&#10;&#9;&#9;c0.3,0.1,0.5,0.4,0.5,0.8c-0.9,3.6,3.6,11.1,3.7,11.2c0.2,0.3,0.1,0.7-0.2,0.9C231.2,285.3,231.1,285.3,231,285.3z"/>
	<path class="st0_eating-salad-93" d="M282.1,282.7c1.1-0.2,2.2,0.1,3.1,0.8c0.5,0.6,1,1.5,1.8,1.3c0.2-0.1,0.4-0.2,0.5-0.3c1.5-1,3.6,0,5.2,1&#10;&#9;&#9;c-2.5,2.2-5.7,3.3-9,2.9l3.7-1.6l-5.9-2.6c-0.9-0.4-1.8-0.6-2.7-0.8C279.9,283,281,282.8,282.1,282.7z"/>
	<path class="st0_eating-salad-93" d="M229.3,281.1l-4.9-1c-0.5-0.1-1-0.2-1.4-0.4c-0.3-0.2-0.6-0.3-0.8-0.5c-1.6-1-4.8-1.8-6.3-0.5&#10;&#9;&#9;c1.1,1.1,3.4,1.8,4.9,2.1C222.5,281.1,227.9,282.1,229.3,281.1z"/>
</g>
<g id="Finger_eating-salad-93">
	<path class="st0_eating-salad-93" d="M195.3,358.2c0,0,29.3-21.2,31.2-17.8s-6.9,12.6-6.9,12.6s14.3,5.5,19.6,3.9s22.1-15.8,28.3-15&#10;&#9;&#9;s-2.4,13.6-12.9,18.6"/>
	<path class="st1_eating-salad-93" d="M254.6,361.4c-0.3,0-0.6-0.2-0.8-0.5c-0.2-0.4,0-0.9,0.4-1.1c8.4-4,15-12.8,14.5-16c-0.1-0.4-0.3-0.9-1.3-1.1&#10;&#9;&#9;c-3.5-0.4-11.4,4.8-17.7,8.9c-4.4,2.9-8.1,5.4-10.3,6c-5.6,1.6-19.6-3.7-20.2-3.9c-0.3-0.1-0.5-0.3-0.5-0.6c-0.1-0.3,0-0.6,0.2-0.8&#10;&#9;&#9;c3.5-3.6,7.9-9.7,6.8-11.6c-1.9-0.9-17.1,8.7-30,18.1c-0.4,0.3-0.9,0.2-1.2-0.2c-0.3-0.4-0.2-0.9,0.2-1.2&#10;&#9;&#9;c4.4-3.2,26.9-19.3,31.4-18.3c0.4,0.1,0.8,0.3,1.1,0.7c1.9,3.3-3.7,10-6.2,12.7c3.5,1.2,13.8,4.7,17.9,3.5c1.9-0.6,5.8-3.1,9.8-5.8&#10;&#9;&#9;c6.9-4.6,14.7-9.7,18.8-9.2c1.4,0.1,2.5,1.1,2.8,2.5c0.7,4.6-7.4,13.9-15.4,17.7C254.8,361.3,254.7,361.4,254.6,361.4z"/>
</g>
</svg>