<svg version="1.1" id="Layer_1" xmlns="http://www.w3.org/2000/svg" xmlns:xlink="http://www.w3.org/1999/xlink" x="0px" y="0px" viewBox="0 0 500 500" style="width: 188px;" xml:space="preserve" data-imageid="designer-1-21" imageName="Designer 1" class="illustrations_image">
<style type="text/css">
	.st0_designer-1-21{fill:#FFFFFF;}
	.st1_designer-1-21{fill:#231F20;}
	.st2_designer-1-21{fill:#D1D3D4;}
	.st3_designer-1-21{fill:#68E1FD;}
</style>
<g id="Paintings_designer-1-21">
	<polygon class="st0_designer-1-21" points="120.4,328.5 106,328.5 85.3,144.3 99.7,144.3 &#9;"/>
	<path class="st1_designer-1-21" d="M120.4,329.2H106c-0.4,0-0.6-0.3-0.7-0.6L84.6,144.4c0-0.2,0-0.4,0.2-0.5c0.1-0.1,0.3-0.2,0.5-0.2h14.4&#10;&#9;&#9;c0.4,0,0.7,0.3,0.7,0.6l20.6,184.2c0,0.2,0,0.4-0.2,0.5C120.8,329.2,120.6,329.3,120.4,329.2z M106.6,327.9h13L99.1,145h-13&#10;&#9;&#9;L106.6,327.9z"/>
	<polygon class="st0_designer-1-21" points="71.3,378 55,378 60.2,279.1 76.4,279.1 &#9;"/>
	<path class="st1_designer-1-21" d="M71.3,378.7H55c-0.2,0-0.4-0.1-0.5-0.2c-0.1-0.1-0.2-0.3-0.2-0.5l5.2-99c0-0.4,0.3-0.7,0.7-0.7h16.3&#10;&#9;&#9;c0.2,0,0.4,0.1,0.5,0.2c0.1,0.1,0.2,0.3,0.2,0.5l-5.1,99C72,378.4,71.7,378.7,71.3,378.7C71.3,378.7,71.3,378.7,71.3,378.7z&#10;&#9;&#9; M55.8,377.3h14.9l5.1-97.5H60.8L55.8,377.3z"/>
	<polygon class="st0_designer-1-21" points="166.2,378 182.4,378 155.1,279.1 138.8,279.1 &#9;"/>
	<path class="st1_designer-1-21" d="M182.4,378.7h-16.2c-0.3,0-0.6-0.2-0.7-0.5l-27.3-98.9c-0.1-0.2,0-0.4,0.1-0.6c0.1-0.2,0.3-0.3,0.6-0.3h16.3&#10;&#9;&#9;c0.3,0,0.6,0.2,0.7,0.5l27.4,98.9c0.1,0.2,0,0.4-0.1,0.6C182.9,378.6,182.6,378.7,182.4,378.7z M166.7,377.3h14.8l-26.9-97.5h-14.8&#10;&#9;&#9;L166.7,377.3z"/>
	<polygon class="st0_designer-1-21" points="183.6,325.1 42,325.1 23.4,159.5 165.1,159.5 &#9;"/>
	<path class="st1_designer-1-21" d="M183.6,325.8H42c-0.4,0-0.7-0.3-0.7-0.6L22.7,159.6c0-0.4,0.2-0.7,0.6-0.8c0,0,0,0,0.1,0h141.7&#10;&#9;&#9;c0.4,0,0.7,0.3,0.7,0.6L184.3,325c0,0.2,0,0.4-0.2,0.5C184,325.7,183.8,325.8,183.6,325.8z M42.6,324.4h140.3l-18.4-164.2H24.2&#10;&#9;&#9;L42.6,324.4z"/>
	<polygon class="st0_designer-1-21" points="28.7,325.1 196.9,325.1 198.7,340.5 30.4,340.5 &#9;"/>
	<path class="st1_designer-1-21" d="M198.7,341.2H30.4c-0.4,0-0.7-0.3-0.7-0.6L28,325.2c0-0.2,0-0.4,0.2-0.5c0.1-0.1,0.3-0.2,0.5-0.2h168.2&#10;&#9;&#9;c0.4,0,0.7,0.3,0.7,0.6l1.7,15.3c0,0.2,0,0.4-0.2,0.5C199,341.1,198.9,341.2,198.7,341.2z M31,339.8h166.9l-1.6-13.9H29.4L31,339.8&#10;&#9;&#9;z"/>
	<path class="st2_designer-1-21" d="M163.6,249.9h-120c-0.4,0-0.7-0.3-0.7-0.6l-7.7-72.5c0-0.4,0.2-0.7,0.6-0.8c0,0,0.1,0,0.1,0h120&#10;&#9;&#9;c0.4,0,0.7,0.3,0.7,0.6l7.7,72.5c0,0.2,0,0.4-0.2,0.5C164,249.8,163.8,249.9,163.6,249.9z M44.2,248.5h118.6l-7.5-71.1H36.7&#10;&#9;&#9;L44.2,248.5z"/>
	<path class="st2_designer-1-21" d="M114.7,233.3c-0.2,0-0.3-0.1-0.4-0.2l-40-32.1l-32,32.1c-0.3,0.3-0.7,0.3-1,0s-0.3-0.7,0-1l32.4-32.5&#10;&#9;&#9;c0.3-0.2,0.7-0.2,0.9,0l40.5,32.4c0.3,0.2,0.4,0.7,0.1,1C115.1,233.2,114.9,233.3,114.7,233.3L114.7,233.3z"/>
	<path class="st2_designer-1-21" d="M161.8,233.3c-0.2,0-0.4-0.1-0.5-0.2l-31.1-31.9l-20.6,27.3c-0.2,0.3-0.7,0.4-1,0.2c0,0,0,0,0,0&#10;&#9;&#9;c-0.3-0.2-0.4-0.7-0.2-1c0,0,0,0,0,0l21.1-28c0.1-0.2,0.3-0.3,0.5-0.3c0.2,0,0.4,0.1,0.5,0.2l31.6,32.5c0.3,0.3,0.3,0.7,0,1&#10;&#9;&#9;c0,0,0,0,0,0C162.2,233.2,162,233.3,161.8,233.3z"/>
	<path class="st2_designer-1-21" d="M116.6,314.4H50.4c-0.4,0-0.7-0.3-0.7-0.6l-5.4-51.1c0-0.2,0-0.4,0.2-0.5c0.1-0.1,0.3-0.2,0.5-0.2h66.2&#10;&#9;&#9;c0.4,0,0.7,0.3,0.7,0.6l5.4,51.1c0,0.2,0,0.4-0.2,0.5C117,314.3,116.8,314.4,116.6,314.4z M51,313h64.8l-5.3-49.8H45.8L51,313z"/>
	<path class="st2_designer-1-21" d="M165.4,266.5h-44.7c-0.4,0-0.7-0.3-0.7-0.7c0-0.4,0.3-0.7,0.7-0.7c0,0,0,0,0,0h44.7c0.4,0,0.7,0.3,0.7,0.7&#10;&#9;&#9;C166,266.2,165.7,266.5,165.4,266.5z"/>
	<path class="st2_designer-1-21" d="M166.9,281.2h-44.7c-0.4,0-0.7-0.3-0.7-0.7c0-0.4,0.3-0.7,0.7-0.7h44.7c0.4,0,0.7,0.3,0.7,0.7&#10;&#9;&#9;C167.6,280.9,167.3,281.2,166.9,281.2z"/>
	<path class="st2_designer-1-21" d="M168.5,296h-44.7c-0.4,0-0.7-0.3-0.7-0.7c0-0.4,0.3-0.7,0.7-0.7h44.7c0.4,0,0.7,0.3,0.7,0.7&#10;&#9;&#9;C169.2,295.7,168.9,296,168.5,296z"/>
	<path class="st2_designer-1-21" d="M157.2,310.7h-31.9c-0.4,0-0.7-0.3-0.7-0.7c0-0.4,0.3-0.7,0.7-0.7h31.9c0.4,0,0.7,0.3,0.7,0.7&#10;&#9;&#9;C157.9,310.4,157.6,310.7,157.2,310.7z"/>
	<path class="st2_designer-1-21" d="M50.4,314.4c-0.4,0-0.7-0.3-0.7-0.7c0-0.2,0.1-0.4,0.2-0.5l60.8-51.2c0.3-0.3,0.7-0.2,1,0.1c0,0,0,0,0,0&#10;&#9;&#9;c0.3,0.3,0.2,0.7-0.1,1c0,0,0,0,0,0l-60.8,51.1C50.7,314.3,50.6,314.4,50.4,314.4z"/>
	<path class="st2_designer-1-21" d="M116.6,314.4c-0.1,0-0.3,0-0.4-0.1l-71.6-51.2c-0.3-0.2-0.4-0.6-0.2-1c0,0,0,0,0,0c0.2-0.3,0.7-0.4,1-0.2&#10;&#9;&#9;c0,0,0,0,0,0l71.6,51.2c0.3,0.2,0.4,0.7,0.2,1c0,0,0,0,0,0C117,314.3,116.8,314.4,116.6,314.4z"/>
	<path class="st3_designer-1-21 targetColor" d="M112.9,206c0.5,1.4,0.4,2.9-0.2,4.3c-1.4,2.9-4.3,4.7-7.4,4.6c-4.3,0-7.3-2.4-9.1-6.2c-2-4.3-0.3-8.6,3.9-11.2&#10;&#9;&#9;c0.4-0.2,0.7-0.5,1.1-0.7c0.4-0.3,0.7-0.6,1-1c1-1.1,2-2.2,3.1-3.1c1.2,2,0,4.9,1.3,6.8c0.2,0.3,0.6,0.6,0.8,0.4&#10;&#9;&#9;c0-0.7,0.9-1,1.5-0.8c0.6,0.3,1.1,0.8,1.3,1.4C111.4,202.2,112.2,204.1,112.9,206z" style="fill: rgb(76, 99, 124);"/>
</g>
<g id="Character_designer-1-21">
	<path class="st0_designer-1-21" d="M353.6,121.2c-0.7,0.9-1.3,1.8-1.9,2.8c-7.2,10.9-11,23.6-16.6,35.3c-5.5,11.7-12.3,22.8-20.3,33.1&#10;&#9;&#9;c-9.5,11.9-21.6,21.5-32.1,32.6s-19.7,24.3-21.5,39.5c-2.2,19.5,8.7,38.8,24.4,50.7s35.3,17.1,54.8,19.6&#10;&#9;&#9;c34.7,4.4,72.9-0.5,98.7-24.1c11.6-10.6,18.7-23.8,25.8-37.6c6.6-12.8,11.5-23.3,9.1-38.3c-1.9-11.9-7.1-23.1-12.7-33.8&#10;&#9;&#9;s-11.7-21.3-15.6-32.7c-3.4-9.9-2.8-19.6-4.9-29.4c-1.8-8.5-8.3-15.7-14.6-21.4c-5.2-4.6-10.9-8.8-17.4-11.3&#10;&#9;&#9;c-9.9-3.8-22.4-4.2-32.8-2.4C366.9,105.3,359,113.8,353.6,121.2z"/>
	<path class="st1_designer-1-21" d="M363.4,336.9c-7.8,0-15.5-0.5-23.2-1.5c-23.5-3-41.5-9.5-55.1-19.7c-17.1-12.9-26.8-33-24.7-51.3&#10;&#9;&#9;c1.5-13.1,8.6-26.1,21.6-39.9c4.1-4.3,8.4-8.4,12.6-12.4c6.7-6.3,13.6-12.9,19.4-20.1c9.1-11.4,16-24.2,20.2-32.9&#10;&#9;&#9;c2-4.1,3.7-8.3,5.4-12.4c3.2-7.8,6.5-15.8,11.3-23c0.6-0.9,1.3-1.9,2-2.8l0,0c7.8-10.5,15.5-16.5,23-17.8c11.6-2,24-1.1,33.2,2.5&#10;&#9;&#9;c5.7,2.2,11.3,5.9,17.6,11.5c8.6,7.7,13.3,14.5,14.8,21.7c0.8,3.9,1.3,7.9,1.6,11.9c0.6,5.7,1.2,11.6,3.2,17.5&#10;&#9;&#9;c3.2,9.3,7.9,18.2,12.5,26.9c1,1.9,2,3.8,3,5.8c5.5,10.5,10.8,21.9,12.7,34c2.4,14.9-2.3,25.5-9.2,38.7&#10;&#9;&#9;c-7.5,14.5-14.7,27.3-26,37.7S404.5,336.9,363.4,336.9z M354.1,121.6c-0.7,0.9-1.3,1.8-1.9,2.8c-4.7,7.1-8,15-11.1,22.8&#10;&#9;&#9;c-1.7,4.1-3.5,8.4-5.4,12.5c-4.2,8.8-11.2,21.7-20.4,33.2c-5.9,7.3-12.8,13.9-19.5,20.3c-4.2,4-8.5,8.1-12.6,12.4&#10;&#9;&#9;c-12.9,13.6-19.8,26.3-21.3,39.1c-2,17.8,7.4,37.4,24.1,50c13.4,10.2,31.2,16.5,54.4,19.5c55.1,7,85.1-12,98.2-23.9&#10;&#9;&#9;c11.1-10.2,18.2-23,25.7-37.4c6.7-13,11.3-23.3,9-37.9c-1.9-11.9-7.2-23.2-12.6-33.6c-1-1.9-2-3.8-3-5.8&#10;&#9;&#9;c-4.6-8.7-9.4-17.6-12.6-27.1c-2-6-2.7-12-3.3-17.8c-0.3-3.9-0.9-7.8-1.6-11.7c-1.5-6.9-6-13.5-14.4-21&#10;&#9;&#9;c-6.2-5.5-11.6-9.1-17.2-11.2c-8.9-3.4-21.1-4.3-32.4-2.4C369.1,105.6,361.7,111.3,354.1,121.6L354.1,121.6z"/>
	<path class="st3_designer-1-21 targetColor" d="M315.7,222.2c-28.8,17.2-52.4,90.7-63,129.2c-0.8,2.9,12.2,4.1,11.6,6.5c-2.6,9.7,3.6,13.7,3.6,13.7l171.6,5.3&#10;&#9;&#9;c0,0,35.8-137,19.2-154.3S332.4,212.3,315.7,222.2z" style="fill: rgb(76, 99, 124);"/>
	<path class="st1_designer-1-21" d="M282.9,345.5c-0.1,0-0.2,0-0.3-0.1c-0.3-0.2-0.5-0.6-0.3-1c0.9-1.6,6.8-14.2,14.2-30.2&#10;&#9;&#9;c27-58.1,35.2-75.1,36.5-75.7c0.3-0.2,0.8,0,0.9,0.3c0.2,0.3,0.1,0.7-0.2,0.9c-2,2.1-22.4,46-35.9,75.1&#10;&#9;&#9;c-7.4,16-13.3,28.6-14.2,30.3C283.4,345.4,283.2,345.5,282.9,345.5z"/>
	<path class="st1_designer-1-21" d="M357.9,208.5c-1.4,0.5-2.8,1-4.2,1.6c-2.2,0.9-4.6,2-5.6,4.2c-0.5,1.6-0.6,3.2-0.3,4.9&#10;&#9;&#9;c1.2,10,3.3,19.8,6.3,29.3c1.7,5.2,4,16.6,10.7,18c13.5,2.8,27-7.2,37.5-14.4c11.2-7.6,21.4-16.5,30.5-26.5&#10;&#9;&#9;c4.6-5.1,9.1-12.2,6-18.2c-3-5.7-10.7-6.4-17.1-6.3C400.2,201.2,378.2,201.6,357.9,208.5z"/>
	<path class="st1_designer-1-21" d="M369.6,267.7c-1.7,0-3.3-0.2-4.9-0.5c-6.2-1.3-8.8-10.2-10.5-16.1c-0.3-0.9-0.5-1.7-0.7-2.4&#10;&#9;&#9;c-3.1-9.6-5.2-19.5-6.4-29.4c-0.3-1.7-0.2-3.5,0.4-5.2c1-2.4,3.5-3.6,6-4.6c1.4-0.5,2.8-1.1,4.3-1.6l0,0c21-7.1,43.8-7.4,63.9-7.5&#10;&#9;&#9;c6.6-0.1,14.6,0.6,17.8,6.7c3.4,6.5-1.4,13.9-6.1,19c-9.1,10-19.4,19-30.6,26.6l-2,1.4C391.7,260.2,380.8,267.7,369.6,267.7z&#10;&#9;&#9; M422.4,201.7h-0.7c-20,0.2-42.7,0.4-63.5,7.5l0,0c-1.4,0.5-2.8,1-4.2,1.5c-2.2,0.9-4.4,1.9-5.2,3.9c-0.5,1.4-0.6,3-0.3,4.5&#10;&#9;&#9;c1.1,9.9,3.3,19.7,6.3,29.2c0.2,0.7,0.5,1.5,0.7,2.4c1.6,5.6,4.1,14,9.5,15.1c12.4,2.6,24.9-6,34.9-12.9l2-1.4&#10;&#9;&#9;c11.1-7.6,21.3-16.4,30.4-26.4c4.3-4.8,8.9-11.7,5.9-17.4C435.5,202.5,428.4,201.7,422.4,201.7L422.4,201.7z M357.9,208.5&#10;&#9;&#9;L357.9,208.5z"/>
	<path class="st0_designer-1-21" d="M367.6,193.5l-5.9,25.9c0,0,5.4,17.4,23,15.9s25.8-15.3,25.8-15.3l7.1-47.7c0,0-11.5-8.7-3.6-35.3&#10;&#9;&#9;c0,0-20.2,6.4-44.9-0.7c0,0-12.2,28.3-12.2,41.7S367.6,193.5,367.6,193.5z"/>
	<path class="st1_designer-1-21" d="M382.6,236.1c-16.2,0-21.5-16.3-21.6-16.5c0-0.1,0-0.2,0-0.4l5.8-25.3c-2.5-0.8-10.5-4.2-10.5-16&#10;&#9;&#9;c0-13.4,11.8-40.9,12.2-42c0.1-0.3,0.5-0.5,0.8-0.4c24.1,6.9,44.2,0.7,44.5,0.7c0.4-0.1,0.8,0.1,0.9,0.5c0,0.1,0,0.3,0,0.4&#10;&#9;&#9;c-7.6,25.8,3.3,34.4,3.4,34.5c0.2,0.2,0.3,0.4,0.3,0.7l-7.1,47.7c0,0.1,0,0.2-0.1,0.2c-0.1,0.1-8.7,14.2-26.4,15.7&#10;&#9;&#9;C384,236.1,383.3,236.1,382.6,236.1z M362.4,219.4c0.6,1.9,6.1,16.6,22.2,15.3s24.4-13.6,25.2-14.9l7.1-47.2&#10;&#9;&#9;c-1.9-1.7-10.5-10.9-3.9-34.5c-14.3,3.4-29.3,3.1-43.4-0.8c-1.7,4.1-11.9,28.8-11.9,40.9c0,12.7,10,14.8,10.1,14.8&#10;&#9;&#9;c0.2,0,0.3,0.2,0.5,0.3c0.1,0.2,0.1,0.4,0.1,0.5L362.4,219.4z"/>
	<path class="st0_designer-1-21" d="M411.5,170.1c0.9-2.2,2.6-4.1,4.6-5.3c2-1,4.2-1.7,6.4-2.1c1.2-0.3,2.4-0.3,3.7-0.1c0.8,0.3,1.6,0.7,2.3,1.2&#10;&#9;&#9;c1.7,1.2,2.9,2.9,3.4,4.9c0.2,1.6,0,3.3-0.5,4.9c-0.5,1.7-1.2,3.4-2.1,4.9c-4,6.3-12.3,8.3-18.7,4.3c0,0-0.1-0.1-0.1-0.1"/>
	<path class="st1_designer-1-21" d="M417.8,185.7c-2.7,0-5.4-0.8-7.7-2.2c-0.3-0.2-0.4-0.6-0.2-1s0.6-0.4,1-0.2c6,3.8,13.9,2.1,17.7-3.9&#10;&#9;&#9;c0,0,0.1-0.1,0.1-0.1c0.9-1.5,1.5-3.1,2-4.8c0.5-1.4,0.7-3,0.5-4.5c-0.5-1.8-1.6-3.4-3.2-4.5c-0.6-0.5-1.3-0.9-2-1.1&#10;&#9;&#9;c-1.1-0.2-2.3-0.2-3.4,0.1c-2.2,0.3-4.2,1-6.2,2c-2,1.2-3.5,2.9-4.4,5c-0.2,0.4-0.6,0.5-0.9,0.4c-0.4-0.1-0.5-0.5-0.4-0.9&#10;&#9;&#9;c0,0,0,0,0,0c1-2.4,2.7-4.4,5-5.7c2.1-1.1,4.3-1.8,6.6-2.1c1.3-0.3,2.7-0.4,4-0.1c0.9,0.3,1.8,0.8,2.5,1.4c1.8,1.3,3.1,3.2,3.7,5.3&#10;&#9;&#9;c0.2,1.8,0.1,3.5-0.5,5.2c-0.5,1.8-1.2,3.5-2.2,5.1c-2,3.2-5.3,5.5-9,6.4C419.9,185.6,418.9,185.7,417.8,185.7z"/>
	<path class="st1_designer-1-21" d="M381.8,171.6c-1.9,0-6.1-0.3-7.6-2.6c-1.8-2.9,7-12.2,9.8-15c0.3-0.3,0.7-0.3,1,0c0,0,0,0,0,0&#10;&#9;&#9;c0.3,0.3,0.3,0.7,0,1c-5.3,5.3-10.4,12-9.6,13.3c1.2,1.9,5.6,2.1,7.2,2c0.4-0.1,0.7,0.2,0.8,0.6s-0.2,0.7-0.6,0.8c0,0-0.1,0-0.1,0&#10;&#9;&#9;C382.6,171.6,382.3,171.6,381.8,171.6z"/>
	<path class="st1_designer-1-21" d="M403.2,311.8c-0.1,0-0.1,0-0.2,0c-0.4-0.1-0.6-0.5-0.5-0.8c0,0,0,0,0,0c0.1-0.5,10.8-45.5,26.9-76.1&#10;&#9;&#9;c0.2-0.3,0.6-0.5,0.9-0.3c0,0,0,0,0,0c0.3,0.2,0.5,0.6,0.3,0.9c0,0,0,0,0,0c-16,30.5-26.7,75.4-26.8,75.8&#10;&#9;&#9;C403.8,311.6,403.5,311.8,403.2,311.8z"/>
	<path class="st1_designer-1-21" d="M379.7,186.5h-0.5c-2.8,0-5.4-1.1-7.3-3.2c-3.9-4.2-3.5-11.1-3.5-11.4c0-0.4,0.4-0.7,0.7-0.7&#10;&#9;&#9;c0.4,0,0.7,0.4,0.7,0.7c0,0.1-0.4,6.6,3.1,10.4c1.6,1.7,3.9,2.7,6.4,2.7h0.4c9.9,0,12.9-11.2,13.1-11.7c0.1-0.4,0.5-0.6,0.9-0.5&#10;&#9;&#9;c0.4,0.1,0.6,0.5,0.5,0.9l0,0C394.1,173.9,390.8,186.5,379.7,186.5z"/>
	<path class="st1_designer-1-21" d="M367.6,193.5c0,0,15.8,4.7,28.9-5.2c0,0-11.9,24.1-32.4,20.7L367.6,193.5z"/>
	<path class="st1_designer-1-21" d="M368,210.1c-1.3,0-2.7-0.1-4-0.3c-0.2,0-0.4-0.1-0.5-0.3c-0.1-0.2-0.2-0.4-0.1-0.6l3.5-15.5&#10;&#9;&#9;c0-0.2,0.2-0.3,0.3-0.4c0.2-0.1,0.4-0.1,0.5-0.1c0.2,0,15.6,4.5,28.3-5.1c0.3-0.2,0.6-0.2,0.9,0c0.2,0.2,0.3,0.6,0.2,0.9&#10;&#9;&#9;C397,188.9,386.3,210.1,368,210.1z M364.9,208.5c15.3,2.1,25.8-11.9,29.5-17.9c-11,6.7-23.2,4.5-26.3,3.8L364.9,208.5z"/>
	<path class="st0_designer-1-21" d="M243.6,247c-0.6-1.1-11.9-46.3-13.1-49.6c-3-8.2-36.3-19-41.1-17.1s-20.2,33.4-12,34.8c4,0.7,5.6-3,5.6-3&#10;&#9;&#9;s-5.7,9.1-0.4,11.3s8.5-3.4,8.5-3.4s-3.7,6.8,1.1,6.6c2.6-0.1,3.6-2.6,5.5-4.1c-1,1.4-1.8,5.5,1,6.4s4.3-3.9,6.1-6.9&#10;&#9;&#9;c3.5,20.7,8.7,76.2,22.8,125.8c4.6,16.3,23,23.5,36.7,10.2c18.1-17.4,1.1-46.5-5.4-65.8L243.6,247z"/>
	<path class="st1_designer-1-21" d="M248.4,365.5c-1.8,0-3.6-0.2-5.3-0.7c-7.8-2.1-13.8-8.4-16.2-16.9c-10.8-38-16.3-79-20-106.2&#10;&#9;&#9;c-0.9-6.9-1.8-13-2.5-17.7c-0.1,0.1-0.1,0.2-0.2,0.4c-1.5,2.8-3.1,5.9-5.8,5.1c-1-0.3-1.8-1.1-2.1-2.2c-0.2-0.7-0.3-1.4-0.2-2.1&#10;&#9;&#9;c-0.9,1.2-2.3,2-3.8,2.1c-1.1,0.2-2.1-0.3-2.7-1.2c-0.5-0.9-0.6-2-0.3-3c-1.9,1.6-4.6,2-6.9,1c-1.2-0.4-2.1-1.4-2.4-2.6&#10;&#9;&#9;c-0.6-1.8,0-4.2,0.7-6.1c-1.1,0.5-2.2,0.6-3.4,0.4c-1.2-0.2-2.6-1-2.9-3.8c-0.4-3.8,1.6-10.8,5.4-18.7c2.9-6.1,6.9-12.7,9.4-13.6&#10;&#9;&#9;c3.5-1.4,17.9,2.8,27.9,7.3c5.6,2.5,12.7,6.4,14.1,10.2c0.7,1.8,4.1,15.3,7.5,28.3c2.6,10.1,5.3,20.6,5.6,21.3c0,0,0,0,0,0.1&#10;&#9;&#9;l15.3,45.1c1.1,3.4,2.6,7.1,4.2,11c7.2,18.2,16.3,40.8,1.1,55.5C259.9,363.1,254.1,365.5,248.4,365.5z M204.7,221.3h0.1&#10;&#9;&#9;c0.3,0.1,0.5,0.3,0.6,0.6c0.8,4.8,1.7,11.7,2.8,19.7c3.6,27.1,9.2,68.1,19.9,106c2.3,8,8,14,15.3,16c7,1.9,14.4-0.4,20.3-6.1&#10;&#9;&#9;c14.5-14,5.7-36.2-1.4-54c-1.6-3.9-3-7.6-4.2-11l-15.3-45.1c-0.4-0.9-2-7.4-5.6-21.4c-3.2-12.4-6.8-26.4-7.4-28.1&#10;&#9;&#9;c-1-2.6-5.7-6-13.4-9.4c-11.2-5-24.3-8.2-26.8-7.3c-3.8,1.5-14.7,22.9-13.9,30.9c0.2,2.3,1.4,2.5,1.7,2.5c1.8,0.3,3.6-0.5,4.5-2&#10;&#9;&#9;c0.2-0.4,0.4-0.6,0.4-0.7c0.2-0.3,0.6-0.4,1-0.2c0.3,0.2,0.4,0.6,0.3,0.9c-0.1,0.3-0.3,0.6-0.5,0.8c-0.9,1.6-2.8,5.4-2,7.9&#10;&#9;&#9;c0.2,0.8,0.9,1.4,1.6,1.7c4.7,1.9,7.5-2.9,7.7-3.1c0.2-0.3,0.6-0.5,0.9-0.3s0.5,0.6,0.3,0.9c0,0,0,0.1,0,0.1&#10;&#9;&#9;c-0.8,1.4-1.7,4-1.1,5.1c0.1,0.1,0.4,0.6,1.5,0.5c1.5-0.1,2.4-1.1,3.4-2.3c0.5-0.6,1.1-1.2,1.6-1.7c0.3-0.3,0.7-0.3,1,0&#10;&#9;&#9;s0.3,0.7,0,1l0,0c-0.7,1.2-0.9,2.6-0.6,4c0.2,0.6,0.6,1.1,1.2,1.3c1.4,0.5,2.6-1.5,4.1-4.4c0.4-0.8,0.8-1.5,1.2-2.2&#10;&#9;&#9;C204.2,221.4,204.5,221.3,204.7,221.3z"/>
	<path class="st0_designer-1-21" d="M197.6,222.5c0,0,3.4-6.4,5.6-8.7"/>
	<path class="st1_designer-1-21" d="M197.6,223.2c-0.1,0-0.2,0-0.3-0.1c-0.4-0.2-0.5-0.6-0.3-1c0,0,0,0,0,0c0.1-0.3,3.5-6.5,5.7-8.9&#10;&#9;&#9;c0.3-0.3,0.7-0.3,1,0c0,0,0,0,0,0c0.3,0.3,0.3,0.7,0,1c-2.1,2.3-5.5,8.5-5.5,8.6C198.1,223,197.9,223.1,197.6,223.2z"/>
	<path class="st0_designer-1-21" d="M191.1,220c0,0,4.3-10.5,9.2-15.9"/>
	<path class="st1_designer-1-21" d="M191.1,220.7c-0.1,0-0.2,0-0.3-0.1c-0.4-0.1-0.5-0.5-0.4-0.9c0,0,0,0,0,0c0.2-0.4,4.4-10.7,9.3-16.1&#10;&#9;&#9;c0.3-0.3,0.7-0.3,1,0c0.3,0.3,0.3,0.7,0,1c0,0,0,0,0,0c-4.8,5.2-9,15.6-9.1,15.6C191.6,220.5,191.4,220.7,191.1,220.7z"/>
	<path class="st0_designer-1-21" d="M183,212.1c0,0,10-17.2,13.3-20.6"/>
	<path class="st1_designer-1-21" d="M183,212.8c-0.1,0-0.2,0-0.4-0.1c-0.3-0.2-0.5-0.6-0.3-0.9c0,0,0,0,0-0.1c0.4-0.7,10.1-17.3,13.4-20.7&#10;&#9;&#9;c0.3-0.3,0.7-0.3,1,0s0.3,0.7,0,1c-3.2,3.3-13.1,20.3-13.2,20.4C183.5,212.7,183.3,212.8,183,212.8z"/>
	<path class="st0_designer-1-21" d="M269.8,206l-84.1-8.4l1.5-11.1l83.3,14.2c1.4,0.2,2.5,1.5,2.3,3l0,0C272.5,205.2,271.2,206.2,269.8,206z"/>
	<path class="st1_designer-1-21" d="M270,206.7h-0.4l0,0l-84.1-8.4c-0.2,0-0.4-0.1-0.5-0.3c-0.1-0.1-0.2-0.3-0.1-0.5l1.5-11.1&#10;&#9;&#9;c0-0.2,0.1-0.4,0.3-0.5c0.2-0.1,0.3-0.2,0.5-0.1l83.3,14.2c1.8,0.3,3.1,2,2.8,3.8C273.1,205.5,271.7,206.7,270,206.7L270,206.7z&#10;&#9;&#9; M269.8,205.3c1,0.4,2.2-0.2,2.5-1.2c0.4-1-0.2-2.2-1.2-2.5c-0.2-0.1-0.5-0.1-0.8-0.1l-82.6-14.1l-1.3,9.6L269.8,205.3z"/>
	<polygon class="st0_designer-1-21" points="155.3,181.8 153.7,193.5 183.3,198 185,185.4 &#9;"/>
	<path class="st1_designer-1-21" d="M183.3,198.7h-0.1l-29.6-4.4c-0.4-0.1-0.6-0.4-0.6-0.8l1.6-11.7c0-0.4,0.4-0.6,0.8-0.6c0,0,0,0,0,0l29.8,3.6&#10;&#9;&#9;c0.2,0,0.4,0.1,0.5,0.3c0.1,0.1,0.2,0.3,0.1,0.5l-1.7,12.5c0,0.2-0.1,0.3-0.3,0.5C183.6,198.6,183.5,198.7,183.3,198.7z M154.5,193&#10;&#9;&#9;l28.3,4.2l1.5-11.1l-28.4-3.4L154.5,193z"/>
	<path class="st0_designer-1-21" d="M184.8,183.9l0.7,0.1c1.1,0.1,1.8,1.1,1.7,2.2l-1.5,10.9c-0.1,1.1-1.1,1.8-2.2,1.7l-0.7-0.1&#10;&#9;&#9;c-1.1-0.1-1.8-1.1-1.7-2.2l1.5-10.9C182.8,184.5,183.8,183.8,184.8,183.9z"/>
	<path class="st1_designer-1-21" d="M183.9,199.5c-0.1,0-0.2,0-0.4,0l-0.7-0.1c-1.4-0.2-2.4-1.5-2.3-2.9c0,0,0,0,0,0l1.5-10.9&#10;&#9;&#9;c0.1-0.7,0.4-1.3,1-1.7c0.6-0.4,1.3-0.6,1.9-0.5l0.7,0.1c1.4,0.2,2.4,1.5,2.3,2.9c0,0,0,0,0,0.1l-1.5,10.9&#10;&#9;&#9;C186.3,198.5,185.2,199.5,183.9,199.5L183.9,199.5z M184.6,184.6c-0.6,0-1.1,0.5-1.2,1.1l-1.5,10.9c-0.1,0.7,0.4,1.3,1.1,1.4&#10;&#9;&#9;l0.7,0.1l0,0c0.3,0,0.6,0,0.9-0.2c0.3-0.2,0.4-0.5,0.5-0.8l1.5-10.9c0-0.3,0-0.6-0.2-0.9c-0.2-0.3-0.5-0.4-0.8-0.5l-0.7-0.1&#10;&#9;&#9;L184.6,184.6z"/>
	<path class="st3_designer-1-21 targetColor" d="M155.3,181.9c0,0-13.3-15.3-27.3-13s-24.2,13.4-23.6,22.8c0,0,7.8-11.1,18.9-6c9.3,4.3,3.5,17.6,30.3,8&#10;&#9;&#9;L155.3,181.9z" style="fill: rgb(76, 99, 124);"/>
	<path class="st1_designer-1-21" d="M138.7,197.6c-6.2,0-8.2-3-10.3-6.2c-1.4-2.1-2.7-4.1-5.4-5.3c-10.5-4.8-17.8,5.4-18.1,5.8&#10;&#9;&#9;c-0.2,0.2-0.5,0.3-0.8,0.3c-0.3-0.1-0.5-0.3-0.5-0.6c-0.6-9.2,9.2-21.1,24.2-23.5c14.3-2.3,27.4,12.6,27.9,13.3&#10;&#9;&#9;c0.1,0.2,0.2,0.4,0.2,0.6l-1.6,11.7c0,0.3-0.2,0.5-0.5,0.6C147,196.7,142.2,197.6,138.7,197.6z M117.5,183.5c2.1,0,4.2,0.5,6.1,1.4&#10;&#9;&#9;c3,1.4,4.5,3.6,6,5.8c3,4.6,5.7,8.6,23.5,2.3l1.5-11c-1.7-1.9-13.9-14.6-26.4-12.6c-13.2,2.1-22.2,11.8-23,20.1&#10;&#9;&#9;C107.2,187.4,111.6,183.5,117.5,183.5z"/>
	<path class="st0_designer-1-21" d="M205.5,225.8c0,0-0.5-2-2-11.1s-10.5-25.9-5.5-28.3s7.5,1.4,10.2,7.3s13.7,25,13.7,25"/>
	<path class="st1_designer-1-21" d="M205.5,226.5c-0.3,0-0.6-0.2-0.7-0.5c0-0.1-0.6-2.1-2.1-11.1c-0.8-3.8-2-7.6-3.4-11.2&#10;&#9;&#9;c-2.9-8.2-5.6-15.9-1.8-17.8c1.5-0.8,3.2-1,4.8-0.5c2.6,0.9,4.3,3.8,6.3,8.1c2.7,5.8,13.5,24.8,13.6,24.9c0.2,0.3,0.1,0.8-0.3,1&#10;&#9;&#9;c-0.3,0.2-0.8,0.1-1-0.3c-0.4-0.8-11-19.2-13.7-25.1c-1.8-3.9-3.4-6.6-5.5-7.4c-1.2-0.4-2.6-0.2-3.7,0.4c-2.7,1.3,0.1,9.1,2.5,16&#10;&#9;&#9;c1.4,3.7,2.6,7.6,3.4,11.5c1.5,8.9,2,11,2,11c0.1,0.4-0.1,0.7-0.5,0.8c0,0,0,0,0,0C205.6,226.5,205.5,226.5,205.5,226.5z"/>
	<path class="st0_designer-1-21" d="M340.6,332.4c0,0,25.2-25.8,35.6-26.8s24.3,6.6,24.3,6.6l7.5,10l-32.2,37.1L340.6,332.4z"/>
	<path class="st1_designer-1-21" d="M375.7,360c-0.2,0-0.3-0.1-0.4-0.1L340.1,333c-0.3-0.2-0.3-0.7-0.1-1c0,0,0,0,0,0c1-1.1,25.5-25.9,36-27&#10;&#9;&#9;s24.1,6.4,24.7,6.7c0.1,0.1,0.2,0.1,0.2,0.2l7.5,10c0.2,0.3,0.2,0.6,0,0.9l-32.2,37.1C376.1,360,375.9,360,375.7,360z M341.6,332.3&#10;&#9;&#9;l34,26l31.4-36.1l-7-9.4c-1.4-0.8-14.2-7.4-23.8-6.5C367,307.3,345.4,328.6,341.6,332.3L341.6,332.3z"/>
	<path class="st0_designer-1-21" d="M411.1,326.9c0,0,37.7,42.8,28.4,50c-20.5,15.7-64.9-24.3-68.5-47.9L411.1,326.9z"/>
	<path class="st1_designer-1-21" d="M428.2,381.2c-4.4-0.1-8.7-1-12.8-2.8c-20.2-8.1-42.6-32.5-45.2-49.3c0-0.2,0-0.4,0.1-0.5&#10;&#9;&#9;c0.1-0.2,0.3-0.3,0.5-0.3l40.1-2c0.2,0,0.4,0.1,0.6,0.2c1.3,1.5,31.2,35.5,30,47.6c-0.1,1.3-0.7,2.6-1.7,3.4&#10;&#9;&#9;C436.5,380,432.4,381.3,428.2,381.2z M371.8,329.6c3.1,16.4,24.7,39.6,44.2,47.5c6.6,2.6,16,4.7,23-0.8c0.7-0.6,1.2-1.5,1.2-2.4&#10;&#9;&#9;c1.1-11-26.6-43.1-29.4-46.3L371.8,329.6z"/>
	<path class="st0_designer-1-21" d="M313.4,319.6c-20.1,5.7-39.2,15.4-51.6,28.7c-5.1,5.4-9.4,13-6.9,19.9c1.3,3.7,4.4,6.5,7.6,8.7&#10;&#9;&#9;c13.3,8.9,30.4,8.9,46.4,9.9c1.9,0.1,3.9,0.3,5.3,1.5c2,1.7,2.1,4.7,3.2,7.2c3.1,7.1,12.9,7.6,20.5,6.4&#10;&#9;&#9;c14.9-2.5,29.7-7.8,41.3-17.5s19.7-24.3,19.3-39.4c-0.5-19.6-14.1-29.2-32.4-31C350.4,312.5,331.5,314.5,313.4,319.6z"/>
	<path class="st1_designer-1-21" d="M331.8,403.1c-5.5,0-12.4-1.3-15-7.3c-0.3-0.8-0.6-1.7-0.9-2.6c-0.5-1.7-0.9-3.3-2.1-4.3s-3-1.2-4.9-1.4&#10;&#9;&#9;l-4.8-0.3c-14.7-0.8-29.8-1.6-42-9.7c-4.1-2.8-6.7-5.7-7.9-9.1c-3.1-8.6,3.9-17.3,7-20.6c11.6-12.4,30.1-22.7,52-28.9l0,0&#10;&#9;&#9;c18.1-5.1,36.9-7.1,53.1-5.6c20.6,2,32.6,13.5,33,31.7c0.4,14.5-7,29.4-19.6,39.9c-10.6,8.9-24.6,14.8-41.6,17.6&#10;&#9;&#9;C336,402.9,333.9,403.1,331.8,403.1z M313.6,320.3c-21.6,6.1-39.8,16.3-51.3,28.5c-3,3.2-9.5,11.4-6.7,19.2&#10;&#9;&#9;c1.1,3.1,3.5,5.8,7.4,8.4c11.9,7.9,26.8,8.7,41.3,9.5c1.6,0.1,3.2,0.2,4.8,0.3c2.1,0.1,4.2,0.4,5.8,1.7s2.1,3.2,2.6,5&#10;&#9;&#9;c0.2,0.8,0.5,1.6,0.8,2.4c3.5,8,16,6.6,19.8,6c16.8-2.8,30.6-8.6,41-17.3c12.3-10.3,19.4-24.8,19.1-38.8&#10;&#9;&#9;c-0.4-17.6-11.7-28.4-31.8-30.3C350.2,313.2,331.6,315.2,313.6,320.3L313.6,320.3z"/>
	<path class="st0_designer-1-21" d="M400.5,312.2c7,4.7,14,12.6,11.4,21.7c-2.5,8.6-11.7,15.4-19.9,18c-1.7,0.6-3.6,0.9-5.4,0.8&#10;&#9;&#9;c-2.2-0.3-5.2-2-4.6-4.6c0.6-2.2,1.9-4.2,3.5-5.8c1.6-1.7,3.4-3.3,5.4-4.8c-3.3-6.3-2.4-15.2,3.6-19.6"/>
	<path class="st1_designer-1-21" d="M387.6,353.5c-0.4,0-0.7,0-1.1-0.1c-1.8-0.2-3.5-1.1-4.6-2.6c-0.6-0.8-0.8-1.9-0.6-2.9&#10;&#9;&#9;c0.6-2.4,1.9-4.5,3.7-6.1c1.5-1.6,3.2-3.1,5-4.5c-3-6.3-2.3-15.3,4-19.9c0.3-0.2,0.8-0.2,1,0.2c0.2,0.3,0.2,0.8-0.1,1l0,0&#10;&#9;&#9;c-5.9,4.4-6.4,12.9-3.4,18.7c0.2,0.3,0.1,0.7-0.2,0.9c-1.9,1.4-3.7,3-5.3,4.7c-1.6,1.5-2.8,3.4-3.4,5.5c-0.1,0.6,0,1.3,0.4,1.8&#10;&#9;&#9;c0.9,1.1,2.2,1.8,3.6,2c1.7,0.1,3.5-0.1,5.1-0.7c7.6-2.5,17-9,19.4-17.5c2.9-10.1-6.8-18-11.1-20.9c-0.3-0.2-0.4-0.7-0.2-1&#10;&#9;&#9;c0,0,0,0,0,0c0.2-0.3,0.6-0.4,1-0.2c0,0,0,0,0,0c4.6,3.1,14.9,11.4,11.7,22.5c-2.6,9-12.1,15.8-20.3,18.5&#10;&#9;&#9;C390.7,353.1,389.2,353.4,387.6,353.5z"/>
	<ellipse class="st1_designer-1-21" cx="365.9" cy="329" rx="8.8" ry="5"/>
	<path class="st1_designer-1-21" d="M365.9,334.7c-5.3,0-9.5-2.5-9.5-5.7s4.2-5.7,9.5-5.7s9.5,2.5,9.5,5.7S371.2,334.7,365.9,334.7z M365.9,324.6&#10;&#9;&#9;c-4.4,0-8.1,2-8.1,4.3s3.7,4.3,8.1,4.3s8.1-2,8.1-4.3S370.2,324.6,365.9,324.6z"/>
	<path class="st0_designer-1-21" d="M373.2,332c0,0-9.7-6-6.4-15.3c3.4-9.5-6.6-10.1-9.4-2.5c-2.1,5.7-0.9,13.2,2.1,16.8&#10;&#9;&#9;C359.6,331.1,363.5,337.2,373.2,332z"/>
	<path class="st1_designer-1-21" d="M366.1,334.8c-2.8,0.1-5.4-1.2-7.1-3.4c-3.2-3.9-4.3-11.7-2.2-17.4c1.7-4.6,5.7-6.4,8.5-5.4&#10;&#9;&#9;c2.2,0.8,3.9,3.4,2.1,8.4c-3.1,8.6,5.7,14.2,6.1,14.4c0.3,0.2,0.4,0.6,0.2,1c-0.1,0.1-0.1,0.2-0.2,0.2&#10;&#9;&#9;C371.3,334,368.7,334.7,366.1,334.8z M363.7,309.8c-2.1,0-4.5,1.7-5.6,4.8c-1.9,5.2-0.9,12.6,2,16.1c0.2,0.3,3.5,5.2,11.7,1.3&#10;&#9;&#9;c-2.5-1.9-8.5-7.6-5.7-15.4c1.2-3.3,0.7-5.9-1.3-6.6C364.5,309.9,364.1,309.8,363.7,309.8L363.7,309.8z"/>
	
		<ellipse transform="matrix(0.2647 -0.9643 0.9643 0.2647 146.3199 495.0036)" class="st1_designer-1-21" cx="397.8" cy="151.6" rx="3.2" ry="1.7"/>
	
		<ellipse transform="matrix(0.2647 -0.9643 0.9643 0.2647 132.6782 471.4615)" class="st1_designer-1-21" cx="375.5" cy="148.7" rx="3.2" ry="1.7"/>
	<path class="st0_designer-1-21" d="M445.8,144.3c-12.8-3.9-25.5-8-38.2-12.1c-10.3-3.4-20.6-6.8-30.9-10.3c-4.7-1.6-9.4-3.3-14-5&#10;&#9;&#9;c-2.3-0.9-14.5-3.6-8.6-7.4c3.1-2,7.3-1.2,10.8-2.6c1.5-0.7,2.9-1.6,4.2-2.6c15.4-10.5,32.8-6.7,49.4-2&#10;&#9;&#9;C451.6,111.5,451.3,126.9,445.8,144.3z"/>
	<path class="st1_designer-1-21" d="M445.8,145c-0.1,0-0.1,0-0.2,0c-11.9-3.7-24.4-7.6-38.2-12.1c-12.4-4-21.9-7.2-30.9-10.3c-5.7-2-10-3.5-14.1-5&#10;&#9;&#9;c-0.3-0.1-0.9-0.3-1.5-0.5c-4.4-1.3-8.8-2.8-9.1-5.2c-0.1-1,0.5-2,1.9-2.9c1.9-1.1,4.1-1.7,6.3-1.7c1.6-0.1,3.1-0.4,4.6-0.9&#10;&#9;&#9;c1.2-0.5,2.3-1.2,3.4-2l0.8-0.5c15.5-10.5,33.2-6.8,50-2.1c14.8,4.1,23.9,9.8,28,17.3c4.4,8.1,2.3,17.5-0.2,25.7&#10;&#9;&#9;C446.4,144.8,446.1,145,445.8,145z M391.8,98.2c-8-0.2-15.8,2.1-22.4,6.6l-0.8,0.5c-2.4,2-5.5,3.1-8.6,3.2&#10;&#9;&#9;c-2.1,0.2-4.1,0.5-5.7,1.5c-0.6,0.4-1.4,1-1.3,1.6c0.2,1.7,5.8,3.3,8.1,4.1c0.7,0.2,1.3,0.4,1.6,0.5c4,1.5,8.4,3.1,14,5&#10;&#9;&#9;c9,3.1,18.5,6.3,30.9,10.3c13.5,4.4,25.8,8.3,37.5,11.9c2.5-8.1,4.1-16.6,0.1-24c-3.9-7.2-12.8-12.6-27.1-16.6&#10;&#9;&#9;C409.3,100.4,400.4,98.2,391.8,98.2L391.8,98.2z"/>
	<path class="st3_designer-1-21 targetColor" d="M279,352.4c-3.8,0.7-8,1.7-10,4.9c-1.7,2.7-1.4,6.2-0.2,9.2c3,7.3,10.9,11.6,18.7,13c9,1.5,18.2-0.1,26.2-4.5&#10;&#9;&#9;c6-3.3,16.6-11.4,14.8-19.5C325.4,341.4,287.8,350.9,279,352.4z" style="fill: rgb(76, 99, 124);"/>
	<path class="st3_designer-1-21 targetColor" d="M315.8,329.6c-1.8-0.8-3.7-1.3-5.7-1.3c-1.6,0.2-3.2,0.6-4.7,1.4c-2.5,1.2-4.8,2.6-6.9,4.3&#10;&#9;&#9;c-0.9,0.6-1.7,1.5-2.3,2.4c-0.6,1-0.6,2.2-0.1,3.2c0.8,1,1.9,1.6,3.1,1.8c5.1,1.2,10.5,1.1,15.8,0.9c2.2-0.1,4.5-0.1,6.3-1.2&#10;&#9;&#9;C328.9,336.8,319.5,331.1,315.8,329.6z" style="fill: rgb(76, 99, 124);"/>
	<path class="st3_designer-1-21 targetColor" d="M326,325.5c4.6-3,10.4-3.4,16-3.5c1.5,0,3.2,0,4.3,0.9c0.6,0.6,1.1,1.4,1.3,2.2c0.8,3.3-1.2,6.8-4.1,8.5&#10;&#9;&#9;c-3.5,2-9,2.5-12.5,0.4C328.5,332.6,322.3,327.9,326,325.5z" style="fill: rgb(76, 99, 124);"/>
	<path class="st2_designer-1-21" d="M340.1,393.4c-1.9,0-3.7-0.1-5.6-0.3c-2.1-0.2-4.6-0.7-6.3-2.3c-2-2-2.8-4.7-2.3-7.5l0,0&#10;&#9;&#9;c1-6.8,7-16.4,14.1-19.3c4.6-1.9,9.4-1.7,12.7,0.5c2,1.3,4.4,3.9,4.6,9c-0.1,3.5-0.6,6.9-1.6,10.2c-0.5,2.1-1.2,4.6-2.9,6.5&#10;&#9;&#9;c-2.1,2.2-5.4,2.8-8,3C343.2,393.3,341.7,393.4,340.1,393.4z M327.3,383.5c-0.4,2.3,0.3,4.6,1.9,6.2c1.5,1.3,3.6,1.7,5.5,1.9&#10;&#9;&#9;c3.3,0.4,6.7,0.4,10,0.1c2.4-0.2,5.3-0.7,7.1-2.6c1.5-1.5,2.1-3.8,2.6-5.8c1-3.2,1.5-6.5,1.5-9.8c-0.1-3.5-1.5-6.2-3.9-7.8&#10;&#9;&#9;c-3-1.9-7.3-2.1-11.4-0.4C333.9,368,328.2,377.1,327.3,383.5L327.3,383.5z"/>
	<path class="st2_designer-1-21" d="M370.4,375.8c-0.8,0-1.5-0.2-2.2-0.5c-3-1.5-4.1-5.8-5.1-9.6l-0.1-0.3c-1-3.8-1.9-8.2,0.6-11.5&#10;&#9;&#9;s6.7-4.1,11.3-2.1c5.1,2.3,10,8,9,13.3c-0.9,4.4-5.9,8-10.2,9.9C372.6,375.5,371.5,375.7,370.4,375.8z M369.9,352.1&#10;&#9;&#9;c-2.1-0.1-4.1,0.9-5.3,2.6c-2,2.8-1.2,6.8-0.3,10.3l0,0l0.1,0.3c0.9,3.5,1.9,7.5,4.3,8.7c1.4,0.6,3,0.5,4.3-0.3&#10;&#9;&#9;c4-1.7,8.6-5,9.4-8.9c0.9-4.5-3.5-9.7-8.1-11.8C372.9,352.5,371.4,352.1,369.9,352.1L369.9,352.1z"/>
	<path class="st1_designer-1-21" d="M363.6,261.4c0,0-12.5,2-20.1,15.4s-12.6,29.2-11.3,28.8S357.5,288.6,363.6,261.4z"/>
	<path class="st1_designer-1-21" d="M332.1,306.2c-0.2,0-0.5-0.1-0.6-0.3c-1.2-1.5,4.8-17.9,11.4-29.5c7.7-13.5,20.1-15.6,20.6-15.7&#10;&#9;&#9;c0.2,0,0.5,0,0.6,0.2c0.2,0.2,0.2,0.4,0.2,0.6c-6.1,27.1-30.3,44.2-31.9,44.7L332.1,306.2z M332.6,305.2L332.6,305.2z M362.6,262.3&#10;&#9;&#9;c-7.9,2.3-14.6,7.6-18.6,14.8c-6.5,11.4-10.8,24-11.4,27.3C337.1,301.6,356.8,286.1,362.6,262.3L362.6,262.3z"/>
	<path class="st1_designer-1-21" d="M363.6,261.4c0,0-12.5,13.9-6.6,33.1C357,294.5,370.3,287.1,363.6,261.4z"/>
	<path class="st1_designer-1-21" d="M357,295.2c-0.1,0-0.2,0-0.3,0c-0.2-0.1-0.3-0.2-0.4-0.5c-5.9-19.3,6.6-33.6,6.8-33.8c0.3-0.3,0.7-0.3,1-0.1&#10;&#9;&#9;c0.1,0.1,0.2,0.2,0.2,0.3c6.7,26-6.4,33.6-7,33.9C357.2,295.1,357.1,295.2,357,295.2z M363.3,262.9c-2.6,3.5-10.1,15.3-5.9,30.5&#10;&#9;&#9;C359.9,291.4,368.1,283.2,363.3,262.9L363.3,262.9z"/>
</g>
</svg>