<svg version="1.1" id="Layer_1" xmlns="http://www.w3.org/2000/svg" xmlns:xlink="http://www.w3.org/1999/xlink" x="0px" y="0px" viewBox="0 0 500 500" style="width: 188px;" xml:space="preserve" data-imageid="traveling-63" imageName="Traveling" class="illustrations_image">
<style type="text/css">
	.st0_traveling-63{fill:#093F68;}
	.st1_traveling-63{fill:#68E1FD;}
	.st2_traveling-63{fill:#F56132;}
	.st3_traveling-63{fill:#FFBC0E;}
	.st4_traveling-63{fill:#70CC40;}
	.st5_traveling-63{fill:#FFC9B0;}
	.st6_traveling-63{fill:#AD7972;}
	.st7_traveling-63{fill:#725858;}
	.st8_traveling-63{fill:#FFFFFF;}
</style>
<g id="suitcase_traveling-63">
	<path class="st0_traveling-63" d="M118.3,430.1h5.3l0,0v7.1c0,0.7-0.6,1.3-1.3,1.3h-2.7c-0.7,0-1.3-0.6-1.3-1.3L118.3,430.1L118.3,430.1z"/>
	<path class="st0_traveling-63" d="M121,440.6c-2.6,0-4.7-2.1-4.7-4.7v-5.7c0-1.1,0.9-2,2-2h5.3c1.1,0,2,0.9,2,2v5.7&#10;&#9;&#9;C125.6,438.4,123.6,440.5,121,440.6z M120.4,432.2v3.7c0,0.4,0.3,0.6,0.6,0.6c0.4,0,0.6-0.3,0.6-0.6v-3.7H120.4z"/>
	<path class="st0_traveling-63" d="M185.1,430.1h5.4l0,0v7.1c0,0.7-0.6,1.3-1.3,1.3h-2.7c-0.7,0-1.3-0.6-1.3-1.3V430.1L185.1,430.1z"/>
	<path class="st0_traveling-63" d="M187.8,440.6c-2.6,0-4.7-2.1-4.7-4.7v-5.7c0-1.1,0.9-2,2-2h5.4c1.1,0,2,0.9,2,2v5.7&#10;&#9;&#9;C192.4,438.4,190.3,440.5,187.8,440.6z M187.1,432.2v3.7c0,0.4,0.3,0.6,0.6,0.6c0.4,0,0.6-0.3,0.6-0.6c0,0,0,0,0,0v-3.7H187.1z"/>
	<path class="st0_traveling-63" d="M169.5,325.6h-30.3c-1.1,0-2-0.9-2-2v-17.7c0-1.1,0.9-2,2-2h30.3c1.1,0,2,0.9,2,2v17.7&#10;&#9;&#9;C171.6,324.7,170.7,325.6,169.5,325.6C169.6,325.6,169.5,325.6,169.5,325.6z M141.3,321.6h26.2V308h-26.2V321.6z"/>
	<path class="st1_traveling-63 targetColor" d="M120.7,323.6h67.3c6.5,0,11.8,5.3,11.8,11.8V419c0,6.5-5.3,11.8-11.8,11.8h-67.3c-6.5,0-11.8-5.3-11.8-11.8&#10;&#9;&#9;v-83.6C109,328.9,114.2,323.6,120.7,323.6z" style="fill: rgb(76, 99, 124);"/>
	<path class="st0_traveling-63" d="M187.1,432.8h-65.3c-8.2,0-14.8-6.6-14.8-14.8v-81.6c0-8.2,6.6-14.8,14.8-14.8h65.3c8.2,0,14.8,6.6,14.8,14.8&#10;&#9;&#9;V418C201.9,426.2,195.2,432.8,187.1,432.8z M121.7,325.6c-5.9,0-10.7,4.8-10.7,10.7V418c0,5.9,4.8,10.7,10.7,10.7h65.3&#10;&#9;&#9;c5.9,0,10.7-4.8,10.7-10.7v-81.6c0-5.9-4.8-10.7-10.7-10.7L121.7,325.6z"/>
	<path class="st1_traveling-63 targetColor" d="M137.4,300.5h34c0.6,0,1.1,0.5,1.1,1v3.7c0,0.6-0.5,1-1.1,1h-34c-0.6,0-1.1-0.5-1.1-1v-3.7&#10;&#9;&#9;C136.3,301,136.8,300.5,137.4,300.5z" style="fill: rgb(76, 99, 124);"/>
	<path class="st0_traveling-63" d="M170.3,308.4h-31.8c-2.3,0-4.2-1.9-4.2-4.2v-1.5c0-2.3,1.9-4.2,4.2-4.2h31.8c2.3,0,4.2,1.9,4.2,4.2v1.5&#10;&#9;&#9;C174.5,306.5,172.6,308.4,170.3,308.4z M138.5,302.5l-0.1,1.6l31.9,0.1c0.1,0,0.1,0,0.1-0.1v-1.5L138.5,302.5z"/>
	<path class="st0_traveling-63" d="M128.4,431.3c-1.1,0-2-0.9-2-2V325.1c0-1.1,0.9-2,2-2s2,0.9,2,2v104.2c0,1.1-0.9,2-2,2&#10;&#9;&#9;C128.5,431.3,128.5,431.3,128.4,431.3z"/>
	<path class="st0_traveling-63" d="M178.7,431.3c-1.1,0-2-0.9-2-2V325.1c0-1.1,0.9-2,2-2c1.1,0,2,0.9,2,2v104.2c0,1.1-0.9,2-2,2&#10;&#9;&#9;C178.8,431.3,178.8,431.3,178.7,431.3z"/>
	
		<rect x="142.1" y="332.3" transform="matrix(0.9722 -0.2341 0.2341 0.9722 -75.99 45.9428)" class="st2_traveling-63" width="26.9" height="21.5"/>
	<path class="st0_traveling-63" d="M145,358.6c-0.4,0-0.7-0.1-1.1-0.3c-0.5-0.3-0.8-0.7-0.9-1.3l-5-20.9c-0.1-0.5,0-1.1,0.2-1.5&#10;&#9;&#9;c0.3-0.5,0.7-0.8,1.3-0.9l26.1-6.3c0.5-0.1,1.1,0,1.6,0.2c0.4,0.3,0.7,0.8,0.8,1.3l5,20.9c0.3,1.1-0.4,2.2-1.4,2.4c0,0,0,0-0.1,0&#10;&#9;&#9;l-26.1,6.3C145.3,358.6,145.1,358.6,145,358.6z M142.4,337.2l4.1,16.9l22.2-5.3l-4.1-16.9L142.4,337.2z"/>
	<circle class="st3_traveling-63" cx="149.7" cy="377.2" r="12.5"/>
	<path class="st0_traveling-63" d="M149.7,391.7c-8,0-14.5-6.5-14.5-14.5s6.5-14.5,14.5-14.5c8,0,14.5,6.5,14.5,14.5c0,0,0,0,0,0&#10;&#9;&#9;C164.2,385.2,157.7,391.7,149.7,391.7z M149.7,366.7c-5.8,0-10.4,4.7-10.4,10.5c0,5.8,4.7,10.4,10.4,10.4c5.8,0,10.4-4.7,10.4-10.4&#10;&#9;&#9;C160.1,371.4,155.4,366.7,149.7,366.7L149.7,366.7z"/>
	<polygon class="st4_traveling-63" points="159.9,398.3 142.8,411.8 168.2,420.2 &#9;"/>
	<path class="st0_traveling-63" d="M168.2,422.2c-0.2,0-0.4,0-0.6-0.1l-25.4-8.3c-1.1-0.3-1.7-1.4-1.4-2.5c0.1-0.4,0.4-0.8,0.7-1.1l17.2-13.5&#10;&#9;&#9;c0.8-0.7,2.1-0.6,2.8,0.3c0.2,0.2,0.3,0.4,0.4,0.6l8.3,21.8c0.3,0.7,0.1,1.6-0.4,2.1C169.3,422,168.8,422.2,168.2,422.2z&#10;&#9;&#9; M147,411.1l17.8,5.8l-5.8-15.3L147,411.1z"/>
</g>
<g id="character_traveling-63">
	<rect x="303.8" y="272.2" class="st3_traveling-63" width="18.5" height="44.1"/>
	<path class="st0_traveling-63" d="M322.3,318.3h-18.5c-1.1,0-2-0.9-2-2v-44.1c0-1.1,0.9-2,2-2h18.5c1.1,0,2,0.9,2,2v44.1&#10;&#9;&#9;C324.3,317.4,323.4,318.3,322.3,318.3C322.3,318.3,322.3,318.3,322.3,318.3z M305.8,314.2h14.5v-40h-14.5L305.8,314.2z"/>
	<path class="st5_traveling-63" d="M362.3,192.6c0.5-0.1,5.2-9.3,5.2-9.3s-0.2-7.7-0.2-11.5s2.9-4.4,3.7-2.6s1.3,7.3,1.5,7.3s4.5-12.3,5.6-12.9&#10;&#9;&#9;s12.4,5.3,12.9,9.1c0.3,1.9-1.6,8-3.8,13.9c-0.6,1.6-6.3,5.2-6.3,5.2c-1.2,2.4-2.6,4.7-4.3,6.8L362.3,192.6z"/>
	<path class="st0_traveling-63" d="M376.6,200.7c-0.3,0-0.5-0.1-0.8-0.2l-14.4-6.1c-1-0.4-1.5-1.6-1.1-2.6c0.1-0.3,0.3-0.6,0.5-0.8&#10;&#9;&#9;c0.6-0.8,2.7-4.8,4.6-8.2c-0.1-1.8-0.2-7.8-0.2-11c0-3.5,2-5.1,3.6-5.5c1.7-0.4,3.4,0.5,4,2.1c0.1,0.3,0.2,0.5,0.3,0.8&#10;&#9;&#9;c2.4-6.1,3-6.9,4-7.4s1.9-0.6,5.8,1.4c2.2,1.1,9.5,5.1,10.1,9.2c0.4,2.6-1.9,9.5-3.9,14.9c-0.7,1.8-3.9,4.1-6.7,5.9&#10;&#9;&#9;c-1.2,2.4-2.6,4.6-4.3,6.7C377.8,200.5,377.2,200.7,376.6,200.7z M365.3,191.7l10.7,4.5c1.1-1.7,2.2-3.4,3.1-5.2&#10;&#9;&#9;c0.2-0.3,0.4-0.6,0.8-0.8c2.5-1.6,5.1-3.6,5.5-4.2c2.9-7.8,3.8-11.9,3.7-12.8c-0.3-1.9-7.1-6.1-10-7.2c-1,2-2.8,6.8-3.6,8.7&#10;&#9;&#9;c-1.3,3.4-1.5,4-3,3.9c-1.7-0.1-1.9-1.5-2.2-3.3c-0.2-1.1-0.5-3.1-0.8-4.4c-0.1,0.3-0.1,0.6-0.1,0.9c0,3.7,0.2,11.3,0.2,11.4&#10;&#9;&#9;c0,0.3-0.1,0.7-0.2,1C367.5,187.9,366.2,190.2,365.3,191.7L365.3,191.7z"/>
	<path class="st0_traveling-63" d="M375.9,187.4c-1.1,0-2-0.9-2-1.9c-0.3-4.9-2.6-7.3-2.8-7.4c-0.8-0.8-0.8-2.1,0-2.9c0.7-0.8,2-0.9,2.8-0.1&#10;&#9;&#9;c0,0,0,0,0,0c0.1,0.1,3.6,3.5,4,10.1c0.1,1.1-0.7,2.1-1.8,2.1c0,0-0.1,0-0.1,0L375.9,187.4z"/>
	<path class="st0_traveling-63" d="M247.3,277.3h36.5l0,0v19.8c0,3.5-2.8,6.4-6.4,6.4l0,0h-23.8c-3.5,0-6.4-2.8-6.4-6.4l0,0V277.3L247.3,277.3z"/>
	<path class="st0_traveling-63" d="M270.8,305.6h-10.6c-8.3,0-15-6.7-15-15v-13.2c0-1.1,0.9-2,2-2h36.5c1.1,0,2,0.9,2,2v13.2&#10;&#9;&#9;C285.7,298.8,279,305.5,270.8,305.6z M249.3,279.4v11.2c0,6,4.9,10.9,10.9,10.9h10.6c6,0,10.9-4.9,10.9-10.9v-11.2H249.3z"/>
	<rect x="232.5" y="277.3" class="st0_traveling-63" width="21.2" height="144.9"/>
	<path class="st0_traveling-63" d="M253.7,424.3h-21.2c-1.1,0-2-0.9-2-2v-145c0-1.1,0.9-2,2-2h21.2c1.1,0,2,0.9,2,2v144.9&#10;&#9;&#9;C255.7,423.4,254.9,424.3,253.7,424.3C253.7,424.3,253.7,424.3,253.7,424.3z M234.5,420.2h17.2V279.4h-17.2L234.5,420.2z"/>
	<rect x="277.3" y="277.3" class="st0_traveling-63" width="21.2" height="144.9"/>
	<path class="st0_traveling-63" d="M298.5,424.3h-21.2c-1.1,0-2-0.9-2-2v-145c0-1.1,0.9-2,2-2h21.2c1.1,0,2,0.9,2,2v144.9&#10;&#9;&#9;C300.6,423.4,299.7,424.3,298.5,424.3C298.6,424.3,298.6,424.3,298.5,424.3z M279.3,420.2h17.2V279.4h-17.2V420.2z"/>
	<path class="st6_traveling-63" d="M253.7,422.3v16.3h-37.6c0,0,2-12.5,16.9-16.3H253.7z"/>
	<path class="st0_traveling-63" d="M253.7,440.6h-37.6c-1.1,0-2-0.9-2-2c0-0.1,0-0.3,0-0.4c0.1-0.6,2.4-13.9,18.5-17.9c0.2,0,0.3-0.1,0.5-0.1&#10;&#9;&#9;h20.6c1.1,0,2,0.9,2,2v16.3C255.8,439.6,254.9,440.5,253.7,440.6C253.8,440.6,253.7,440.6,253.7,440.6z M218.9,436.5h32.8v-12.2&#10;&#9;&#9;h-18.3C223.9,426.8,220.2,433,218.9,436.5z"/>
	<path class="st6_traveling-63" d="M277.3,422.3v16.3h37.5c0,0-2-12.5-16.9-16.3H277.3z"/>
	<path class="st0_traveling-63" d="M314.8,440.6h-37.5c-1.1,0-2-0.9-2-2v-16.3c0-1.1,0.9-2,2-2h20.6c0.2,0,0.3,0,0.5,0.1&#10;&#9;&#9;c16,4,18.4,17.4,18.5,17.9c0.1,0.6-0.1,1.2-0.5,1.6C316,440.3,315.4,440.6,314.8,440.6z M279.3,436.5h32.8&#10;&#9;&#9;c-1.3-3.5-5-9.7-14.5-12.2h-18.3V436.5z"/>
	<path class="st1_traveling-63 targetColor" d="M179.8,283.7c9.4-18.5,34.6-38.4,46.5-50.8v90.7h77.4l0.1-89.6c1.5,1.4,3.2,2.8,4.9,3.9&#10;&#9;&#9;c5.3,3.6,11.6,7.2,16.5,7.2c6.2,0,12.4-1.5,18-4.2c21.9-10.7,37-36.4,38.9-39.1l-21.7-15c-3.9,5.7-17,21.8-29.9,28.1&#10;&#9;&#9;c-7,3.4-16-2.4-22.8-8.5c-7.7-7-17.7-10.8-28-10.7c-11.2,0.1-40.9-1.7-53.3,3s-54.2,37.2-72,72.2L179.8,283.7z" style="fill: rgb(76, 99, 124);"/>
	<path class="st0_traveling-63" d="M303.7,325.6h-77.4c-1.1,0-2-0.9-2-2v-85.9c-2.5,2.5-5.4,5.1-8.4,7.9c-12.3,11.4-27.6,25.7-34.3,38.9&#10;&#9;&#9;c-0.5,1-1.7,1.4-2.7,0.9c0,0,0,0-0.1,0l-25.3-12.9c-0.5-0.2-0.8-0.7-1-1.2c-0.2-0.5-0.1-1.1,0.1-1.5c17.9-35.1,59.5-68.1,73.1-73.2&#10;&#9;&#9;c10.3-3.9,31.2-3.5,45-3.2c3.6,0.1,6.7,0.1,9,0.1c10.9-0.1,21.3,4,29.4,11.2c6,5.4,14.4,11.2,20.5,8.2&#10;&#9;&#9;c12.6-6.1,25.6-22.3,29.1-27.5c0.3-0.4,0.8-0.8,1.3-0.9c0.5-0.1,1.1,0,1.5,0.3l21.7,15c0.4,0.3,0.7,0.8,0.8,1.3&#10;&#9;&#9;c0.1,0.5,0,1.1-0.3,1.5c-0.2,0.2-0.4,0.6-0.7,1.1c-12.2,19-25.3,32-39,38.7c-5.9,2.9-12.4,4.4-18.9,4.4c-4.4,0-10.2-2.4-17.6-7.5&#10;&#9;&#9;c-0.6-0.4-1.2-0.9-1.8-1.3l-0.1,85.3C305.7,324.7,304.8,325.6,303.7,325.6C303.7,325.6,303.7,325.6,303.7,325.6z M228.4,321.6h73.3&#10;&#9;&#9;l0.1-87.6c0-1.1,0.8-2,1.9-2.1c0.6,0,1.1,0.2,1.5,0.6c1.5,1.4,3,2.6,4.7,3.7c8.2,5.6,12.9,6.8,15.3,6.8c5.9,0,11.8-1.4,17.1-4&#10;&#9;&#9;c8.9-4.3,22.5-14.2,37-36.7l-18.4-12.7c-5,6.8-17.2,21.1-29.5,27.2c-6.6,3.2-15,0.2-25-8.8c-7.3-6.6-16.8-10.3-26.6-10.2&#10;&#9;&#9;c-2.4,0-5.5,0-9.1-0.1c-13.5-0.2-34-0.6-43.6,3c-12.5,4.7-52.3,36.4-69.9,69.4l21.7,11c7.4-13.4,22.2-27.1,34.2-38.3&#10;&#9;&#9;c4.4-4.1,8.6-8,11.7-11.3c0.7-0.8,2-0.9,2.8-0.2c0.5,0.4,0.7,1,0.7,1.6L228.4,321.6z"/>
	<rect x="249" y="195.5" class="st0_traveling-63" width="31.2" height="137.9"/>
	<path class="st0_traveling-63" d="M280.1,335.5H249c-1.1,0-2-0.9-2-2v-138c0-1.1,0.9-2,2-2h31.2c1.1,0,2,0.9,2,2v137.9&#10;&#9;&#9;C282.2,334.5,281.3,335.4,280.1,335.5C280.2,335.5,280.2,335.5,280.1,335.5z M251,331.4h27.1V197.6H251V331.4z"/>
	<rect x="249" y="195.5" class="st2_traveling-63" width="31.2" height="75.3"/>
	<path class="st0_traveling-63" d="M280.1,272.9H249c-1.1,0-2-0.9-2-2v-75.3c0-1.1,0.9-2,2-2h31.2c1.1,0,2,0.9,2,2v75.3&#10;&#9;&#9;C282.2,271.9,281.3,272.8,280.1,272.9C280.2,272.9,280.2,272.9,280.1,272.9z M251,268.8h27.1v-71.2H251V268.8z"/>
	<path class="st7_traveling-63" d="M207.5,179.8c4.8,5.3,12.6,6.9,19.7,6.2c7.9-0.7,15.9-4.2,20.2-10.9s3.5-16.7-3-21.3s-21-3-24.5,5&#10;&#9;&#9;c-1.5,3.5-0.4,7.8-1.5,11.5c-0.8,2.6-2.3,5-4.4,6.7C213.2,177.5,208.3,180.8,207.5,179.8z"/>
	<path class="st0_traveling-63" d="M224.1,188.2c-7.5,0-14-2.5-18.1-7l0,0c-0.8-0.7-0.9-2-0.1-2.8c0.6-0.7,1.5-0.8,2.3-0.5&#10;&#9;&#9;c1.6-0.6,3.1-1.5,4.5-2.5c1.8-1.5,3.1-3.4,3.8-5.7c0.4-1.5,0.5-3.1,0.5-4.7c-0.1-2.4,0.3-4.8,1.1-7.1c1.6-3.7,5.2-6.5,10.2-7.8&#10;&#9;&#9;c6.2-1.7,13.2-0.9,17.3,2c7.8,5.5,8.1,16.9,3.5,24.1c-4.2,6.5-12.3,11-21.7,11.8C226.2,188.2,225.1,188.2,224.1,188.2z&#10;&#9;&#9; M211.8,180.8c3.9,2.6,9.2,3.7,15.2,3.2c8.2-0.8,15.2-4.5,18.7-10s3.4-14.4-2.4-18.6c-3.1-2.2-8.9-2.8-13.9-1.4&#10;&#9;&#9;c-3.8,1-6.5,3-7.6,5.6c-0.6,1.8-0.9,3.7-0.8,5.6c0,1.9-0.2,3.9-0.6,5.7c-0.9,3-2.7,5.7-5.1,7.7C214.1,179.4,213,180.2,211.8,180.8z&#10;&#9;&#9;"/>
	<path class="st7_traveling-63" d="M320.5,179.8c-4.8,5.3-12.6,6.9-19.7,6.2c-7.9-0.7-15.9-4.2-20.2-10.9s-3.5-16.7,3-21.3s21-3,24.5,5&#10;&#9;&#9;c1.5,3.5,0.5,7.8,1.5,11.5c0.7,2.6,2.3,5,4.4,6.7C314.8,177.5,319.7,180.8,320.5,179.8z"/>
	<path class="st0_traveling-63" d="M303.9,188.2c-1.1,0-2.2-0.1-3.3-0.2c-9.4-0.9-17.5-5.3-21.7-11.8c-4.6-7.2-4.3-18.6,3.5-24.1&#10;&#9;&#9;c4.1-2.9,11.1-3.8,17.3-2c5,1.4,8.6,4.2,10.2,7.8c0.8,2.3,1.2,4.7,1.1,7.1c0,1.6,0.1,3.2,0.5,4.7c0.6,2.2,2,4.2,3.8,5.7&#10;&#9;&#9;c1.4,1,2.9,1.8,4.5,2.5c1-0.5,2.2-0.1,2.7,0.9c0.4,0.8,0.2,1.8-0.5,2.3l0,0C317.9,185.7,311.4,188.2,303.9,188.2z M293.1,153.3&#10;&#9;&#9;c-2.9-0.1-5.8,0.6-8.3,2.1c-5.8,4.1-5.9,13.1-2.4,18.6s10.5,9.2,18.7,10c6,0.5,11.3-0.6,15.2-3.2c-1.2-0.6-2.4-1.4-3.4-2.2&#10;&#9;&#9;c-2.5-2-4.3-4.7-5.1-7.7c-0.5-1.9-0.7-3.8-0.6-5.7c0.1-1.9-0.2-3.8-0.8-5.6c-1.1-2.5-3.8-4.5-7.6-5.6&#10;&#9;&#9;C296.9,153.6,295,153.3,293.1,153.3z"/>
	<path class="st5_traveling-63" d="M257.3,189.4h14.6l0,0v11.5c0,1.7-1.3,3-3,3h-8.5c-1.7,0-3-1.3-3-3L257.3,189.4L257.3,189.4z"/>
	<path class="st0_traveling-63" d="M265.6,206h-2.2c-4.5,0-8.2-3.7-8.2-8.2v-8.4c0-1.1,0.9-2,2-2h14.6c1.1,0,2,0.9,2,2v8.4&#10;&#9;&#9;C273.8,202.3,270.2,206,265.6,206z M259.3,191.4v6.4c0,2.3,1.9,4.1,4.1,4.1h2.2c2.3,0,4.1-1.9,4.1-4.1v-6.4H259.3z"/>
	<path class="st7_traveling-63" d="M217.2,149.8c-1.7-1.7-3.1-3.6-4.3-5.7c-2.4-4.1-3.6-8.8-4.6-13.4c-2.4-10.9-0.9-23.7,2-34.4&#10;&#9;&#9;c1.2-4.3,2.7-8.7,5.7-12c3.8-4.2,11-6.9,14.5-1.2c-0.7-1.1,5-8.1,5.9-9c2.5-2.3,5.4-4.3,8.4-5.9c6.9-3.9,14.7-6.2,22.7-6.7&#10;&#9;&#9;c19.3-1.1,35.8,8.2,44.2,25.6c5.2,10.8,7,22.8,7.6,34.7c0.4,7.1,1.6,21-4.7,26.2c-3.3,2.8-13.4,0.7-17.7,0.8l-38.5,1.2&#10;&#9;&#9;c-6.7,0.2-13.4-0.3-20.1-0.1c-2.9,0.1-5.8,0.5-8.6,1.1c-2,0.4-4.9,2-6.8,1.9S219,151.6,217.2,149.8z"/>
	<path class="st0_traveling-63" d="M223.2,155.1H223c-2.3-0.1-4.7-1.4-7.2-3.8l0,0c-1.8-1.8-3.4-3.9-4.6-6.1c-2.6-4.4-3.9-9.3-4.9-14&#10;&#9;&#9;c-2.9-13.4,0-27.9,2-35.3c1.1-4.2,2.8-9.1,6.2-12.9c3.1-3.4,7.5-5.4,11.2-5.1c1.5,0.1,2.9,0.6,4.1,1.5c1.5-2.4,3.2-4.7,5.2-6.7&#10;&#9;&#9;c2.7-2.5,5.7-4.6,8.9-6.2c7.2-4.1,15.3-6.5,23.5-7c20.3-1.1,37.5,8.9,46.1,26.8c4.6,9.5,7.1,20.8,7.8,35.5l0.1,1.3&#10;&#9;&#9;c0.4,7.9,1.2,21-5.5,26.5c-3,2.5-9,2-14.3,1.5c-1.8-0.2-3.5-0.3-4.6-0.3l-38.5,1.2c-3.5,0.1-7,0-10.4,0c-3.2-0.1-6.4-0.1-9.6-0.1&#10;&#9;&#9;c-2.8,0.1-5.5,0.5-8.2,1.1c-0.8,0.2-1.5,0.4-2.2,0.7C226.5,154.6,224.9,154.9,223.2,155.1z M218.6,148.4c1.7,1.6,3.2,2.6,4.5,2.6&#10;&#9;&#9;c1.2-0.2,2.4-0.5,3.6-1c0.9-0.3,1.8-0.6,2.7-0.9c3-0.7,6-1.1,9-1.2c3.3-0.1,6.6,0,9.8,0c3.4,0.1,6.9,0.1,10.2,0l38.5-1.2&#10;&#9;&#9;c1.7,0,3.4,0.1,5.1,0.3c3.8,0.3,9.6,0.8,11.4-0.6c5.1-4.2,4.4-16.5,4-23.1l-0.1-1.4c-0.8-14.2-3.1-24.9-7.4-33.9&#10;&#9;&#9;c-7.9-16.4-23.7-25.5-42.2-24.5c-7.7,0.5-15.1,2.7-21.8,6.5c-2.9,1.5-5.6,3.4-8,5.6c-1,1-4.7,5.9-5.3,7.4c0.2,1.1-0.4,2.1-1.5,2.4&#10;&#9;&#9;c-0.9,0.2-1.8-0.3-2.2-1.1c-0.7-1.3-2-2.1-3.5-2.3c-2.4-0.2-5.6,1.3-7.8,3.8c-2.8,3.1-4.3,7.4-5.3,11.2c-1.9,7.1-4.7,20.8-2,33.4&#10;&#9;&#9;c0.9,4.3,2.1,8.8,4.4,12.8C215.7,145,217.1,146.8,218.6,148.4L218.6,148.4z M232.3,82.1L232.3,82.1z"/>
	<ellipse class="st5_traveling-63" cx="222.9" cy="151.5" rx="14.2" ry="12.2"/>
	<path class="st0_traveling-63" d="M222.9,165.7c-8.9,0-16.2-6.4-16.2-14.2s7.3-14.2,16.2-14.2s16.2,6.4,16.2,14.2S231.8,165.7,222.9,165.7z&#10;&#9;&#9; M222.9,141.3c-6.7,0-12.1,4.6-12.1,10.2s5.4,10.2,12.1,10.2s12.1-4.6,12.1-10.2S229.6,141.3,222.9,141.3z"/>
	<ellipse class="st5_traveling-63" cx="305.5" cy="151.5" rx="14.2" ry="12.2"/>
	<path class="st0_traveling-63" d="M305.5,165.7c-8.9,0-16.2-6.4-16.2-14.2s7.3-14.2,16.2-14.2s16.2,6.4,16.2,14.2S314.4,165.7,305.5,165.7z&#10;&#9;&#9; M305.5,141.3c-6.7,0-12.1,4.6-12.1,10.2s5.4,10.2,12.1,10.2s12.1-4.6,12.1-10.2S312.1,141.3,305.5,141.3z"/>
	<path class="st5_traveling-63" d="M264.5,191.3L264.5,191.3c-23.6,0-42.7-19.1-42.7-42.7v-25.1c0,0,22.5-24.2,19-29.1c17.3,19.8,42.6,22,66.4,19&#10;&#9;&#9;v35.1C307.3,172.1,288.2,191.3,264.5,191.3C264.6,191.3,264.6,191.3,264.5,191.3z"/>
	<path class="st0_traveling-63" d="M264.5,193.3c-24.7,0-44.7-20-44.7-44.7v-25.1c0-0.5,0.2-1,0.5-1.4c10.9-11.7,19.7-24.1,18.8-26.5&#10;&#9;&#9;c-0.6-0.9-0.5-2.1,0.4-2.8c0.9-0.7,2.1-0.5,2.8,0.3c14,16,35.2,22,64.6,18.3c1.1-0.2,2.1,0.6,2.3,1.7c0,0.1,0,0.2,0,0.3v35.1&#10;&#9;&#9;C309.3,173.2,289.2,193.3,264.5,193.3z M223.9,124.3v24.3c0.4,22.5,18.8,40.4,41.3,40c22-0.3,39.7-18.1,40-40v-32.9&#10;&#9;&#9;c-27.7,3.1-48.3-2.4-62.8-16.7C239.7,106.3,230.5,117.1,223.9,124.3L223.9,124.3z"/>
	<path class="st8_traveling-63" d="M280.1,161.4c-0.2,8.6-7.4,15.4-16,15.2c-8.3-0.2-15-6.9-15.2-15.2H280.1z"/>
	<path class="st0_traveling-63" d="M264.5,179.1c-9.7,0-17.6-7.9-17.6-17.6c0-1.1,0.9-2,2-2h31.2c1.1,0,2,0.9,2,2&#10;&#9;&#9;C282.1,171.1,274.2,179,264.5,179.1z M251.2,163.5c1.1,7.4,8,12.5,15.4,11.4c5.9-0.9,10.5-5.5,11.4-11.4H251.2z"/>
	<path class="st0_traveling-63" d="M264.3,157.7c-1.3,0-2.7-0.1-4-0.3c-1.1-0.2-1.8-1.2-1.6-2.4s1.2-1.8,2.4-1.6c1.6,0.3,3.3,0.3,5,0.2&#10;&#9;&#9;c0.1-2-1.4-7.9-3.4-13.5c-0.4-1.1,0.2-2.2,1.2-2.6c1.1-0.4,2.2,0.2,2.6,1.2l0,0c1.8,5.2,4.7,14.3,3.1,17.3c-0.4,0.7-1,1.2-1.8,1.4&#10;&#9;&#9;C266.6,157.6,265.5,157.7,264.3,157.7z"/>
	<path class="st0_traveling-63" d="M254.3,126.5L254.3,126.5l-18.9-0.3c-2.2-0.1-4-2.1-3.8-4.3c0.1-2.1,1.8-3.8,3.9-3.8h0.1l18.9,0.3&#10;&#9;&#9;c2.2,0,4.1,1.9,4,4.1C258.4,124.7,256.6,126.5,254.3,126.5L254.3,126.5L254.3,126.5z"/>
	<path class="st0_traveling-63" d="M278,127.2c-2.3-0.1-4-2-3.9-4.2c0.1-2.1,1.7-3.8,3.8-3.9l18.9-0.4c2.3,0.1,4,1.9,4,4.2&#10;&#9;&#9;c-0.1,2.1-1.7,3.8-3.8,4L278,127.2L278,127.2z"/>
	<path class="st0_traveling-63" d="M230.7,131.2h28.4c1.5,0,2.7,1.2,2.7,2.7c0,0,0,0,0,0v12.6c0,4.4-3.6,8-8,8H236c-4.4,0-8-3.6-8-8v-12.6&#10;&#9;&#9;C228,132.4,229.2,131.2,230.7,131.2L230.7,131.2z"/>
	<path class="st0_traveling-63" d="M270.7,131.2h28.4c1.5,0,2.7,1.2,2.7,2.7c0,0,0,0,0,0v12.6c0,4.4-3.6,8-8,8H276c-4.4,0-8-3.6-8-8v-12.6&#10;&#9;&#9;C268,132.4,269.2,131.2,270.7,131.2C270.7,131.2,270.7,131.2,270.7,131.2z"/>
	<path class="st0_traveling-63" d="M226.9,140.6h-5.1c-1.1,0-2-0.9-2-2s0.9-2,2-2h5.1c1.1,0,2,0.9,2,2S228,140.6,226.9,140.6z"/>
	<path class="st0_traveling-63" d="M268,140.8h-6.2c-1.1,0-2-0.9-2-2c0-1.1,0.9-2,2-2h6.2c1.1,0,2,0.9,2,2C270,139.8,269.1,140.8,268,140.8z"/>
	<path class="st0_traveling-63" d="M307.2,140.6h-4c-1.1,0-2-0.9-2-2s0.9-2,2-2h4c1.1,0,2,0.9,2,2S308.4,140.6,307.2,140.6z"/>
	<path class="st0_traveling-63" d="M303.8,236c-1.1,0-2-0.9-2-2v-15.3c0-1.1,0.9-2,2-2c1.1,0,2,0.9,2,2V234C305.9,235.1,305,236,303.8,236&#10;&#9;&#9;C303.9,236,303.8,236,303.8,236z"/>
	<path class="st5_traveling-63" d="M176.1,282.3L169,289c0,0,0.5,3.5-1.6,10.1l-4.3-0.5c0,0-1.5,5.9-7,7.2s-12.3-1.9-12.8-10.1&#10;&#9;&#9;s14.8-22.9,14.8-22.9L176.1,282.3z"/>
	<path class="st0_traveling-63" d="M153.8,308c-6.8,0.1-12.4-5.3-12.5-12.1c0,0,0,0,0-0.1c-0.6-8.8,13.7-22.9,15.4-24.5c0.6-0.6,1.6-0.7,2.4-0.3&#10;&#9;&#9;l18.1,9.6c0.6,0.3,1,0.9,1.1,1.5c0.1,0.6-0.1,1.3-0.6,1.8l-6.4,6.1c0,3.4-0.6,6.7-1.7,9.8c-0.3,0.9-1.2,1.5-2.2,1.4l-2.7-0.3&#10;&#9;&#9;c-1.4,3.5-4.3,6-7.9,6.9C155.6,308,154.7,308,153.8,308z M158.4,275.2c-5.6,5.7-13.4,15.4-13.1,20.3c0,2.6,1.2,5.1,3.3,6.8&#10;&#9;&#9;c2,1.5,4.6,2,7.1,1.5c4.2-0.9,5.4-5.5,5.5-5.7c0.2-1,1.2-1.7,2.2-1.5l2.6,0.3c1.3-4.9,1-7.5,1-7.5c-0.1-0.7,0.1-1.3,0.6-1.8l5-4.8&#10;&#9;&#9;L158.4,275.2z"/>
	<path class="st0_traveling-63" d="M313,285.3c-0.5,0-1-0.2-1.4-0.5c-40.1-35.8-82.8-87.4-83.3-87.9c-0.7-0.9-0.6-2.2,0.3-2.9s2.2-0.6,2.9,0.3&#10;&#9;&#9;c0.4,0.5,43,51.9,82.8,87.5c0.9,0.7,1,1.9,0.3,2.8C314.3,285,313.6,285.3,313,285.3L313,285.3z"/>
	<path class="st0_traveling-63" d="M226.3,234.9c-1.1,0-2-0.9-2-2v-13.4c0-1.1,0.9-2,2-2s2,0.9,2,2v13.3c0,1.1-0.9,2-2,2&#10;&#9;&#9;C226.4,234.9,226.4,234.9,226.3,234.9z"/>
	<path class="st0_traveling-63" d="M326.8,306.6c-1.1,0-2-0.9-2-2v-30.4h-2.5c-1.1,0-2-0.9-2-2s0.9-2,2-2h4.5c1.1,0,2,0.9,2,2v32.4&#10;&#9;&#9;c0,1.1-0.8,2-1.9,2.1C326.9,306.6,326.8,306.6,326.8,306.6z"/>
	<path class="st0_traveling-63" d="M321.6,286H305c-1.1,0-2-0.9-2-2s0.9-2,2-2h16.6c1.1,0,2,0.9,2,2S322.7,286,321.6,286z"/>
</g>
</svg>