<svg version="1.1" id="Layer_1" xmlns="http://www.w3.org/2000/svg" xmlns:xlink="http://www.w3.org/1999/xlink" x="0px" y="0px" viewBox="0 0 500 500" style="width: 188px;" xml:space="preserve" data-imageid="teacher-16" imageName="Teacher" class="illustrations_image">
<style type="text/css">
	.st0_teacher-16{fill:#FFC9B0;}
	.st1_teacher-16{fill:#093F68;}
	.st2_teacher-16{fill:#FFFFFF;}
	.st3_teacher-16{fill:#68E1FD;}
	.st4_teacher-16{fill:#725858;}
	.st5_teacher-16{fill:#DFEAEF;}
	.st6_teacher-16{fill:#FFBC0E;}
</style>
<g id="character_teacher-16">
	<path class="st0_teacher-16" d="M151.3,324.7c-8,4.9-15.7,10.4-23.4,15.8c-10.7-16.8-19.7-31-19.7-31.1c-4.9-7.7-14.5-23.5-3.6-30.1&#10;&#9;&#9;c1.8-1.1,3.9-1.3,5.9-1.8c4.4-1,9.2-3,13.3-1.1c2.6,1.2,4.3,3.6,5.8,6c2.4,3.8,5.2,7.7,7.1,11.8c1.6,3.6,0.6,5,1.3,8.6&#10;&#9;&#9;s4,7.2,6,10.3L151.3,324.7z"/>
	<path class="st1_teacher-16" d="M128,342.4c-0.1,0-0.2,0-0.4,0c-0.5-0.1-0.9-0.4-1.2-0.8L112.1,319l-5.5-8.6c-3.4-5.3-10.5-16.6-8.5-25.2&#10;&#9;&#9;c0.7-3.1,2.7-5.8,5.6-7.4c1.6-0.9,3.4-1.5,5.3-1.8l1.2-0.2c0.9-0.2,1.8-0.4,2.7-0.7c3.7-1,7.9-2.1,11.8-0.3c3,1.4,4.9,4.1,6.6,6.7&#10;&#9;&#9;c0.6,0.9,1.1,1.7,1.7,2.6c2.1,3,3.9,6.1,5.5,9.4c0.9,1.9,1.3,3.9,1.2,5.9c0,1,0,2.1,0.2,3.1c0.4,2.1,2.2,4.7,3.8,6.9&#10;&#9;&#9;c0.7,1,1.3,1.9,1.9,2.7l7.3,11.5c0.3,0.4,0.4,0.9,0.2,1.4c-0.1,0.5-0.4,0.9-0.8,1.2c-7.5,4.6-14.9,9.9-22.1,14.9L129,342&#10;&#9;&#9;C128.7,342.2,128.4,342.3,128,342.4z M120.1,277.5c-2.1,0.1-4.2,0.5-6.3,1.2c-1,0.2-1.9,0.5-2.8,0.7l-1.2,0.3&#10;&#9;&#9;c-1.4,0.2-2.8,0.6-4.1,1.3c-2,1.1-3.4,2.9-3.9,5.1c-1.7,7.1,5.2,17.8,8.1,22.4l5.4,8.5l13.2,20.9c6.6-4.6,13.3-9.4,20.3-13.8&#10;&#9;&#9;l-6.3-9.9c-0.5-0.8-1.1-1.7-1.8-2.5c-1.9-2.6-3.9-5.5-4.5-8.4c-0.2-1.2-0.3-2.5-0.3-3.8c0.1-1.5-0.2-3-0.9-4.4&#10;&#9;&#9;c-1.5-3.1-3.3-6.1-5.2-8.9l-1.7-2.6c-1.4-2.3-2.9-4.4-5-5.4C122.2,277.7,121.1,277.5,120.1,277.5L120.1,277.5z"/>
	<path class="st1_teacher-16" d="M124.5,317.6c-0.8,0-1.5-0.5-1.8-1.2L82.8,203c-0.3-1,0.2-2,1.1-2.4c1-0.3,2,0.2,2.4,1.1l39.9,113.4&#10;&#9;&#9;c0.3,1-0.2,2-1.1,2.4c0,0,0,0,0,0C124.9,317.5,124.7,317.6,124.5,317.6z"/>
	<path class="st0_teacher-16" d="M124,285.6c-1.9-0.2-9.6-2-11.4-1.4s-3.4,2.6-2.8,4.4c0.5,1.6,2.1,2.4,3.7,3c3.9,1.5,8,2.4,12.1,2.9&#10;&#9;&#9;c-2,5.1-0.8,10.9,3.1,14.7"/>
	<path class="st1_teacher-16" d="M128.6,311c-0.5,0-0.9-0.2-1.3-0.5c-3.9-3.8-5.5-9.3-4.2-14.5c-3.5-0.5-7-1.5-10.3-2.7c-1.1-0.4-4-1.5-4.8-4.2&#10;&#9;&#9;c-0.9-3,1.4-5.8,4-6.7c1.6-0.6,4.9,0,9.4,0.9c1.2,0.2,2.2,0.4,2.7,0.5c1,0.1,1.8,1,1.7,2c-0.1,1-1,1.8-2,1.7c0,0-0.1,0-0.1,0&#10;&#9;&#9;c-0.7-0.1-1.7-0.3-3.1-0.5c-2-0.4-6.5-1.2-7.6-1s-1.9,1.4-1.7,2.1c0.3,0.9,2,1.6,2.6,1.8c3.8,1.4,7.7,2.3,11.7,2.8&#10;&#9;&#9;c1,0.1,1.8,1,1.6,2.1c0,0.2-0.1,0.3-0.1,0.5c-1.7,4.4-0.7,9.3,2.6,12.6c0.7,0.7,0.8,1.9,0.1,2.6C129.6,310.8,129.1,311,128.6,311&#10;&#9;&#9;L128.6,311z"/>
	<path class="st2_teacher-16" d="M234.1,271.4c0,0-22.8-0.1-31.2,16.5S176,350.8,176,350.8l-26.1-33.1L118,335.4c0,0,31.6,70,60.2,69&#10;&#9;&#9;c30-1,52.8-62.3,52.8-62.3"/>
	<path class="st1_teacher-16" d="M177.6,406.3c-29.4,0-60-67.3-61.3-70.1c-0.4-0.9-0.1-1.9,0.8-2.4l32-17.7c0.8-0.4,1.8-0.2,2.4,0.5l24.1,30.6&#10;&#9;&#9;c4.2-10.5,18.7-46,25.8-60.1c8.8-17.4,31.8-17.5,32.8-17.5c1,0,1.9,0.8,1.9,1.9s-0.8,1.9-1.9,1.9l0,0l0,0&#10;&#9;&#9;c-0.3,0-21.8,0.1-29.5,15.5c-8.2,16.3-26.7,62.3-26.9,62.8c-0.2,0.6-0.8,1.1-1.4,1.1c-0.7,0.1-1.3-0.2-1.7-0.7l-25.1-31.9&#10;&#9;&#9;l-29.1,16.1c4.8,10.1,32.6,66.4,57.2,66.4h0.6c28.4-1,50.9-60.5,51.1-61.1c0.3-1,1.3-1.5,2.3-1.2c1,0.3,1.5,1.3,1.2,2.3&#10;&#9;&#9;c0,0.1,0,0.1-0.1,0.2c-0.9,2.5-23.6,62.4-54.4,63.5L177.6,406.3z"/>
	<path class="st2_teacher-16" d="M351.1,387.6c0,0,1,15.4,15.4,21.9s39.1-8.6,32-34.1S349.8,366.8,351.1,387.6z"/>
	<path class="st1_teacher-16" d="M373.9,412.9c-2.8,0-5.6-0.5-8.1-1.7c-15.2-6.9-16.4-22.8-16.5-23.4l0,0c-0.8-13.1,13.3-24.4,27-26.6&#10;&#9;&#9;c12.1-2,21.1,3.1,24.1,13.8c3.4,12.2,0.2,23.5-8.7,31.1C386.7,410.3,380.4,412.8,373.9,412.9z M353,387.5c0,0.6,1.2,14.4,14.3,20.3&#10;&#9;&#9;c6.3,2.9,15.4,1,21.9-4.6c7.8-6.6,10.5-16.6,7.6-27.3c-3.4-12.5-15.1-12-19.9-11.1C365,366.8,352.3,376.6,353,387.5z"/>
	<path class="st2_teacher-16" d="M299.6,271.4c0,0,37.1,0,47,26.3c4.8,12.8,17.6,74.5,17.6,74.5l-41.1-4.5L299.6,271.4z"/>
	<path class="st1_teacher-16" d="M364.2,374.1H364l-41.1-4.5c-0.8-0.1-1.4-0.7-1.6-1.4l-23.5-96.3c-0.2-1,0.4-2,1.4-2.2c0.1,0,0.3-0.1,0.4-0.1&#10;&#9;&#9;c6.9,0.2,13.8,1.3,20.4,3.4c14.3,4.5,24.1,12.8,28.4,24.1c4.8,12.8,17.2,72.3,17.7,74.8c0.2,1-0.5,2-1.5,2.2&#10;&#9;&#9;C364.5,374.1,364.4,374.1,364.2,374.1L364.2,374.1z M324.6,366l37.3,4.1c-2.5-11.7-12.9-60.7-17-71.7c-7.9-21-34.7-24.4-42.9-25&#10;&#9;&#9;L324.6,366z"/>
	<path class="st3_teacher-16 targetColor" d="M234.5,271.3h67.2c11.9,0,21.5,9.6,21.5,21.5v125.8l0,0H213l0,0V292.8C213,280.9,222.6,271.3,234.5,271.3&#10;&#9;&#9;C234.5,271.3,234.5,271.3,234.5,271.3z" style="fill: rgb(76, 99, 124);"/>
	<path class="st1_teacher-16" d="M323.1,420.5H213.1c-1,0-1.9-0.8-1.9-1.9l0,0V294.8c0-14,11.4-25.4,25.4-25.4h63c14,0,25.4,11.3,25.4,25.4&#10;&#9;&#9;c0,0,0,0,0,0v123.8C325,419.6,324.2,420.5,323.1,420.5C323.1,420.5,323.1,420.5,323.1,420.5z M214.9,416.8h106.4V294.8&#10;&#9;&#9;c0-12-9.7-21.7-21.7-21.7h-63c-12,0-21.7,9.7-21.7,21.7L214.9,416.8z"/>
	<path class="st1_teacher-16" d="M268.1,420.5c-1,0-1.9-0.8-1.9-1.9l0,0V291.1c0-1,0.8-1.9,1.9-1.9s1.9,0.8,1.9,1.9v127.5&#10;&#9;&#9;C269.9,419.6,269.1,420.5,268.1,420.5L268.1,420.5z"/>
	<polygon class="st2_teacher-16" points="268.1,353.1 249.5,271.3 286.7,271.3 &#9;"/>
	<path class="st1_teacher-16" d="M268.1,355c-0.9,0-1.6-0.6-1.8-1.4l-18.6-81.8c-0.2-1,0.4-2,1.4-2.2c0.1,0,0.3,0,0.4,0h37.2&#10;&#9;&#9;c0.6,0,1.1,0.3,1.5,0.7c0.4,0.4,0.5,1,0.4,1.6l-18.6,81.8C269.7,354.4,269,355,268.1,355z M251.8,273.2l16.3,71.6l16.3-71.6H251.8z&#10;&#9;&#9;"/>
	<polygon class="st2_teacher-16" points="268.1,284.1 245.4,303.1 243,271.3 268.1,271.3 &#9;"/>
	<path class="st1_teacher-16" d="M245.4,304.9c-0.2,0-0.5-0.1-0.7-0.1c-0.6-0.3-1.1-0.9-1.1-1.6l-2.4-31.8c-0.1-1,0.7-1.9,1.7-2&#10;&#9;&#9;c0.1,0,0.1,0,0.2,0h25.1c1,0,1.9,0.8,1.9,1.9l0,0v12.8c0,0.5-0.2,1.1-0.7,1.4l-22.7,19C246.3,304.8,245.9,304.9,245.4,304.9z&#10;&#9;&#9; M245,273.1l2,26.2l19.2-16.2v-10L245,273.1z M268.1,284.1L268.1,284.1z"/>
	<polygon class="st2_teacher-16" points="268.1,284.1 290.8,303.1 293.2,271.3 268.1,271.3 &#9;"/>
	<path class="st1_teacher-16" d="M290.8,304.9c-0.4,0-0.9-0.2-1.2-0.4l-22.7-19c-0.4-0.3-0.7-0.9-0.7-1.4v-12.8c0-1,0.8-1.9,1.9-1.9l0,0h25.1&#10;&#9;&#9;c0.5,0,1,0.2,1.4,0.6c0.3,0.4,0.5,0.9,0.5,1.4l-2.4,31.8c-0.1,0.7-0.5,1.3-1.1,1.6C291.2,304.9,291,304.9,290.8,304.9z&#10;&#9;&#9; M269.9,283.2l19.2,16.2l2-26.2h-21.2V283.2z"/>
	<path class="st0_teacher-16" d="M258.2,264.4h19.7l0,0v15.2c0,2.5-2,4.5-4.5,4.5h-10.6c-2.5,0-4.5-2-4.5-4.5L258.2,264.4L258.2,264.4z"/>
	<path class="st1_teacher-16" d="M269.6,285.9h-3c-5.6,0-10.2-4.6-10.2-10.2v-11.3c0-1,0.8-1.9,1.9-1.9l0,0h19.7c1,0,1.9,0.8,1.9,1.9l0,0v11.3&#10;&#9;&#9;C279.7,281.3,275.2,285.9,269.6,285.9z M260.1,266.2v9.5c0,3.6,2.9,6.5,6.5,6.5h3c3.6,0,6.5-2.9,6.5-6.5v-9.5H260.1z"/>
	<path class="st4_teacher-16" d="M198.9,209.5c0,0-2.3-59.2-2.8-59.9c-4.6-7.4-11.6-16-8.2-24c1.8-4.2,5.1-7.7,9.2-9.9c2.2-1.2,4.5-1.9,7-2.1&#10;&#9;&#9;c1.6-0.1,4.9,1.1,6.1-0.1c1-1,0.2-3.9,0.3-5.2c1.6-21.7,32.8-30.8,47-15.2c4.9-8,13.2-17.2,32-12c18.1,5,17.4,21.6,17.4,21.6&#10;&#9;&#9;s17-3.1,24,1.2c2.1,1.3,4.6,2.8,6,4.9c0.7,1,2.3,11.9,0.6,11.5c4.3,1,8.9,2.4,11.6,5.9c2.4,3.2,3,7.4,1.6,11.2&#10;&#9;&#9;c-1.6,4.5-10.1,12.3-10.1,12.3c-0.4,1.2-5.1,50.8-8,63.5l-6.9-4c-5.1-0.9-11.5,0.4-16.7,0.5l-38.1,1.2&#10;&#9;&#9;C251.8,211.6,219.6,217.4,198.9,209.5z"/>
	<path class="st1_teacher-16" d="M227.6,215.4c-10.5,0-20.9-1-29.3-4.2c-0.7-0.3-1.2-0.9-1.2-1.7c-0.9-22.2-2.3-55.6-2.7-59.3&#10;&#9;&#9;c-0.6-0.9-1.2-1.8-1.8-2.8c-4.5-7-9.7-14.9-6.4-22.7c2-4.6,5.6-8.5,10.1-10.8c2.4-1.3,5-2.1,7.8-2.3c0.8,0,1.6,0,2.4,0.2&#10;&#9;&#9;c0.8,0.2,1.6,0.2,2.4,0.2c0-0.7,0-1.4-0.1-2.1c-0.1-0.6-0.1-1.2-0.1-1.8c0.7-10.3,8-19,19-22.8c10.8-3.7,22.1-1.8,29.5,4.9&#10;&#9;&#9;c5.2-7.8,14.2-16,32.8-10.8c15.1,4.2,18.1,16.2,18.6,21.2c4.9-0.7,17.2-2,23.3,1.8l0.3,0.2c2.1,1.3,4.8,2.9,6.3,5.3&#10;&#9;&#9;c0.6,1,1.9,7.5,1.5,11.2c4.1,1.1,8,2.8,10.6,6c2.8,3.7,3.5,8.6,1.9,13c-1.5,4.4-8.2,10.8-10.2,12.6c-0.2,1.4-0.7,6.2-1.3,11.7&#10;&#9;&#9;c-1.7,15.9-4.6,42.4-6.6,51.3c-0.2,1-1.2,1.6-2.2,1.4c-0.2,0-0.4-0.1-0.5-0.2l-6.6-3.8c-3.1-0.5-6.9-0.1-10.5,0.2&#10;&#9;&#9;c-1.9,0.2-3.7,0.3-5.5,0.4l-38.1,1.2c-4.6,0.1-10,0.6-15.8,1.1C246.6,214.6,237,215.4,227.6,215.4z M200.7,208.2&#10;&#9;&#9;c15.3,5.3,36.8,3.5,54.2,2.1c5.8-0.5,11.3-0.9,16-1.1L309,208c1.6,0,3.4-0.2,5.2-0.4c4-0.4,8.1-0.8,11.8-0.1l0,0&#10;&#9;&#9;c1.8,0.9,3.5,1.8,5.2,2.9c1.9-10.5,4.5-33.9,6-48.4c1.2-10.9,1.4-12.3,1.5-12.8c0.1-0.3,0.3-0.6,0.5-0.8c2.3-2.1,8.5-8.2,9.6-11.5&#10;&#9;&#9;c1.2-3.2,0.7-6.7-1.3-9.5c-2.4-3.1-6.7-4.3-10.6-5.2l0,0c-1-0.2-1.6-1.2-1.4-2.2c0,0,0,0,0,0c0.1-0.4,0.3-0.8,0.7-1&#10;&#9;&#9;c0-3.1-0.3-6.2-1.1-9.2c-1-1.6-3.1-2.9-5-4l-0.3-0.2c-5.3-3.3-18.2-1.8-22.7-1c-1,0.2-2-0.5-2.2-1.5c0-0.1,0-0.3,0-0.4&#10;&#9;&#9;c0-0.6,0.3-15.2-16-19.7c-17.6-4.9-25.2,3.4-29.9,11.2c-0.5,0.9-1.7,1.2-2.5,0.6c-0.2-0.1-0.3-0.2-0.4-0.3&#10;&#9;&#9;c-6.3-6.9-17-9.1-27.3-5.5c-9.6,3.3-15.9,10.8-16.5,19.6c0,0.4,0,0.8,0.1,1.2c0.2,1.7,0.4,3.8-0.9,5.1s-3.8,1.1-5.6,0.8&#10;&#9;&#9;c-0.5-0.1-1.1-0.2-1.6-0.2c-2.2,0.2-4.3,0.8-6.3,1.8c-3.7,2-6.7,5.1-8.4,9c-2.6,6,1.8,12.7,6,19.2c0.7,1.1,1.4,2.1,2,3.1&#10;&#9;&#9;C198,149.1,198.4,149.8,200.7,208.2L200.7,208.2z M337.9,118.5L337.9,118.5z"/>
	<ellipse class="st0_teacher-16" cx="211.8" cy="213.2" rx="19.1" ry="16.5"/>
	<path class="st1_teacher-16" d="M211.8,231.6c-11.6,0-21-8.2-21-18.3s9.4-18.3,21-18.3s21,8.2,21,18.3S223.4,231.6,211.8,231.6z M211.8,198.6&#10;&#9;&#9;c-9.5,0-17.3,6.6-17.3,14.6s7.8,14.6,17.3,14.6s17.3-6.6,17.3-14.6S221.4,198.6,211.8,198.6L211.8,198.6z"/>
	<ellipse class="st0_teacher-16" cx="323.3" cy="213.2" rx="19.1" ry="16.5"/>
	<path class="st1_teacher-16" d="M323.3,231.6c-11.6,0-21-8.2-21-18.3s9.4-18.3,21-18.3s21,8.2,21,18.3S334.9,231.6,323.3,231.6z M323.3,198.6&#10;&#9;&#9;c-9.5,0-17.3,6.6-17.3,14.6s7.8,14.6,17.3,14.6s17.3-6.6,17.3-14.6S332.9,198.6,323.3,198.6L323.3,198.6z"/>
	<path class="st0_teacher-16" d="M268.1,267c-31.9,0-57.7-25.8-57.7-57.7c0,0,0,0,0,0v-25.4c0-4.2-1.2-10.6,0.1-14.6c0.9-2.9,3.6-3.9,5.6-6&#10;&#9;&#9;c2.8-3,4.7-6.7,5.3-10.8c4.8,3,11.2,2.8,16.4,0.5s9.4-6.4,13-10.9c4.9,4.5,11.9,6.2,18.5,5.6s12.9-3.5,18.3-7.3&#10;&#9;&#9;c2.9,7.6,7.9,14.6,15.1,18.2c6.7,3.4,18,3.8,23-2.9c1.2,17.6,0.1,35.7,0.1,53.4C325.8,241.1,300,267,268.1,267&#10;&#9;&#9;C268.1,267,268.1,267,268.1,267z"/>
	<path class="st1_teacher-16" d="M268.1,268.8c-32.9,0-59.5-26.7-59.5-59.5v-25.3c0-1.2-0.1-2.7-0.2-4.3c-0.3-3.6-0.6-7.7,0.4-10.9&#10;&#9;&#9;c0.8-2.4,2.5-3.8,4.1-5c0.7-0.5,1.4-1.1,2-1.7c2.6-2.7,4.2-6.1,4.8-9.8c0.2-1,1.1-1.7,2.1-1.6c0.2,0,0.5,0.1,0.7,0.3&#10;&#9;&#9;c4,2.5,9.6,2.6,14.7,0.4c4.2-1.9,8.1-5.1,12.3-10.3c0.7-0.8,1.8-0.9,2.6-0.3c0,0,0,0,0.1,0.1c4.2,3.8,10.6,5.8,17.1,5.1&#10;&#9;&#9;c5.7-0.6,11.5-2.9,17.5-7c0.5-0.3,1.1-0.4,1.6-0.2c0.5,0.2,1,0.6,1.2,1.1c3,8,8.1,14.1,14.2,17.2c5.6,2.9,16.2,3.7,20.7-2.3&#10;&#9;&#9;c0.6-0.8,1.8-1,2.6-0.4c0.4,0.3,0.7,0.8,0.7,1.4c0.8,11.9,0.6,24.2,0.3,36.2c-0.1,5.7-0.2,11.6-0.2,17.4&#10;&#9;&#9;C327.6,242.2,301,268.8,268.1,268.8z M222.7,155.3c-1,3.5-2.8,6.7-5.3,9.3c-0.7,0.7-1.5,1.4-2.4,2.1c-1.3,1.1-2.4,1.9-2.8,3.2&#10;&#9;&#9;c-0.8,2.5-0.5,6.2-0.2,9.5c0.1,1.6,0.2,3.2,0.2,4.6v25.3c0.4,30.8,25.7,55.5,56.6,55.1c30.2-0.4,54.7-24.8,55.1-55.1&#10;&#9;&#9;c0-5.8,0.1-11.7,0.3-17.5c0.2-10.5,0.5-21.3-0.1-31.8c-6.1,4.3-15.6,3.8-22.2,0.4c-6.4-3.2-11.7-9.3-15.1-17.1&#10;&#9;&#9;c-5.2,3.4-11.1,5.6-17.3,6.3c-6.5,0.8-13.1-1-18.4-4.8c-4.1,4.8-8.1,8-12.5,10C233.6,157.1,227.8,157.3,222.7,155.3z"/>
	<path class="st1_teacher-16" d="M268,219.9c-1.9,0-3.9-0.2-5.8-0.5c-1-0.2-1.7-1.1-1.5-2.1s1.1-1.7,2.1-1.5l0,0c0,0,5.2,0.9,8.8,0.1&#10;&#9;&#9;c0.4-1.7-1.9-8.1-5-14c-0.5-0.9-0.1-2,0.8-2.5c0.9-0.5,2-0.1,2.5,0.8c2.1,4,6.7,13.6,5,17.4c-0.4,0.9-1.2,1.6-2.1,1.8&#10;&#9;&#9;C271.2,219.7,269.6,219.9,268,219.9z"/>
	<path class="st1_teacher-16" d="M255.2,175.5L255.2,175.5l-28.3-0.1c-2,0-3.7-1.7-3.7-3.7c0-2,1.7-3.7,3.7-3.7l0,0l28.3,0.1&#10;&#9;&#9;c2,0,3.7,1.7,3.7,3.7C258.9,173.9,257.3,175.5,255.2,175.5z"/>
	<path class="st1_teacher-16" d="M307.4,175.5L307.4,175.5l-28.3-0.1c-2,0-3.7-1.7-3.7-3.7c0-2,1.7-3.7,3.7-3.7l0,0l28.3,0.1&#10;&#9;&#9;c2,0,3.7,1.7,3.7,3.7S309.5,175.5,307.4,175.5C307.4,175.5,307.4,175.5,307.4,175.5L307.4,175.5z"/>
	<path class="st2_teacher-16" d="M222.2,185.7h37.7c1.4,0,2.6,1.1,2.6,2.6v9.6c0,4.8-6.9,11.6-11.6,11.6h-18.6c-4.8,0-12.6-5.9-12.6-10.6v-10.6&#10;&#9;&#9;C219.7,186.8,220.8,185.7,222.2,185.7L222.2,185.7z"/>
	<path class="st1_teacher-16" d="M246.5,211.3h-10.9c-9.8,0-17.8-8-17.8-17.8v-3.1c0-3.6,2.9-6.6,6.6-6.6h33.3c3.6,0,6.6,2.9,6.6,6.6v3.1&#10;&#9;&#9;C264.3,203.4,256.4,211.3,246.5,211.3z M224.4,187.5c-1.6,0-2.9,1.3-2.9,2.9c0,0,0,0,0,0v3.1c0,7.8,6.3,14.1,14.1,14.1h10.9&#10;&#9;&#9;c7.8,0,14.1-6.3,14.1-14.1v-3.1c0-1.6-1.3-2.9-2.9-2.9l0,0H224.4z"/>
	<path class="st2_teacher-16" d="M276,185.7h37.7c1.4,0,2.6,1.1,2.6,2.6v7.6c0,4.8-6.9,13.6-11.6,13.6h3h-22.5c-4.8,0-11.6-8.9-11.6-13.6v5&#10;&#9;&#9;v-12.6C273.5,186.8,274.6,185.7,276,185.7z"/>
	<path class="st1_teacher-16" d="M300.3,211.3h-10.9c-9.8,0-17.8-8-17.8-17.8v-3.1c0-3.6,2.9-6.6,6.6-6.6h33.3c3.6,0,6.6,2.9,6.6,6.6v3.1&#10;&#9;&#9;C318.1,203.4,310.1,211.3,300.3,211.3z M278.2,187.5c-1.6,0-2.9,1.3-2.9,2.9c0,0,0,0,0,0v3.1c0,7.8,6.3,14.1,14.1,14.1h10.9&#10;&#9;&#9;c7.8,0,14.1-6.3,14.1-14.1v-3.1c0-1.6-1.3-2.9-2.9-2.9H278.2z"/>
	<path class="st1_teacher-16" d="M219.7,195.4H209c-1,0-1.9-0.8-1.9-1.8s0.8-1.9,1.8-1.9c0,0,0,0,0,0h10.7c1,0,1.8,0.8,1.8,1.9&#10;&#9;&#9;C221.6,194.5,220.8,195.4,219.7,195.4L219.7,195.4z"/>
	<path class="st1_teacher-16" d="M327.5,195.4h-10.7c-1,0-1.8-0.8-1.8-1.9c0-1,0.8-1.8,1.8-1.8h10.7c1,0,1.8,0.8,1.8,1.9&#10;&#9;&#9;C329.4,194.5,328.6,195.4,327.5,195.4z"/>
	<path class="st1_teacher-16" d="M273.5,195.4h-11c-1,0-1.8-0.8-1.8-1.9c0-1,0.8-1.8,1.8-1.8h11c1,0,1.9,0.8,1.9,1.8&#10;&#9;&#9;C275.3,194.5,274.5,195.4,273.5,195.4C273.5,195.4,273.5,195.4,273.5,195.4z"/>
	<path class="st1_teacher-16" d="M266.9,237.7c-6.6,0-13.1-1.2-19.3-3.5c-0.9-0.4-1.4-1.5-1-2.4c0.4-0.9,1.4-1.3,2.3-1&#10;&#9;&#9;c18.8,7.3,36.4,0.1,36.6,0c0.9-0.4,2,0.1,2.4,1c0.4,0.9-0.1,2-1,2.4C280.5,236.5,273.7,237.7,266.9,237.7z"/>
	<path class="st1_teacher-16" d="M360,352.6c-1,0-1.9-0.8-1.9-1.9v-12.9c0-1,0.7-1.7,1.7-1.8l32.8-3.1c1-0.1,1.9,0.7,2,1.7c0,0.1,0,0.1,0,0.2&#10;&#9;&#9;v12.9c0,1-0.7,1.7-1.7,1.8l-32.8,3.1L360,352.6z M361.9,339.6v9.1L391,346v-9.1L361.9,339.6z"/>
	<path class="st1_teacher-16" d="M227,396.8c-1,0-1.9-0.8-1.9-1.8c0-0.6,0.3-1.2,0.9-1.6l28.3-18c0.9-0.6,2-0.3,2.6,0.6s0.3,2-0.6,2.6l-28.3,18&#10;&#9;&#9;C227.7,396.7,227.4,396.8,227,396.8z"/>
	<path class="st5_teacher-16" d="M228.4,201.7c-1,0-1.9-0.8-1.9-1.8c0-0.6,0.2-1.1,0.7-1.4l11.1-9.2c0.8-0.7,2-0.5,2.6,0.2&#10;&#9;&#9;c0.7,0.8,0.5,2-0.2,2.6l-11.1,9.2C229.2,201.5,228.8,201.7,228.4,201.7z"/>
	<path class="st5_teacher-16" d="M246.6,201.1c-0.5,0-1-0.2-1.4-0.6c-0.7-0.8-0.6-1.9,0.2-2.6c0,0,0,0,0,0l5.7-5c0.8-0.7,1.9-0.6,2.6,0.2&#10;&#9;&#9;s0.6,1.9-0.2,2.6c0,0,0,0,0,0l-5.7,5C247.5,201,247.1,201.1,246.6,201.1z"/>
	<path class="st5_teacher-16" d="M285.4,200c-1,0-1.9-0.8-1.9-1.8c0-0.5,0.2-1.1,0.7-1.4l9.5-8.1c0.8-0.7,1.9-0.6,2.6,0.2&#10;&#9;&#9;c0.7,0.8,0.6,1.9-0.2,2.6l-9.5,8.1C286.2,199.8,285.8,200,285.4,200z"/>
	<path class="st5_teacher-16" d="M298.8,204c-1,0-1.8-0.8-1.8-1.9c0-0.6,0.3-1.1,0.7-1.5l9.2-6.9c0.8-0.6,2-0.5,2.6,0.3c0.6,0.8,0.5,2-0.3,2.6&#10;&#9;&#9;c0,0-0.1,0-0.1,0.1l-9.2,6.9C299.6,203.9,299.2,204,298.8,204z"/>
</g>
<g id="book_teacher-16">
	<path class="st2_teacher-16" d="M336.8,394.9l-60.3-5.9v-82.3l48.3,3.6c6.9,1.3,12,8,12,15.9L336.8,394.9z"/>
	<path class="st1_teacher-16" d="M336.8,396.8h-0.2l-60.3-5.9c-0.9-0.1-1.7-0.9-1.7-1.8v-82.3c0-1,0.8-1.9,1.8-1.9c0.1,0,0.1,0,0.2,0l48.3,3.6&#10;&#9;&#9;h0.2c7.8,1.5,13.5,8.9,13.5,17.7v68.7C338.6,395.9,337.8,396.7,336.8,396.8L336.8,396.8z M278.3,387.3l56.6,5.5v-66.7&#10;&#9;&#9;c0-7-4.4-12.8-10.4-14l-46.2-3.5V387.3z"/>
	<path class="st2_teacher-16" d="M397,389l-60.3,5.9v-68.7c0-7.9,5.1-14.6,12-15.9l48.3-3.6V389z"/>
	<path class="st1_teacher-16" d="M336.8,396.8c-1,0-1.8-0.8-1.9-1.9v-68.7c0-8.8,5.7-16.2,13.5-17.7h0.2l48.3-3.6c1-0.1,1.9,0.7,2,1.7&#10;&#9;&#9;c0,0.1,0,0.1,0,0.2V389c0,1-0.7,1.7-1.7,1.8l-60.3,5.9L336.8,396.8z M349,312.1c-6,1.2-10.4,7.1-10.4,14v66.7l56.6-5.5v-78.6&#10;&#9;&#9;L349,312.1z M397,389L397,389z"/>
	<polygon class="st6_teacher-16" points="326.9,404.4 269.2,398.5 269.2,316.2 326.9,322.1 &#9;"/>
	<path class="st1_teacher-16" d="M326.9,406.3h-0.2l-57.7-5.9c-0.9-0.1-1.7-0.9-1.7-1.8v-82.3c0-0.5,0.2-1,0.6-1.4c0.4-0.4,0.9-0.5,1.4-0.5&#10;&#9;&#9;l57.7,5.9c0.9,0.1,1.7,0.9,1.7,1.8v82.3C328.7,405.5,327.9,406.3,326.9,406.3L326.9,406.3z M271.1,396.9l54,5.5v-78.6l-54-5.5&#10;&#9;&#9;V396.9z"/>
	<polygon class="st6_teacher-16" points="404.3,398.5 346.6,404.4 346.6,322.1 404.3,316.2 &#9;"/>
	<path class="st1_teacher-16" d="M346.6,406.3c-1,0-1.8-0.8-1.9-1.9v-82.3c0-0.9,0.7-1.7,1.7-1.8l57.7-5.9c1-0.1,1.9,0.7,2,1.7&#10;&#9;&#9;c0,0.1,0,0.1,0,0.2v82.3c0,0.9-0.7,1.7-1.7,1.8l-57.7,5.9L346.6,406.3z M348.5,323.8v78.6l54-5.5v-78.6L348.5,323.8z M404.3,398.5&#10;&#9;&#9;L404.3,398.5z"/>
	<rect x="326.9" y="322.1" class="st6_teacher-16" width="19.7" height="82.3"/>
	<path class="st1_teacher-16" d="M346.6,406.3h-19.7c-1,0-1.9-0.8-1.9-1.9l0,0v-82.3c0-1,0.8-1.9,1.9-1.9l0,0h19.7c1,0,1.9,0.8,1.9,1.9l0,0&#10;&#9;&#9;v82.3C348.5,405.5,347.6,406.3,346.6,406.3L346.6,406.3z M328.7,402.6h16V324h-16V402.6z"/>
	<path class="st0_teacher-16" d="M408.3,363.6c-0.8-0.8-1.9-1.2-3-1.1c-3.4,0.6-2.4,8.4-5.9,10.2c-2.7,1.4-9.3,0.2-12.4,0.5&#10;&#9;&#9;c-1.8,0.1-3.7,0.4-5.1,1.5c-1.1,1.1-2,2.5-2.4,4c-1.8,5-3.1,10.1-3.9,15.4c-1.4,9.2,5.4,9.3,12.6,10.2c8.3,0.7,16.5-2.6,21.9-9&#10;&#9;&#9;c4.5-5.6,6.5-14.2,4.6-21.1C414.1,372,411.4,366.1,408.3,363.6z"/>
	<path class="st1_teacher-16" d="M390.6,406.3c-0.9,0-1.7,0-2.6-0.1l-1.4-0.1c-4.6-0.5-9-1-11.5-4.1c-1.5-1.9-2-4.5-1.5-8&#10;&#9;&#9;c0.8-5.4,2.1-10.7,4-15.8c0.5-1.8,1.6-3.5,3-4.8c1.8-1.5,4-1.7,6.1-1.9c1.4-0.1,2.9,0,4.3,0.1c2.5,0.1,6,0.3,7.3-0.4&#10;&#9;&#9;c1-0.5,1.5-2.5,2-4.3c0.7-2.6,1.5-5.6,4.4-6.1c1.6-0.2,3.3,0.3,4.5,1.4l0,0c3.5,2.9,6.4,9.3,7,11.5c2,7.3,0,16.6-4.9,22.8&#10;&#9;&#9;C406.3,402.6,398.7,406.2,390.6,406.3z M388,375.1c-0.3,0-0.6,0-0.9,0c-1.4,0-2.8,0.3-4.1,1.1c-0.9,0.9-1.5,2-1.8,3.2&#10;&#9;&#9;c-1.8,4.9-3.1,9.9-3.8,15c-0.4,2.4-0.1,4.1,0.7,5.2c1.5,1.9,5.1,2.3,8.9,2.7l1.4,0.1c7.7,0.7,15.2-2.4,20.2-8.3&#10;&#9;&#9;c4.2-5.3,6-13.3,4.3-19.5c-0.5-1.9-3.1-7.4-5.8-9.6l0,0c-0.4-0.4-0.9-0.7-1.5-0.7c-0.6,0.1-1.1,2.2-1.5,3.5&#10;&#9;&#9;c-0.7,2.5-1.5,5.3-3.9,6.6c-2.2,1.2-5.8,1-9.3,0.8C389.9,375.2,388.9,375.1,388,375.1z"/>
</g>
</svg>