<svg version="1.1" id="Layer_1" xmlns="http://www.w3.org/2000/svg" xmlns:xlink="http://www.w3.org/1999/xlink" x="0px" y="0px" viewBox="0 0 500 500" style="width: 188px;" xml:space="preserve" data-imageid="user-interface-1-100" imageName="User Interface 1" class="illustrations_image">
<style type="text/css">
	.st0_user-interface-1-100{fill:#F56132;}
	.st1_user-interface-1-100{fill:#093F68;}
	.st2_user-interface-1-100{fill:#68E1FD;}
	.st3_user-interface-1-100{fill:#FFFFFF;}
	.st4_user-interface-1-100{fill:#DFEAEF;}
</style>
<g id="gear_user-interface-1-100">
	<path class="st0_user-interface-1-100" d="M239.9,234.6c-0.2-3.9-2.9-7.3-6.8-8.2c-3.3-0.7-6.6-1.2-9.9-1.7c-1,0-1.8-0.7-2-1.6c-1-2.6-2.1-5.2-3.2-7.8&#10;&#9;&#9;c-0.4-0.6-0.3-1.4,0.2-2c2-2.7,4-5.5,5.9-8.3c2.2-3.3,1.9-7.6-0.8-10.6c-3-3.3-6.3-6.4-9.4-9.6c-3.7-3.7-8.4-4.1-12.6-1.1&#10;&#9;&#9;c-2.5,1.7-4.9,3.5-7.4,5.2c-0.6,0.5-1.4,0.6-2,0.2c-2.8-1.2-5.6-2.4-8.5-3.5c-0.7-0.2-1.2-0.8-1.3-1.5c-0.5-3-1-6-1.5-9.1&#10;&#9;&#9;c-0.6-4.4-4.3-7.7-8.7-7.8c-4.6-0.1-9.3-0.1-14,0c-4.1,0.1-7.6,2.9-8.5,6.9c-0.8,3.4-1.3,6.8-1.8,10.2c-0.1,0.7-0.6,1.3-1.3,1.5&#10;&#9;&#9;c-2.7,1.1-5.4,2.2-8.1,3.4c-0.6,0.4-1.3,0.3-1.9-0.2c-2.7-2-5.4-4-8.2-5.8c-3.3-2.2-7.7-2-10.7,0.7c-3.6,3.2-7,6.6-10.3,10.1&#10;&#9;&#9;s-3.3,7.9-0.5,11.9c1.8,2.6,3.7,5.2,5.5,7.8c0.2,0.4,0.3,0.9,0.2,1.4c-1.1,2.9-2.3,5.8-3.5,8.7c-0.2,0.5-0.6,0.8-1.1,0.9&#10;&#9;&#9;c-3,0.6-6,1.1-9,1.5c-4.5,0.7-8,4.1-8.1,8.5c-0.2,4.9-0.2,9.7,0,14.6c0.2,3.9,2.9,7.2,6.7,8.1c3.5,0.8,7,1.3,10.5,1.9&#10;&#9;&#9;c0.7,0.1,1.3,0.6,1.5,1.2c1.1,2.8,2.2,5.5,3.5,8.2c0.3,0.6,0.3,1.3-0.2,1.8c-1.8,2.5-3.7,5-5.4,7.6c-2.9,3.8-2.4,9.1,1.1,12.3&#10;&#9;&#9;c2.9,3,5.8,5.9,8.8,8.8c3.7,3.6,8.3,4,12.6,1c2.6-1.8,5.1-3.5,7.6-5.4c0.5-0.4,1.1-0.4,1.6-0.1c2.6,1.1,5.2,2.2,7.8,3.2&#10;&#9;&#9;c0.8,0.2,1.4,1,1.4,1.8c0.4,3,0.9,6,1.5,9c0.8,4.4,4.1,7.7,8.4,7.8c4.9,0.2,9.8,0.1,14.7,0c3.9-0.2,7.3-3,8.1-6.8&#10;&#9;&#9;c0.7-3.3,1.2-6.7,1.8-10c0.1-0.8,0.6-1.5,1.4-1.7c2.8-1,5.4-2.2,8.1-3.4c0.6-0.3,1.3-0.2,1.8,0.2c2.5,1.8,5.1,3.6,7.6,5.4&#10;&#9;&#9;c1.8,1.3,3.9,1.9,6.1,1.9c2,0,4-0.8,5.4-2.2c3.2-3,6.3-6.2,9.4-9.3c3.8-3.8,4.2-8.4,1.1-12.9c-1.7-2.5-3.5-4.9-5.3-7.4&#10;&#9;&#9;c-0.4-0.5-0.5-1.2-0.2-1.8c1.2-2.7,2.4-5.5,3.4-8.2c0.2-0.7,0.8-1.3,1.6-1.3c3-0.5,6-1,9.1-1.5c4.4-0.6,7.7-4.2,7.9-8.7&#10;&#9;&#9;C240.1,244.1,240,239.3,239.9,234.6z M165.2,274c-17.8,0-32.2-14.5-32.2-32.3c0-17.8,14.5-32.2,32.3-32.2&#10;&#9;&#9;c17.8,0,32.2,14.5,32.2,32.3C197.5,259.6,183,274,165.2,274C165.2,274,165.2,274,165.2,274z"/>
	<path class="st1_user-interface-1-100" d="M165,318.5c-2.5,0-4.8,0-7.2-0.1c-5-0.2-9.1-4-10.1-9.3c-0.6-3.3-1.1-6.2-1.5-9c0-0.1,0-0.2-0.1-0.3l-0.2-0.1&#10;&#9;&#9;c-2.7-1-5.3-2.1-7.9-3.2c-2.5,1.8-5,3.6-7.5,5.3c-5,3.5-10.6,3.1-14.9-1.1c-2.6-2.6-5.4-5.4-8.8-8.9c-4.1-3.8-4.6-10.1-1.3-14.6&#10;&#9;&#9;c1.8-2.6,3.7-5.1,5.4-7.5c-1.4-3.3-2.6-5.9-3.5-8.3l-2-0.4c-2.8-0.5-5.7-0.9-8.6-1.6c-4.6-1.1-7.9-5.1-8.1-9.9&#10;&#9;&#9;c-0.2-5.2-0.2-10,0-14.7c0.2-5.1,4.1-9.4,9.6-10.3c3-0.5,5.9-0.9,8.8-1.5c1.1-2.6,2.2-5.3,3.4-8.4c-0.9-1.3-1.9-2.7-2.8-4&#10;&#9;&#9;s-1.7-2.4-2.6-3.6c-3.3-4.8-3.1-10.1,0.7-14.2c3.2-3.5,6.7-6.9,10.4-10.3c3.6-3.2,8.9-3.6,12.9-0.9c2.6,1.7,5.2,3.6,7.7,5.4&#10;&#9;&#9;l0.6,0.4l0,0c3.1-1.4,5.7-2.5,8.2-3.5c0.1,0,0.1,0,0.2-0.1l0.3-2c0.4-2.8,0.9-5.6,1.5-8.4c1.1-4.8,5.3-8.2,10.2-8.4&#10;&#9;&#9;c5.2-0.1,9.8-0.1,14.1,0c5.3,0.2,9.7,4.1,10.5,9.4c0.5,3,1,6,1.5,9.1c0,0,0,0,0,0.1h0.1c3.3,1.3,6.1,2.4,8.6,3.6&#10;&#9;&#9;c0.1,0,0.1,0.1,0.2,0.1c2.5-1.9,5-3.7,7.4-5.4c5-3.5,10.6-3,15,1.4c0.8,0.8,1.6,1.6,2.4,2.4c2.3,2.3,4.8,4.7,7,7.2&#10;&#9;&#9;c3.2,3.6,3.6,8.8,1,12.8c-1.6,2.6-3.5,5-5.2,7.4l-0.7,1l0,0v0.1c1.4,3.1,2.4,5.6,3.3,7.9c0,0.1,0.1,0.2,0.2,0.4l0,0&#10;&#9;&#9;c0.1,0.1,0.2,0.1,0.4,0.1c3.4,0.5,6.7,1.1,10,1.8c4.7,1.1,8.1,5.1,8.2,9.9l0,0c0.1,5.2,0.1,9.9,0,14.4c-0.2,5.3-4.2,9.7-9.4,10.4&#10;&#9;&#9;c-3,0.5-6.1,1-9.1,1.5h-0.2c-1.1,3.1-2.4,6.1-3.4,8.4c1.8,2.5,3.5,4.9,5.2,7.4c3.6,5.2,3.1,10.8-1.4,15.2l-0.8,0.8&#10;&#9;&#9;c-2.8,2.8-5.7,5.7-8.6,8.5c-1.8,1.7-4.2,2.7-6.6,2.7c-2.6,0.1-5.1-0.7-7.2-2.2c-1.1-0.8-2.2-1.6-3.3-2.4c-1.4-1-2.8-2-4.2-3&#10;&#9;&#9;c-3.1,1.4-5.7,2.4-8.2,3.4l-0.2,0.1c0,0,0,0.1,0,0.2l-0.3,1.9c-0.4,2.7-0.9,5.4-1.5,8.2c-1,4.7-5.1,8.1-9.9,8.3&#10;&#9;&#9;C169.9,318.4,167.4,318.5,165,318.5z M138,292.7c0.5,0,1,0.1,1.5,0.3c2.5,1.1,5.1,2.2,7.7,3.2c1.5,0.5,2.5,1.8,2.6,3.3&#10;&#9;&#9;c0.4,2.7,0.9,5.6,1.5,8.9c0.6,3.6,3.4,6.2,6.6,6.3c4.6,0.1,9.4,0.1,14.6,0c3.1-0.2,5.7-2.4,6.4-5.4c0.6-2.6,1-5.4,1.4-8l0.3-1.9&#10;&#9;&#9;c0.2-1.5,1.2-2.7,2.5-3.1c2.5-0.9,5-2,8.1-3.3c1.2-0.6,2.6-0.4,3.6,0.4c1.4,1,2.8,2,4.2,3l3.3,2.4c1.4,1.1,3.2,1.6,5,1.5&#10;&#9;&#9;c1.6,0,3.1-0.6,4.2-1.7c2.9-2.7,5.8-5.6,8.5-8.4l0.8-0.8c3.2-3.2,3.5-6.8,1-10.5c-1.7-2.5-3.5-4.9-5.2-7.3c-0.8-1-0.9-2.4-0.4-3.6&#10;&#9;&#9;c1-2.2,2.2-5.1,3.4-8.1c0.4-1.3,1.6-2.3,3-2.4c3-0.5,6-1,9-1.5c3.5-0.4,6.2-3.4,6.4-6.9c0.1-4.4,0.1-9.1,0-14.2l0,0&#10;&#9;&#9;c-0.1-3.1-2.3-5.7-5.3-6.4c-3.2-0.7-6.4-1.2-9.8-1.7c-1.6-0.2-2.9-1.3-3.4-2.8c-0.9-2.3-1.9-4.7-3.2-7.7c-0.6-1.2-0.5-2.7,0.4-3.8&#10;&#9;&#9;l0.7-1c1.7-2.4,3.5-4.8,5.1-7.2c1.7-2.6,1.5-6-0.6-8.4c-2.2-2.4-4.6-4.8-6.9-7.1l-2.5-2.4c-3.1-3.1-6.7-3.4-10.3-0.9&#10;&#9;&#9;c-2.3,1.6-4.8,3.4-7.3,5.2c-1.1,0.9-2.6,1-3.8,0.4c-2.5-1.1-5.2-2.2-8.4-3.5c-1.3-0.4-2.3-1.6-2.4-2.9c-0.5-3-1-6-1.5-9&#10;&#9;&#9;c-0.5-3.5-3.4-6.2-7-6.3c-4.2-0.1-8.8-0.1-13.9,0c-3.2,0.1-6,2.3-6.7,5.5c-0.6,2.7-1.1,5.5-1.5,8.2l-0.3,1.9&#10;&#9;&#9;c-0.2,1.4-1.1,2.5-2.4,2.9c-2.4,0.9-5.1,2.1-8,3.4c-1.2,0.6-2.7,0.5-3.7-0.4l-0.6-0.4c-2.4-1.8-5-3.6-7.5-5.3&#10;&#9;&#9;c-2.6-1.8-6.1-1.6-8.4,0.5c-3.6,3.3-7,6.7-10.2,10.1c-2.6,2.8-2.8,6.2-0.4,9.6c0.8,1.2,1.7,2.4,2.5,3.6c1,1.4,2,2.8,3,4.2&#10;&#9;&#9;c0.6,0.9,0.7,2,0.4,3.1c-1.2,3.2-2.4,6.1-3.6,8.8c-0.5,1-1.4,1.8-2.5,2c-3,0.6-6,1-9.1,1.5c-3.8,0.6-6.4,3.4-6.6,6.8&#10;&#9;&#9;c-0.2,4.6-0.2,9.3,0,14.4c0.1,3.1,2.3,5.7,5.3,6.4c2.8,0.6,5.6,1.1,8.4,1.5l2,0.3c1.3,0.2,2.4,1.1,2.9,2.3c1,2.4,2,5,3.4,8.1&#10;&#9;&#9;c0.6,1.2,0.5,2.6-0.3,3.6c-1.8,2.4-3.7,5-5.4,7.5c-2.4,3-2,7.4,0.9,10c3.4,3.4,6.2,6.2,8.8,8.8c3.1,3,6.7,3.3,10.2,0.8&#10;&#9;&#9;c2.5-1.8,5.1-3.5,7.6-5.4C136.6,293,137.3,292.7,138,292.7z M107.4,223L107.4,223z M110.6,214.5L110.6,214.5z M165.4,275.8h-0.3&#10;&#9;&#9;c-9.2,0-17.9-3.7-24.3-10.3c-6.3-6.3-9.8-15-9.7-23.9c0.2-18.7,15.3-33.9,34.1-34l0,0c18.8,0,34.1,15.2,34.1,34.1&#10;&#9;&#9;c0,9.2-3.7,17.9-10.2,24.3C182.8,272.3,174.3,275.8,165.4,275.8L165.4,275.8z M165.2,211.4c-16.7-0.1-30.3,13.4-30.4,30.1&#10;&#9;&#9;c0,0.1,0,0.1,0,0.2c-0.1,8,3,15.6,8.6,21.3c5.7,5.8,13.5,9.1,21.7,9.2l0,0c8,0.1,15.7-3,21.3-8.7c5.8-5.7,9.1-13.5,9.1-21.7&#10;&#9;&#9;C195.6,225,182,211.4,165.2,211.4L165.2,211.4z"/>
</g>
<g id="device_user-interface-1-100">
	<path class="st2_user-interface-1-100 targetColor" d="M195.1,91.9h139.6c16.5,0,29.9,13.4,29.9,29.9V397c0,16.5-13.4,29.9-29.9,29.9H195.1&#10;&#9;&#9;c-16.5,0-29.9-13.4-29.9-29.9V121.8C165.2,105.3,178.6,91.9,195.1,91.9z" style="fill: rgb(76, 99, 124);"/>
	<path class="st1_user-interface-1-100" d="M332.6,428.7H197.2c-18.7,0-33.8-15.2-33.8-33.8v-271c0-18.7,15.2-33.8,33.8-33.8h135.4&#10;&#9;&#9;c18.7,0,33.8,15.2,33.8,33.8v271C366.4,413.5,351.3,428.7,332.6,428.7z M197.2,93.7c-16.7,0-30.2,13.5-30.2,30.2v271&#10;&#9;&#9;c0,16.6,13.5,30.1,30.2,30.1h135.4c16.6,0,30.1-13.5,30.2-30.1v-271c0-16.6-13.5-30.1-30.2-30.2L197.2,93.7z"/>
	<rect x="165.2" y="137.4" class="st3_user-interface-1-100" width="199.4" height="243.5"/>
	<path class="st1_user-interface-1-100" d="M364.6,382.8H165.2c-1,0-1.8-0.8-1.8-1.8V137.4c0-1,0.8-1.8,1.8-1.8l0,0h199.4c1,0,1.8,0.8,1.8,1.8v243.5&#10;&#9;&#9;C366.4,381.9,365.6,382.8,364.6,382.8z M167,379.1h195.8V139.3H167V379.1z"/>
	<circle class="st1_user-interface-1-100" cx="264.9" cy="402.9" r="12.2"/>
</g>
<g id="search_user-interface-1-100">
	<rect x="134.3" y="331.7" class="st3_user-interface-1-100" width="189.6" height="31.1"/>
	<path class="st1_user-interface-1-100" d="M323.9,364.7H134.3c-1,0-1.8-0.8-1.8-1.8v-31.1c0-1,0.8-1.8,1.8-1.8h189.6c1,0,1.8,0.8,1.8,1.8v31.1&#10;&#9;&#9;C325.7,363.9,324.9,364.7,323.9,364.7L323.9,364.7z M136.1,361h186v-27.4h-186V361z"/>
	<rect x="292.3" y="331.7" class="st2_user-interface-1-100 targetColor" width="31.6" height="31.1" style="fill: rgb(76, 99, 124);"/>
	<path class="st1_user-interface-1-100" d="M323.9,364.7h-31.6c-1,0-1.8-0.8-1.8-1.8v-31.1c0-1,0.8-1.8,1.8-1.8h31.6c1,0,1.8,0.8,1.8,1.8v31.1&#10;&#9;&#9;C325.7,363.9,324.9,364.7,323.9,364.7L323.9,364.7z M294.1,361h28v-27.4h-28V361z"/>
	<path class="st1_user-interface-1-100" d="M305.9,354.2c-4.8,0-8.6-3.9-8.6-8.6s3.9-8.6,8.6-8.6c4.8,0,8.6,3.9,8.6,8.6c0,0,0,0,0,0&#10;&#9;&#9;C314.5,350.3,310.7,354.2,305.9,354.2z M305.9,340.6c-2.8,0-5,2.2-5,4.9c0,2.8,2.2,5,4.9,5c2.8,0,5-2.2,5-4.9c0,0,0,0,0,0&#10;&#9;&#9;C310.9,342.9,308.7,340.7,305.9,340.6z"/>
	<path class="st1_user-interface-1-100" d="M318.9,358.1c-0.4,0-0.8-0.1-1.1-0.4l-8-6.1c-0.8-0.6-1-1.8-0.4-2.6s1.8-1,2.6-0.4l8,6.1&#10;&#9;&#9;c0.8,0.6,1,1.8,0.4,2.6C320,357.9,319.5,358.1,318.9,358.1L318.9,358.1z"/>
	<path class="st4_user-interface-1-100" d="M235.4,349.1h-81.2c-1,0.1-1.9-0.7-2-1.7c-0.1-1,0.7-1.9,1.7-2c0.1,0,0.2,0,0.3,0h81.2c1-0.1,1.9,0.7,2,1.7&#10;&#9;&#9;c0.1,1-0.7,1.9-1.7,2C235.5,349.1,235.4,349.1,235.4,349.1z"/>
	<path class="st4_user-interface-1-100" d="M260.1,349.1h-11c-1-0.1-1.8-1-1.7-2c0.1-0.9,0.8-1.6,1.7-1.7h11c1,0.1,1.8,1,1.7,2&#10;&#9;&#9;C261.7,348.3,261,349.1,260.1,349.1z"/>
</g>
<g id="tab_user-interface-1-100">
	<rect x="220.2" y="73.2" class="st3_user-interface-1-100" width="189.3" height="243.5"/>
	<path class="st1_user-interface-1-100" d="M409.6,318.5H220.2c-1,0-1.8-0.8-1.8-1.8c0,0,0,0,0,0V73.2c0-1,0.8-1.8,1.8-1.8c0,0,0,0,0,0h189.3&#10;&#9;&#9;c1,0,1.8,0.8,1.8,1.8c0,0,0,0,0,0v243.5C411.4,317.6,410.6,318.4,409.6,318.5C409.6,318.5,409.6,318.5,409.6,318.5z M222.1,314.8&#10;&#9;&#9;h185.7V75H222.1V314.8z"/>
	<path class="st4_user-interface-1-100" d="M381.1,195.3H249.8c-1,0-1.8-0.8-1.8-1.8l0,0v-91.8c0-1,0.8-1.8,1.8-1.8l0,0h131.3c1,0,1.8,0.8,1.8,1.8v91.8&#10;&#9;&#9;C382.9,194.5,382.1,195.3,381.1,195.3z M251.7,191.7h127.6v-88.2H251.7L251.7,191.7z"/>
	<path class="st4_user-interface-1-100" d="M381.1,213.6H249.8c-1,0-1.8-0.8-1.8-1.8s0.8-1.8,1.8-1.8l0,0h131.3c1,0,1.8,0.8,1.8,1.8&#10;&#9;&#9;S382.1,213.6,381.1,213.6z"/>
	<path class="st4_user-interface-1-100" d="M381.1,233.2H355c-1,0-1.8-0.8-1.8-1.8s0.8-1.8,1.8-1.8l0,0h26.1c1,0,1.8,0.8,1.8,1.8S382.1,233.2,381.1,233.2&#10;&#9;&#9;z"/>
	<path class="st4_user-interface-1-100" d="M337.1,233.2h-87.3c-1,0-1.8-0.8-1.8-1.8s0.8-1.8,1.8-1.8l0,0h87.3c1,0,1.8,0.8,1.8,1.8&#10;&#9;&#9;S338.2,233.2,337.1,233.2z"/>
	<path class="st4_user-interface-1-100" d="M381.1,252.8H303c-1,0-1.8-0.8-1.8-1.8s0.8-1.8,1.8-1.8h78.1c1,0,1.8,0.8,1.8,1.8S382.1,252.8,381.1,252.8z"/>
	<path class="st4_user-interface-1-100" d="M288.3,252.8h-38.5c-1,0-1.8-0.8-1.8-1.8s0.8-1.8,1.8-1.8l0,0h38.5c1,0,1.8,0.8,1.8,1.8&#10;&#9;&#9;S289.3,252.8,288.3,252.8z"/>
	<path class="st2_user-interface-1-100 targetColor" d="M262.5,269h104.6c7.7,0,14,6.3,14,14l0,0c0,7.7-6.3,14-14,14H262.5c-7.7,0-14-6.3-14-14l0,0&#10;&#9;&#9;C248.5,275.3,254.8,269,262.5,269z" style="fill: rgb(76, 99, 124);"/>
	<path class="st1_user-interface-1-100" d="M367.1,298.8H262.5c-8.7,0.2-16-6.7-16.2-15.4c-0.2-8.7,6.7-16,15.4-16.2c0.3,0,0.5,0,0.8,0h104.6&#10;&#9;&#9;c8.7,0.2,15.6,7.5,15.4,16.2C382.3,291.8,375.5,298.6,367.1,298.8z M262.5,270.8c-6.7,0-12.2,5.4-12.2,12.2s5.4,12.2,12.2,12.2&#10;&#9;&#9;h104.6c6.7,0,12.2-5.4,12.2-12.2s-5.4-12.2-12.2-12.2H262.5z"/>
	<path class="st1_user-interface-1-100" d="M269.1,89.6h-16c-1,0-1.8-0.8-1.8-1.8s0.8-1.8,1.8-1.8h16c1,0,1.8,0.8,1.8,1.8S270.1,89.6,269.1,89.6z"/>
	<path class="st1_user-interface-1-100" d="M347.7,89.6h-8.1c-1,0-1.8-0.8-1.8-1.8s0.8-1.8,1.8-1.8h8.1c1,0,1.8,0.8,1.8,1.8S348.8,89.6,347.7,89.6z"/>
	<path class="st1_user-interface-1-100" d="M376.1,89.6H368c-1,0.2-1.9-0.5-2.1-1.5c-0.2-1,0.5-1.9,1.5-2.1c0.2,0,0.4,0,0.6,0h8.1c1,0,1.8,0.8,1.8,1.8&#10;&#9;&#9;S377.1,89.7,376.1,89.6L376.1,89.6z"/>
</g>
</svg>